<svg width="412" height="410" viewBox="0 0 412 410" fill="none" xmlns="http://www.w3.org/2000/svg">
<path d="M233.28 366.38C188.45 373.65 151.73 372.51 110.35 363.04C62.7503 352.14 11.7903 314.11 14.0803 257.85C16.3703 201.59 45.7303 186.43 67.6203 184.72C83.9503 183.45 99.9203 189.12 115.51 194.16C155.88 207.22 184.28 213.16 226.51 209.33C291.72 203.43 327.75 169.33 362.77 187.4C393.11 203.03 408.59 249.4 377.17 291.66C342.86 337.87 293.48 356.63 233.28 366.38Z" fill="#454545"/>
<path d="M238.13 364.67C193.76 374.36 157.04 375.23 115.2 368.03C67.0795 359.74 14.1195 324.52 13.3295 268.25C12.5395 211.98 41.0495 195.2 62.8095 192.31C79.0495 190.15 95.2995 194.94 111.14 199.12C152.14 209.95 180.85 214.33 222.84 208.21C287.64 198.77 321.76 162.79 357.71 178.89C388.85 192.84 406.84 238.3 377.77 282.21C345.99 330.22 297.7 351.65 238.13 364.67Z" stroke="#515151" stroke-width="3" stroke-miterlimit="10"/>
<path d="M331.59 152.52H407.59C407.59 152.52 404.18 139.68 393.44 146.23C388.44 128.68 370.12 132.61 365.93 143.35C363.31 135.75 355.26 140.47 355.78 144.92C347.91 136.8 334.57 142.76 331.59 152.52Z" fill="#747474"/>
<path d="M146.03 77.7H108.96C108.96 77.7 110.62 71.43 115.86 74.63C118.29 66.06 127.24 67.98 129.28 73.22C130.56 69.51 134.49 71.82 134.23 73.99C138.07 70.03 144.58 72.93 146.03 77.7Z" fill="#747474"/>
<path d="M16.7197 131.52H88.2297C88.2297 123.07 73.9797 114.89 61.2997 124.39C60.7797 105.91 33.8497 107.76 31.9997 126.5C19.3597 121.72 16.7197 131.52 16.7197 131.52Z" fill="#747474"/>
<path d="M301.33 162.03C297.4 164.12 296.96 170.84 298.22 175.84C299.48 180.84 308.7 198.7 303.7 209.73C316.04 209.53 320.87 202.03 320.87 202.03C320.87 202.03 323.31 187.11 320.07 180.78C316.83 174.45 301.33 162.03 301.33 162.03Z" fill="#412308"/>
<path d="M316.39 213.11C313.91 212.76 312.39 212.43 307.39 219C302.28 225.79 300.24 230 295.84 236C291.44 242 292.92 245 296.57 246.4C300.962 247.967 305.578 248.815 310.24 248.91L306.06 239.13L316.39 213.11Z" fill="#009378"/>
<path opacity="0.23" d="M365.37 399.52C365.37 403.19 345.73 406.16 321.51 406.16C297.29 406.16 277.64 403.16 277.64 399.52C277.64 395.88 297.28 392.88 321.51 392.88C345.74 392.88 365.37 395.81 365.37 399.52Z" fill="#1976d2"/>
<path d="M315.34 389.63L316.72 398.09H296.81C296.859 397.639 297.047 397.214 297.348 396.874C297.649 396.533 298.048 396.295 298.49 396.19C300.17 395.58 308.71 394.13 310.69 392.98C311.251 392.677 311.718 392.226 312.04 391.676C312.363 391.126 312.529 390.498 312.52 389.86L315.34 389.63Z" fill="#0E1920"/>
<path d="M348.43 393.2L349.8 401.66H329.9C329.949 401.209 330.135 400.783 330.434 400.441C330.733 400.1 331.13 399.858 331.57 399.75C333.25 399.14 341.79 397.69 343.78 396.55C344.341 396.244 344.808 395.791 345.131 395.24C345.453 394.688 345.619 394.059 345.61 393.42L348.43 393.2Z" fill="#0E1920"/>
<path d="M301.55 271.3C300.55 278.11 305.24 320.3 307.37 343.39C309.5 366.48 311.91 391.11 311.91 391.11L315.91 390.4C315.91 390.4 323.57 338.56 323.43 326.22C323.29 313.88 312.93 273.85 312.93 273.85L301.55 271.3Z" fill="#345C68"/>
<path d="M304.53 273.28C304.96 277.97 317.59 317.14 327.1 343.39C336.61 369.64 344.47 394.29 344.47 394.29H350.47C350.47 394.29 341.9 327.5 339.63 312.88C337.36 298.26 338.49 282.22 332.96 269.59C326.53 264.52 304.53 273.28 304.53 273.28Z" fill="#3E6E7D"/>
<path d="M317.41 210.52C315.76 210.98 314.09 213.59 309.68 218.86C306.41 222.78 300.19 228.29 300.53 231.42C300.87 234.55 303.46 237.34 305.7 237.75C304.7 244.08 301.01 263.75 299.17 271.51C303.5 278.51 328.03 276.78 334.17 268.96C332.12 264.6 330.09 247.08 330.7 238.84C331.31 230.6 330.63 220.98 329.03 215.84C327.43 210.7 321.3 209.52 317.41 210.52Z" fill="#1976d2"/>
<path d="M325.38 215.35C325.768 214.601 326.399 214.006 327.169 213.662C327.939 213.319 328.804 213.248 329.62 213.46C331.57 214 333.38 216.75 333.18 224.06C333.07 227.94 329.65 251.06 327.18 253.34C323.9 256.44 317.01 251.25 318.65 247.34C320.581 242.998 321.978 238.438 322.81 233.76C323.99 227.05 324.08 217.44 325.38 215.35Z" fill="#008870"/>
<path d="M304.11 238.34C300.34 237.65 297.62 239.53 299.11 241.08C301.23 240.74 304.11 238.34 304.11 238.34Z" fill="#EBC280"/>
<path d="M323.64 243.04C321.14 241.79 315.88 239.96 304.41 238.19C301.17 238.25 298.85 241.05 298.85 241.05C298.85 241.05 312.39 250.52 317.23 253.16C322.07 255.8 325.99 256.16 327.83 252.57C329.67 248.98 323.64 243.04 323.64 243.04Z" fill="#008870"/>
<path d="M318.17 241.21C322.45 239.21 328.62 240.21 330.86 245.21C332.86 249.56 330.75 253.06 328.47 249.99C326.37 247.17 325.64 244.55 322.37 243.17C321.027 242.401 319.622 241.745 318.17 241.21Z" fill="#EBC280"/>
<path d="M314.14 214.41C312.66 216.21 311.25 218.68 313.32 219.41C315.39 220.14 321.09 216.83 322.74 212.89C324.39 208.95 321.5 197.36 321.5 197.36L316.43 197.47C316.43 197.47 316.7 206.28 316.7 209.01C316.7 210.52 316.05 212.09 314.14 214.41Z" fill="#DAA05E"/>
<path d="M326.04 201.58C326.04 201.58 306.13 209.58 302.04 205C301.3 204.17 300.89 203.28 300.13 200.84C299.9 200.13 299.129 197.24 298.969 196.48C297.409 189.48 296.6 180.48 298.39 174.48C301.39 164.61 310.33 157.03 319.76 160.66C329.19 164.29 350.55 172.02 326.04 201.58Z" fill="#EBC280"/>
<path d="M302.29 183.44H302.34L301.87 182.16C299.2 185.03 296.07 187.04 293.2 189.16C298.86 194.99 304.9 190.05 303.72 183.16C303.228 183.171 302.743 183.276 302.29 183.47C301.95 183.62 302 183.52 302.29 183.44Z" fill="#EBC280"/>
<path d="M300.33 179.35C298.33 182.3 297.68 185.21 301.95 186.17C306.22 187.13 305.47 181.33 305.47 181.33C303.809 180.541 302.091 179.879 300.33 179.35Z" fill="url(#paint0_linear_226_1909)"/>
<path d="M299.29 183.85C299.307 184.005 299.386 184.147 299.507 184.244C299.629 184.342 299.785 184.387 299.94 184.37C300.017 184.361 300.092 184.338 300.161 184.3C300.229 184.263 300.289 184.212 300.338 184.151C300.387 184.09 300.423 184.021 300.445 183.946C300.467 183.871 300.473 183.792 300.465 183.715C300.456 183.638 300.433 183.562 300.395 183.494C300.357 183.426 300.307 183.366 300.246 183.317C300.185 183.268 300.115 183.232 300.041 183.21C299.966 183.188 299.887 183.181 299.81 183.19C299.732 183.199 299.657 183.223 299.589 183.261C299.52 183.299 299.46 183.35 299.412 183.411C299.363 183.473 299.328 183.543 299.307 183.618C299.286 183.694 299.28 183.772 299.29 183.85Z" fill="#643619"/>
<path d="M301.52 179.52C306.16 180.9 306.34 181.95 304.11 181.3C301.06 180.38 298.36 178.52 301.52 179.52Z" fill="#994D1D"/>
<path d="M304.23 198.15C305.174 197.993 306.058 197.585 306.79 196.97C307.168 196.681 307.526 196.367 307.86 196.03C308.203 195.687 308.508 195.308 308.77 194.9C308.687 195.408 308.481 195.889 308.17 196.3C307.878 196.721 307.52 197.092 307.11 197.4C306.706 197.72 306.244 197.961 305.75 198.11C305.26 198.278 304.729 198.292 304.23 198.15Z" fill="#994D1D"/>
<path opacity="0.23" d="M118.1 409.04C138.231 409.04 154.55 406.569 154.55 403.52C154.55 400.471 138.231 398 118.1 398C97.9696 398 81.6504 400.471 81.6504 403.52C81.6504 406.569 97.9696 409.04 118.1 409.04Z" fill="#1976d2"/>
<path d="M102.72 397.82C102.72 397.82 99.72 403.93 101.26 404.56C102.8 405.19 109.97 405.18 109.2 403.39C108.118 401.471 106.856 399.659 105.43 397.98L102.72 397.82Z" fill="#1976d2"/>
<path d="M125 397.19C123 399.99 120.44 404.12 123.2 404.33C125.96 404.54 142.09 404.33 143.98 404.33C144.09 402.83 142.85 402.88 131.11 401.11C129.47 400.86 130 397.8 130 397.8L125 397.19Z" fill="#1976d2"/>
<path d="M150.6 339.34C148.98 331.03 143.1 300.34 140.06 284.52C135.23 294.45 123.06 297.52 116.06 300.52C121.98 316.22 130.17 337.61 132.06 343.28C132.831 345.426 132.831 347.774 132.06 349.92C131.18 352.87 122.48 397.84 122.48 397.84L132.21 399.91C132.21 399.91 148.87 355.82 150.35 351.24C151.47 347.363 151.556 343.261 150.6 339.34Z" fill="#345C68"/>
<path d="M140.4 276.35C139.83 276.46 105.6 280.23 99.9901 280.68C98.8901 280.57 97.9901 280.46 97.3701 280.36L100.02 399.65L108.43 398.65C108.43 398.65 116.68 314.88 118.29 299.89C118.4 299.89 137.59 296.04 140.06 284.55C140.638 281.856 140.753 279.083 140.4 276.35Z" fill="#3E6E7D"/>
<path d="M168.09 227.96C168.38 227.5 167.65 219.39 167.65 219.39L170 213.54L173.56 209.25L174.65 209.48L172.23 213.83L170.99 217.09L174.6 211.95L178.98 205.07L180.18 205.75L175.94 214.34L181.47 206.76L181.93 207.28L177.87 215.2L182.56 210.29L182.99 211.29L179.31 216.52L181.7 213.74L181.89 214.58L176.72 221.15L169.72 228.95L168.09 227.96Z" fill="#ECC78E"/>
<path d="M121.23 211.03C129.83 212.36 136.78 215.7 140.71 223.46C144.18 230.32 149.06 241.46 149.71 242.71C150.36 243.96 151.56 243.71 152.76 242.39C153.96 241.07 167.16 223.17 167.16 223.17C169.083 223.854 170.704 225.192 171.74 226.95C166.51 239.09 158.55 255.17 157.11 257.26C155.67 259.35 151.96 259.51 150.03 258.39C148.1 257.27 134.59 247.85 134.59 247.85C134.59 247.85 122.32 216.01 121.23 211.03Z" fill="#009C80"/>
<path d="M110.9 210.72C102.62 212.04 95.3496 215.77 95.3496 227.84C95.3496 234.08 96.2896 283.84 96.2896 283.84C96.2896 283.84 128.23 288.52 140.38 278.2C139.16 260.89 135.23 233.36 133.73 226.02C131.59 215.52 125.37 208.42 110.9 210.72Z" fill="#1976d2"/>
<path d="M92.2301 289.89C92.3001 290.49 98.6101 297.11 98.6101 297.11L100.61 303.89L100.48 310.14L99.3601 310.7L98.4601 305.18L97.2801 301.45L97.7001 308.45L98.6501 317.55L97.1201 317.8L94.8501 307.28L95.2801 317.8L94.5101 317.67L92.5101 307.88L91.8201 315.47L90.7401 314.88L90.2901 307.69L90.1301 311.81L89.3801 311.2L89.3301 301.81L90.0501 290.06L92.2301 289.89Z" fill="#ECC78E"/>
<path d="M119.86 209.6C119.86 209.6 119.93 213.31 119.99 214.03C120.05 214.75 111.28 216.3 110.72 212.27C110.582 211.018 110.518 209.759 110.53 208.5C113.529 209.512 116.707 209.887 119.86 209.6Z" fill="#DBBDA6"/>
<path d="M110.53 208.52L110.4 204.08L119.69 203.84L119.86 209.62C116.708 209.907 113.53 209.532 110.53 208.52Z" fill="#BF9C80"/>
<path d="M129.13 203.59C129.13 203.59 138.47 193.31 138.68 179.18C138.91 163.86 129.68 157.42 117.99 157.25C105.23 157.06 99.2299 161.27 95.2299 169.52C91.6099 176.91 92.8399 184.47 95.7499 191.38C100.23 202.06 110.23 204.05 129.13 203.59Z" fill="#381C14"/>
<path d="M136.48 180.45C136.48 193.66 137.77 198.05 135.65 201.88C133.65 205.5 127.74 210.47 113.93 207.02C104.03 204.54 101.54 196.94 101.54 196.94C100.62 197.425 99.573 197.617 98.5403 197.49C97.5955 197.33 96.7465 196.818 96.1639 196.058C95.5813 195.297 95.3084 194.344 95.4003 193.39C95.6503 189.9 97.2603 188.84 98.6003 188.47C100.99 187.81 102.6 190.08 102.6 190.08C102.608 187.165 102.795 184.252 103.16 181.36C103.73 177.67 104.35 173.79 121.81 172.72C126.13 172.46 131.97 172.35 134.28 173.45C136.4 174.52 136.48 176.9 136.48 180.45Z" fill="#DBBDA6"/>
<path d="M125.7 190.52C126.292 190.19 126.939 189.973 127.61 189.88C127.96 189.826 128.317 189.843 128.661 189.928C129.004 190.014 129.327 190.168 129.61 190.38C129.755 190.509 129.865 190.674 129.928 190.858C129.991 191.042 130.006 191.239 129.97 191.43C129.935 191.614 129.875 191.793 129.79 191.96C129.68 192.1 129.58 192.25 129.46 192.38C128.966 192.848 128.385 193.215 127.75 193.46C128.302 193.102 128.806 192.675 129.25 192.19C129.67 191.72 129.84 191.02 129.36 190.65C128.859 190.274 128.233 190.102 127.61 190.17C126.962 190.21 126.32 190.327 125.7 190.52Z" fill="#926053"/>
<path d="M117.44 199.36C117.433 199.731 117.509 200.099 117.663 200.437C117.817 200.774 118.045 201.073 118.33 201.31C118.864 201.806 119.538 202.124 120.26 202.22C120.992 202.335 121.738 202.335 122.47 202.22C122.84 202.17 123.21 202.07 123.58 202C123.95 201.93 124.31 201.79 124.69 201.71C124.35 201.89 124 202.05 123.69 202.22C123.38 202.39 122.96 202.48 122.58 202.57C121.806 202.762 121.002 202.809 120.21 202.71C119.404 202.578 118.665 202.181 118.11 201.58C117.812 201.302 117.593 200.951 117.475 200.561C117.357 200.171 117.345 199.756 117.44 199.36Z" fill="#926053"/>
<path d="M123.86 182.67C124.27 184.23 125.74 188.76 121.33 189.67C116.92 190.58 117.33 185.09 117.33 185.09C119.457 184.154 121.637 183.346 123.86 182.67Z" fill="url(#paint1_linear_226_1909)"/>
<path d="M122.87 182.52C117.81 183.52 115.26 185.88 118.5 185.46C121.74 185.04 126.23 181.86 122.87 182.52Z" fill="#5E443D"/>
<path d="M123.64 189.52C122.85 187.76 120.94 188.05 120.35 189.88" stroke="#452F20" stroke-width="0.61" stroke-miterlimit="10"/>
<path d="M129.23 182.52C128.81 183.72 127.38 188.05 130.78 189.07C134.18 190.09 134.31 184.5 134.31 184.5C134.31 184.5 130.81 183 129.23 182.52Z" fill="url(#paint2_linear_226_1909)"/>
<path d="M130.12 182.39C133.89 183.07 136.19 185.48 132.77 184.63C129.35 183.78 128.16 182.03 130.12 182.39Z" fill="#5E443D"/>
<path d="M132 188.9C131.41 186.72 129.08 187.02 128.8 188.72" stroke="#452F20" stroke-width="0.61" stroke-miterlimit="10"/>
<path d="M102.67 174.23C104.58 176.11 106.34 176.93 114.88 177.23C127.09 177.69 135.3 174.79 135.88 174.23L133.11 167.38C127.826 165.499 122.086 165.31 116.69 166.84C108.23 169.3 103.96 172.4 102.67 174.23Z" fill="#381C14"/>
<path opacity="0.23" d="M262.92 402.32C262.92 405.37 246.6 407.84 226.47 407.84C206.34 407.84 190.02 405.37 190.02 402.32C190.02 399.27 206.34 396.8 226.47 396.8C246.6 396.8 262.92 399.27 262.92 402.32Z" fill="#1976d2"/>
<path d="M209.89 395.17C208.67 397.31 204.27 402.07 209.07 402.38C213.87 402.69 217.74 402.64 216.22 399.97C214.7 397.3 213.55 395.25 213.55 395.25L209.89 395.17Z" fill="#0E1920"/>
<path d="M229.76 392.12L228.38 400.58H248.28C248.229 400.13 248.042 399.707 247.744 399.367C247.445 399.028 247.049 398.788 246.61 398.68C244.93 398.07 236.39 396.62 234.41 395.47C233.847 395.169 233.379 394.718 233.056 394.167C232.733 393.617 232.569 392.988 232.58 392.35L229.76 392.12Z" fill="#0E1920"/>
<path d="M246.29 281.52C246.84 289.45 245.17 319.2 242.67 338.8C240.17 358.4 233.36 393.15 233.36 393.15L228.91 392.45C228.91 392.45 227.38 334.63 226.69 321.7C226 308.77 229.19 292.23 229.19 292.23L246.29 281.52Z" fill="#1F3649"/>
<path d="M246.94 278.79C246.84 281.88 245.99 296.65 232.39 299.1C213.24 302.55 205.61 290.18 206.99 280.87C227.86 284.65 246.94 278.79 246.94 278.79Z" fill="#274658"/>
<path d="M234.42 295.86C233.37 300.08 225.8 333.51 221.75 352.86C217.7 372.21 215.43 394.86 215.43 394.86C215.43 394.86 212.79 397.78 207.78 394.86C207.64 382.63 206.11 298.43 207.5 284.53C216.82 296.21 234.42 295.86 234.42 295.86Z" fill="#274658"/>
<path d="M233.23 214.88C238.77 215.37 242.65 218.3 245.29 223.02C247.973 228.095 250.215 233.391 251.99 238.85C253.99 244.49 251.74 254.58 245.71 250.52C243.48 249.04 233.91 219.52 233.23 214.88Z" fill="#5699B4"/>
<path d="M222.56 213.42C212.83 214.69 207.44 221.1 205.67 230.19C203.9 239.28 205.03 273.69 206.16 281.76C216.96 285.37 238.08 285.37 247.46 280.45C247.18 267.99 245.66 241.27 244.67 231.36C243.68 221.45 236.41 211.63 222.56 213.42Z" fill="#79BDD2"/>
<path d="M201.3 249.74C204.65 250.28 205.86 257.47 206.57 261.22L207.2 290.01L201.8 289.75C201.8 289.75 197.38 267.44 197.15 261.47C196.92 255.5 198.6 249.31 201.3 249.74Z" fill="#F1CA8E"/>
<path d="M200.72 238.91C200.72 238.91 198.24 251.69 197.61 255.17C196.98 258.65 199.79 261.95 202.54 262.66C205.29 263.37 206.13 263.24 206.54 261.22C206.95 259.2 211.1 241.72 211.1 241.72L200.72 238.91Z" fill="#F1CA8E"/>
<path d="M205.23 285.17C205.23 285.65 209.12 293.06 209.12 293.06L210.73 300.17L209.88 301.17L206.72 294.9L206.42 300.26L205.56 307.99H204.14L203.97 298.99L203.17 307.33L202.49 307.14L201.82 299.23L202.3 306.4L201.39 305.83L200.07 298.97L200.62 304.91L199.68 304.23L198.38 297.67L202.12 285.25L205.23 285.17Z" fill="#F1CA8E"/>
<path d="M215.58 218.61C210.74 214.94 203.58 218.68 198.04 238.53C202.822 241.071 208.118 242.494 213.53 242.69C213.53 242.69 221.33 222.97 215.58 218.61Z" fill="#5699B4"/>
<path d="M251.58 252.69C247.15 253.4 244.67 247 246.77 241.62C249.46 233.982 251.013 225.99 251.38 217.9C251.45 215.99 255.27 215.97 255.2 218.8C255.13 221.63 255.3 230.17 255.65 241.18C255.84 246.97 254.75 252.19 251.58 252.69Z" fill="#F1CA8E"/>
<path d="M231.57 205.4C231.414 208.749 231.437 212.104 231.64 215.45C231.97 218.22 234.57 222.73 232.09 224.08C229.61 225.43 223.58 219.84 221.97 216.35C221.4 215.312 221.136 214.132 221.21 212.95C221.13 210.5 220.99 204.5 220.99 204.5L231.57 205.4Z" fill="#E5B381"/>
<path d="M206.44 184.16C206.03 184.7 205.96 192.74 210.11 199.25C214.26 205.76 222.99 206.93 223.46 206.25C223.93 205.57 219.06 167.34 206.44 184.16Z" fill="#994D1D"/>
<path d="M244.78 194.07C243.72 206.7 236.4 212.42 228.05 212.42C216.73 212.42 209.72 197.96 209.65 186.14C209.58 174.32 206.33 165.84 224.83 165.52C245.23 165.18 246.58 172.52 244.78 194.07Z" fill="#F1CA8E"/>
<path d="M240.08 188.39C240.36 191.48 241.46 193.39 243.75 193.19C246.04 192.99 249.58 189.98 249.29 186.9C249 183.82 246.92 181.49 244.63 181.7C242.34 181.91 239.79 185.31 240.08 188.39Z" fill="#F1CA8E"/>
<path d="M245.7 187.94C247.57 182.59 247.05 175.16 246.94 171.01C246.69 161.45 240.94 159.74 236.62 158.64C237.37 158.64 236.86 158.17 237.62 158.17C234.69 155.63 226.47 154.26 223.31 156.17C218.01 157.1 214.73 158.31 211.5 161.07C204.7 166.87 204.59 174.96 207.22 188.15C207.85 188.39 210.76 190.61 211.46 190.57C209.74 185.29 210.03 174.39 215.57 171.5C218.25 170.1 221.57 170.98 224.37 171.28C228.613 171.463 232.865 171.252 237.07 170.65C239.45 170.22 241.22 170.65 241.76 171.26C244.46 174.38 245.85 178.38 245.2 185.81C245.099 186.557 245.277 187.315 245.7 187.94Z" fill="#994D1D"/>
<path d="M213.32 188C214.5 190.87 214.5 193.05 212.59 193.83C210.68 194.61 206.52 193.45 205.34 190.58C204.16 187.71 204.76 184.76 206.68 183.98C208.6 183.2 212.15 185.14 213.32 188Z" fill="#F1CA8E"/>
<path d="M227.44 189.52C230.28 188.95 232.67 189.42 233.2 191.52C233.73 193.62 230.86 194.91 228.5 195.18C226.14 195.45 225.23 189.97 227.44 189.52Z" fill="url(#paint3_linear_226_1909)"/>
<path d="M226.23 189.93C227.32 189.461 228.494 189.222 229.68 189.23C230.301 189.203 230.921 189.302 231.502 189.523C232.083 189.743 232.613 190.079 233.06 190.51C233.288 190.768 233.445 191.08 233.517 191.416C233.589 191.753 233.573 192.102 233.47 192.43C233.262 193.032 232.879 193.557 232.37 193.94C231.425 194.66 230.338 195.171 229.18 195.44C230.215 194.951 231.177 194.321 232.04 193.57C232.86 192.84 233.29 191.69 232.57 190.93C231.778 190.185 230.738 189.758 229.65 189.73C228.507 189.638 227.356 189.705 226.23 189.93Z" fill="#A56052"/>
<path d="M231.87 201.42C227.98 202.18 225.32 202.01 224.16 200.97C223.86 208.89 228.23 209.24 231.87 201.42Z" fill="#643619"/>
<path d="M226.23 181.85C226.49 183.8 227.58 189.51 222.1 189.97C216.62 190.43 217.93 183.8 217.93 183.8C220.656 182.988 223.427 182.336 226.23 181.85Z" fill="url(#paint4_linear_226_1909)"/>
<path d="M224.38 189.4C224.362 189.501 224.323 189.597 224.265 189.683C224.208 189.768 224.134 189.841 224.047 189.896C223.961 189.952 223.864 189.989 223.762 190.005C223.661 190.022 223.557 190.017 223.457 189.992C223.358 189.966 223.264 189.921 223.183 189.858C223.102 189.795 223.034 189.715 222.985 189.625C222.935 189.535 222.905 189.436 222.896 189.333C222.886 189.231 222.898 189.128 222.93 189.03C222.982 188.837 223.108 188.673 223.28 188.571C223.452 188.47 223.657 188.441 223.85 188.49C224.039 188.544 224.2 188.669 224.298 188.838C224.397 189.008 224.427 189.209 224.38 189.4Z" fill="#643619"/>
<path d="M225.02 181.52C218.74 181.96 215.29 184.46 219.28 184.43C223.27 184.4 229.16 181.22 225.02 181.52Z" fill="#994D1D"/>
<path d="M232.36 181.85C232.1 183.8 231.01 189.51 236.48 189.97C241.95 190.43 240.66 183.8 240.66 183.8C237.934 182.988 235.162 182.336 232.36 181.85Z" fill="url(#paint5_linear_226_1909)"/>
<path d="M234.23 189.4C234.279 189.592 234.403 189.757 234.573 189.858C234.744 189.959 234.948 189.989 235.14 189.94C235.235 189.916 235.324 189.873 235.402 189.814C235.48 189.754 235.546 189.68 235.595 189.596C235.644 189.511 235.676 189.418 235.689 189.32C235.702 189.223 235.695 189.125 235.67 189.03C235.62 188.838 235.497 188.673 235.326 188.572C235.156 188.471 234.952 188.441 234.76 188.49C234.665 188.514 234.576 188.557 234.498 188.616C234.42 188.676 234.354 188.75 234.305 188.834C234.255 188.919 234.223 189.013 234.21 189.11C234.198 189.207 234.204 189.305 234.23 189.4Z" fill="#643619"/>
<path d="M233.54 181.52C239.82 181.96 243.269 184.46 239.279 184.43C235.289 184.4 229.4 181.22 233.54 181.52Z" fill="#994D1D"/>
<path d="M218.89 191.43C218.89 191.85 217.8 192.19 216.45 192.19C215.1 192.19 214.01 191.85 214.01 191.43C214.01 191.01 215.1 190.66 216.45 190.66C217.8 190.66 218.89 191.01 218.89 191.43Z" fill="#E9A29D"/>
<path d="M244.65 191.43C244.65 191.85 243.56 192.19 242.21 192.19C240.86 192.19 239.77 191.85 239.77 191.43C239.77 191.01 240.86 190.66 242.21 190.66C243.56 190.66 244.65 191.01 244.65 191.43Z" fill="#E9A29D"/>
<path d="M219.39 169.74C220.29 171.49 226.07 177.8 233.07 177.17C231.633 176.982 230.261 176.454 229.07 175.63C232.813 176.537 236.76 176.028 240.15 174.2C238.506 174.274 236.859 174.237 235.22 174.09C235.22 174.09 240.22 172.71 241.11 170.09C233.927 168.902 226.607 168.784 219.39 169.74Z" fill="#994D1D"/>
<path d="M252.23 211.16C252.49 208.16 252.4 202.36 252.55 200.33C252.7 198.3 251.32 198.04 250.49 198.54C249.66 199.04 249.62 201.6 249.56 204.54C249.51 207.08 249.7 211.8 249.7 211.8L252.23 211.16Z" fill="#EBC086"/>
<path d="M255.23 218.8C256.33 216.15 257.04 212.71 256.78 210.8C256.34 207.51 253.36 206.8 251.36 207.07C249.36 207.34 248.2 211.07 248.36 212.43C248.91 216.16 251.36 217.35 251.44 218.92C251.89 219.9 254.84 219.96 255.23 218.8Z" fill="#F1CA8E"/>
<path d="M254.52 206.44C251.35 206.11 250.98 207.51 250.36 209.71C249.86 211.49 251.83 212.43 254.17 212.79C254.634 212.872 255.11 212.851 255.565 212.728C256.019 212.605 256.441 212.384 256.8 212.08C256.8 212.08 257.31 206.73 254.52 206.44Z" fill="#F1CA8E"/>
<path d="M255.65 210.52C255.618 211.028 255.475 211.524 255.23 211.97C255.085 212.192 254.893 212.38 254.669 212.521C254.445 212.663 254.193 212.755 253.93 212.79C253.419 212.842 252.904 212.819 252.4 212.72C251.886 212.638 251.393 212.454 250.95 212.18C250.519 211.875 250.191 211.445 250.013 210.947C249.834 210.45 249.812 209.91 249.95 209.4C250.072 208.898 250.304 208.43 250.63 208.03C250.924 207.625 251.299 207.284 251.73 207.03C251.32 207.319 250.978 207.694 250.73 208.13C250.44 208.521 250.242 208.972 250.15 209.45C250.033 209.912 250.062 210.399 250.232 210.845C250.402 211.291 250.705 211.673 251.1 211.94C251.506 212.193 251.958 212.363 252.43 212.44C252.905 212.551 253.394 212.588 253.88 212.55C254.115 212.53 254.344 212.462 254.55 212.348C254.757 212.234 254.938 212.078 255.08 211.89C255.364 211.479 255.559 211.012 255.65 210.52Z" fill="#C48D54"/>
<path d="M251.01 213.52C249.42 214.95 247.91 213.71 247.17 212.1C246.43 210.49 246.31 209.28 247.12 208.65C247.93 208.02 251.95 209.15 251.91 210.41C251.87 211.67 250.78 211.77 249.85 211.34C251.41 212.59 251.01 213.52 251.01 213.52Z" fill="#EBC086"/>
<path d="M255.97 209.78C256.009 209.892 256.023 210.01 256.011 210.128C255.999 210.245 255.961 210.359 255.9 210.46C255.825 210.577 255.712 210.665 255.58 210.71C255.509 210.723 255.436 210.711 255.372 210.676C255.309 210.642 255.259 210.587 255.23 210.52C255.272 210.538 255.316 210.547 255.36 210.547C255.405 210.547 255.449 210.538 255.49 210.52C255.549 210.467 255.597 210.402 255.63 210.33C255.69 210.26 255.72 210.17 255.78 210.09C255.838 209.983 255.901 209.88 255.97 209.78Z" fill="#C48D54"/>
<path d="M250.6 213.95C250.804 213.659 250.887 213.301 250.83 212.95C250.773 212.601 250.625 212.273 250.4 212C249.926 211.439 249.34 210.982 248.68 210.66C249.414 210.864 250.07 211.286 250.56 211.87C250.805 212.177 250.955 212.549 250.99 212.94C251.006 213.127 250.979 213.315 250.912 213.49C250.844 213.665 250.737 213.823 250.6 213.95Z" fill="#C48D54"/>
<path d="M251.71 209.99C251.861 210.191 251.935 210.439 251.92 210.69C251.908 210.822 251.87 210.949 251.808 211.066C251.746 211.183 251.662 211.286 251.56 211.37C251.355 211.526 251.107 211.614 250.85 211.62C250.605 211.634 250.36 211.597 250.13 211.51C250.585 211.562 251.044 211.456 251.43 211.21C251.596 211.06 251.712 210.862 251.762 210.644C251.813 210.426 251.794 210.197 251.71 209.99Z" fill="#C48D54"/>
<path d="M208.23 183.76C208.55 187.581 209.777 191.269 211.81 194.52C212.25 194.81 213.13 195.46 213.13 195.46C213.13 195.46 208.52 185.4 213.6 176.24C212.88 177.97 212.855 179.912 213.53 181.66C213.53 181.66 214.29 176.57 217.13 173.77C218.45 175.88 225 176.13 225 176.13C225 176.13 221 173.25 220.31 170.34C216.53 167.79 211.56 170.34 209.96 174.2C208.63 177.38 207.8 180.09 208.23 183.76Z" fill="#994D1D"/>
<path d="M239.83 169.52C242.75 171.93 243.32 177.38 243.18 180.17C243.617 179.4 243.953 178.576 244.18 177.72C244.18 177.72 244.94 190.67 244.18 193.05C244.573 192.734 244.911 192.356 245.18 191.93C245.853 188.234 246.118 184.474 245.97 180.72C245.55 176.06 244.21 171.83 242.97 170.81C242.04 170.139 240.964 169.697 239.83 169.52Z" fill="#994D1D"/>
<path d="M136.62 173.72C136.34 175.32 129.55 179.57 116.05 180.31C120.38 179.88 128.05 178.31 133.38 174.31C134.23 173.45 136.62 173.72 136.62 173.72Z" fill="#381C14"/>
<path d="M94.7704 188.36C93.7704 186.49 92.3104 181.62 92.4704 179.64C91.1804 181.64 91.6604 187.02 91.6604 187.02C91.6604 187.02 86.9604 176.02 95.3004 166.59C93.7504 166.64 91.7704 168.67 91.7704 168.67C91.7704 168.67 93.2704 164.45 99.2604 162.09C99.1004 160.6 100.17 157.23 101.99 156.16C101.231 157.818 100.741 159.587 100.54 161.4C100.54 161.4 108.54 152.84 126.44 156.4C124.106 156.205 121.758 156.279 119.44 156.62C119.44 156.62 133.67 156.99 139.82 167C137.618 165.856 135.597 164.393 133.82 162.66C133.82 162.66 138.47 167.42 137.82 171.92C132.82 167.58 113.05 168.76 108.24 170.31C103.43 171.86 96.3104 187 96.3104 187L94.7704 188.36Z" fill="#381C14"/>
<path d="M123.6 174.76C122.27 176.71 115.38 178.87 110.88 178.65C115.77 180.26 132.77 177.59 131.77 174.37C130.72 172.59 123.6 174.76 123.6 174.76Z" fill="#381C14"/>
<path d="M102.95 181.65C102.84 186.18 103.17 194.46 104.6 197.33C101.47 196.15 99.4902 187.21 99.4902 187.1C99.4902 186.99 102.95 181.65 102.95 181.65Z" fill="#381C14"/>
<path d="M102.83 212.62C97.83 212.48 93.31 216.21 90.41 226.53C86.97 238.75 85.05 248.27 85.18 251.17C85.31 254.07 94.63 261.07 98.03 251.44C102.26 239.44 104.72 230.72 106.03 225.3C108.23 216.23 107.03 212.75 102.83 212.62Z" fill="#009C80"/>
<path d="M85.2305 251.17C86.1505 257.67 88.5305 290.92 88.9405 294.75C91.5305 297.34 96.4005 294.36 96.4005 294.36C96.4005 294.36 96.1805 273.54 97.7305 252.36C98.0505 247.28 85.2305 251.17 85.2305 251.17Z" fill="#029A7F"/>
<path d="M317.84 207.52C319.16 199.348 318.474 190.978 315.84 183.13C315.84 183.13 316.84 191.37 315.67 193.28C316.97 185.28 310.46 177.92 310.46 177.92C310.46 177.92 310.37 179.74 312.37 183.3C309.264 180.073 306.365 176.652 303.69 173.06C303.69 173.06 306.69 178.35 309.5 181.06C301.78 176.46 297.35 169.6 299.96 162.83C300.82 160.58 302.39 157.71 307.68 156.93C312.04 156.29 326.78 156.76 335.55 163.27C344.32 169.78 347.49 179.99 340.46 191.11C335.01 199.23 333.15 199.9 333.15 199.9C333.759 199.103 334.266 198.233 334.66 197.31C332.58 199.66 325.47 204.51 325.47 204.51C325.976 203.898 326.406 203.227 326.75 202.51C323.952 204.469 320.967 206.148 317.84 207.52Z" fill="#412308"/>
<path d="M228.87 136.52C248.837 126.508 264.161 109.167 271.64 88.12C273.22 83.56 273.07 76.64 268.29 76C266 75.69 263.86 77.25 262.43 79.07C257.65 85.16 258.43 94.4 262.89 100.74C267.35 107.08 274.69 110.84 282.19 112.74C288.69 114.38 295.42 114.81 302.11 115.41" stroke="#1976d2" stroke-width="1.5" stroke-miterlimit="10" stroke-dasharray="5.14 5.14"/>
<path d="M83.0698 171.88C72.0698 172.68 61.4298 167.19 53.3498 159.69C41.8998 149.06 34.4098 132.69 38.7798 117.69C42.5898 104.57 55.0698 94.9901 68.5198 92.5901C81.9698 90.1901 96.0298 94.2101 107.57 101.53C116.9 107.45 124.74 115.37 133.13 122.53" stroke="#1976d2" stroke-width="1.5" stroke-miterlimit="10" stroke-dasharray="5.14 5.14"/>
<path d="M159.99 130.8V123.8L153.88 123.12C153.473 121.509 152.833 119.966 151.98 118.54L155.82 113.74L152.37 108.79H150.88L146.07 112.64C144.644 111.788 143.101 111.148 141.49 110.74L140.81 104.62H133.81L133.14 110.74C131.529 111.148 129.987 111.788 128.56 112.64L125.23 108.79H123.73L118.73 113.74L122.58 118.54C121.728 119.966 121.088 121.509 120.68 123.12L114.57 123.8V130.8L120.67 131.47C121.072 133.089 121.712 134.64 122.57 136.07L118.73 140.86L123.73 145.81H125.23L128.52 141.98C129.95 142.842 131.501 143.485 133.12 143.89L133.79 149.98H140.79L141.47 143.89C143.09 143.485 144.64 142.842 146.07 141.98L150.86 145.81H152.35L155.8 140.86L151.97 136.07C152.824 134.637 153.465 133.088 153.87 131.47L159.99 130.8ZM137.31 134.93C135.803 134.93 134.329 134.483 133.076 133.645C131.823 132.807 130.846 131.617 130.269 130.224C129.693 128.831 129.543 127.298 129.837 125.82C130.132 124.341 130.859 122.984 131.926 121.918C132.992 120.853 134.351 120.128 135.83 119.835C137.309 119.542 138.841 119.695 140.233 120.273C141.626 120.851 142.815 121.829 143.651 123.084C144.487 124.338 144.932 125.812 144.93 127.32C144.93 128.32 144.733 129.311 144.35 130.235C143.967 131.158 143.406 131.998 142.698 132.705C141.99 133.411 141.15 133.972 140.226 134.354C139.301 134.735 138.311 134.931 137.31 134.93Z" fill="#1976d2"/>
<path d="M161.49 130.8V123.8L155.38 123.12C154.973 121.507 154.33 119.964 153.47 118.54L157.32 113.74L152.32 108.79L147.51 112.64C146.088 111.786 144.548 111.146 142.94 110.74L142.26 104.62H135.26L134.58 110.74C132.972 111.146 131.432 111.786 130.01 112.64L125.23 108.79L120.23 113.74L124.08 118.54C123.241 119.967 122.618 121.511 122.23 123.12L116.12 123.8V130.8L122.22 131.47C122.626 133.088 123.266 134.637 124.12 136.07L120.29 140.86L125.29 145.81L130.07 141.98C131.504 142.842 133.057 143.485 134.68 143.89L135.35 149.98H142.35L143.02 143.89C144.643 143.485 146.197 142.842 147.63 141.98L152.41 145.81L157.41 140.86L153.58 136.07C154.434 134.637 155.074 133.088 155.48 131.47L161.49 130.8ZM138.81 134.93C137.303 134.93 135.829 134.483 134.576 133.645C133.322 132.807 132.346 131.617 131.769 130.224C131.193 128.831 131.042 127.298 131.337 125.82C131.632 124.341 132.359 122.984 133.426 121.918C134.492 120.853 135.851 120.128 137.33 119.835C138.808 119.542 140.341 119.695 141.733 120.273C143.125 120.851 144.315 121.829 145.151 123.084C145.987 124.338 146.432 125.812 146.43 127.32C146.427 129.339 145.623 131.275 144.195 132.702C142.766 134.129 140.829 134.93 138.81 134.93Z" fill="#1976d2"/>
<path d="M327.91 119.66V113.37L322.42 112.76C322.055 111.31 321.479 109.922 320.71 108.64L324.17 104.32L320.99 99.87H319.71L315.39 103.33C314.11 102.56 312.721 101.987 311.27 101.63L310.66 96.12H304.37L303.76 101.63C302.309 101.987 300.921 102.56 299.64 103.33L296.59 99.87H295.32L290.87 104.32L294.32 108.64C293.551 109.922 292.975 111.31 292.61 112.76L287.12 113.37V119.66L292.6 120.27C292.963 121.727 293.54 123.122 294.31 124.41L290.87 128.72L295.32 133.17H296.59L299.59 129.72C300.876 130.497 302.272 131.077 303.73 131.44L304.34 136.92H310.63L311.24 131.44C312.698 131.077 314.094 130.497 315.38 129.72L319.68 133.17H320.96L324.14 128.72L320.69 124.41C321.461 123.122 322.037 121.727 322.4 120.27L327.91 119.66ZM307.52 123.39C306.163 123.392 304.836 122.991 303.706 122.239C302.577 121.486 301.696 120.415 301.175 119.162C300.654 117.909 300.517 116.529 300.781 115.198C301.044 113.866 301.697 112.643 302.656 111.683C303.615 110.722 304.837 110.068 306.168 109.803C307.499 109.537 308.879 109.672 310.133 110.191C311.387 110.71 312.459 111.589 313.213 112.718C313.968 113.846 314.37 115.173 314.37 116.53C314.37 118.348 313.649 120.091 312.364 121.377C311.08 122.663 309.338 123.387 307.52 123.39Z" fill="#1976d2"/>
<path d="M329.23 119.66V113.37L323.74 112.76C323.371 111.31 322.792 109.922 322.02 108.64L325.48 104.32L321.03 99.87L316.71 103.33C315.429 102.56 314.04 101.987 312.59 101.63L311.98 96.12H305.69L305.08 101.63C303.629 101.987 302.24 102.56 300.96 103.33L296.63 99.87L292.18 104.32L295.64 108.64C294.871 109.922 294.295 111.31 293.93 112.76L288.43 113.37V119.66L293.92 120.27C294.283 121.727 294.859 123.122 295.63 124.41L292.18 128.72L296.63 133.17L300.94 129.72C302.226 130.497 303.621 131.077 305.08 131.44L305.69 136.92H311.98L312.59 131.44C314.048 131.076 315.443 130.496 316.73 129.72L321.03 133.17L325.48 128.72L322.03 124.41C322.804 123.123 323.38 121.728 323.74 120.27L329.23 119.66ZM308.83 123.39C307.473 123.39 306.147 122.988 305.018 122.234C303.89 121.48 303.011 120.409 302.492 119.155C301.973 117.902 301.837 116.522 302.102 115.192C302.366 113.861 303.02 112.639 303.979 111.679C304.938 110.72 306.161 110.066 307.491 109.802C308.822 109.537 310.201 109.673 311.455 110.192C312.708 110.711 313.78 111.591 314.534 112.719C315.287 113.847 315.69 115.173 315.69 116.53C315.69 117.434 315.511 118.33 315.164 119.164C314.816 119.999 314.308 120.757 313.666 121.395C313.025 122.032 312.264 122.537 311.427 122.879C310.59 123.222 309.694 123.395 308.79 123.39H308.83Z" fill="#1976d2"/>
<path d="M302.11 115.44C303.11 115.53 304.17 115.62 305.2 115.73C315.91 116.83 335.39 120.99 344.87 126.09C360.07 134.28 363.11 156.96 345.1 167.26" stroke="#1976d2" stroke-width="1.5" stroke-miterlimit="10" stroke-dasharray="5.14 5.14"/>
<path d="M237.23 139.24V135.73L234.16 135.39C233.943 134.575 233.606 133.796 233.16 133.08L235.09 130.67L232.6 128.18H231.93L230.19 130.12C229.475 129.692 228.7 129.372 227.89 129.17L227.55 126.09H224.03L223.69 129.17C222.881 129.372 222.106 129.692 221.39 130.12L218.98 128.18H218.3L216.49 130.67L218.42 133.08C217.992 133.799 217.672 134.577 217.47 135.39L214.4 135.73V139.24L217.46 139.58C217.678 140.395 218.015 141.174 218.46 141.89L216.53 144.3L218.34 146.78H219.02L221.42 144.86C222.137 145.305 222.915 145.642 223.73 145.86L224.07 148.92H227.59L227.93 145.86C228.746 145.642 229.524 145.305 230.24 144.86L231.97 146.78H232.64L235.13 144.3L233.23 141.89C233.676 141.174 234.013 140.395 234.23 139.58L237.23 139.24ZM225.84 141.32C225.083 141.32 224.342 141.095 223.713 140.674C223.083 140.254 222.592 139.655 222.302 138.956C222.012 138.256 221.936 137.486 222.084 136.743C222.232 136 222.597 135.317 223.132 134.782C223.668 134.246 224.35 133.881 225.093 133.734C225.836 133.586 226.606 133.662 227.306 133.951C228.006 134.241 228.604 134.732 229.025 135.362C229.446 135.992 229.67 136.732 229.67 137.49C229.67 138.499 229.272 139.467 228.563 140.184C227.853 140.901 226.889 141.309 225.88 141.32H225.84Z" fill="#1976d2"/>
<path d="M236.6 139.24V135.73L233.53 135.39C233.308 134.576 232.971 133.799 232.53 133.08L234.46 130.67L231.98 128.18L229.56 130.12C228.844 129.692 228.069 129.372 227.26 129.17L226.92 126.09H223.4L223.06 129.17C222.25 129.372 221.475 129.692 220.76 130.12L218.35 128.18L215.86 130.67L217.79 133.08C217.348 133.798 217.011 134.576 216.79 135.39L213.72 135.73V139.24L216.78 139.58C216.997 140.395 217.334 141.174 217.78 141.89L215.85 144.3L218.34 146.78L220.74 144.86C221.459 145.307 222.241 145.644 223.06 145.86L223.39 148.92H226.91L227.25 145.86C228.065 145.642 228.843 145.305 229.56 144.86L231.97 146.78L234.45 144.3L232.52 141.89C232.965 141.174 233.302 140.395 233.52 139.58L236.6 139.24ZM225.23 141.32C224.47 141.326 223.725 141.106 223.091 140.687C222.456 140.268 221.961 139.671 221.667 138.97C221.374 138.268 221.295 137.496 221.442 136.75C221.589 136.004 221.954 135.319 222.492 134.782C223.029 134.244 223.714 133.879 224.46 133.732C225.206 133.585 225.978 133.664 226.679 133.957C227.38 134.251 227.978 134.747 228.397 135.381C228.815 136.015 229.036 136.76 229.03 137.52C229.022 138.525 228.619 139.487 227.908 140.198C227.197 140.909 226.235 141.312 225.23 141.32Z" fill="#1976d2"/>
<path d="M133.13 122.52C136.228 125.218 139.462 127.754 142.82 130.12C153.643 137.514 166.008 142.347 178.976 144.252C191.945 146.158 205.177 145.087 217.67 141.12C221.513 139.869 225.257 138.331 228.87 136.52" stroke="#1976d2" stroke-width="1.5" stroke-miterlimit="10" stroke-dasharray="5.14 5.14"/>
<path d="M366.89 122.55C370.049 122.55 372.61 119.989 372.61 116.83C372.61 113.671 370.049 111.11 366.89 111.11C363.731 111.11 361.17 113.671 361.17 116.83C361.17 119.989 363.731 122.55 366.89 122.55Z" stroke="#1976d2" stroke-width="1.03" stroke-miterlimit="10"/>
<path d="M333.14 69.32C333.142 69.7734 333.009 70.2171 332.758 70.595C332.508 70.9729 332.151 71.268 331.733 71.4428C331.315 71.6177 330.854 71.6645 330.409 71.5773C329.964 71.49 329.555 71.2727 329.234 70.9529C328.913 70.633 328.693 70.225 328.604 69.7805C328.515 69.336 328.56 68.875 328.733 68.456C328.906 68.037 329.199 67.6788 329.576 67.4267C329.953 67.1746 330.396 67.04 330.85 67.04C331.455 67.04 332.036 67.2799 332.465 67.7072C332.894 68.1345 333.137 68.7144 333.14 69.32V69.32Z" stroke="#1976d2" stroke-width="1.03" stroke-miterlimit="10"/>
<path d="M408.37 169.18C408.37 169.676 408.222 170.162 407.947 170.574C407.671 170.987 407.279 171.309 406.82 171.499C406.362 171.689 405.857 171.739 405.37 171.642C404.883 171.545 404.436 171.306 404.085 170.955C403.734 170.604 403.495 170.157 403.398 169.67C403.301 169.183 403.351 168.678 403.541 168.219C403.731 167.761 404.052 167.369 404.465 167.093C404.878 166.817 405.363 166.67 405.86 166.67C406.19 166.669 406.517 166.733 406.822 166.858C407.127 166.984 407.404 167.169 407.637 167.402C407.871 167.636 408.056 167.913 408.181 168.218C408.307 168.523 408.371 168.85 408.37 169.18V169.18Z" stroke="#1976d2" stroke-width="1.03" stroke-miterlimit="10"/>
<path d="M274.87 167.93C276.377 167.93 277.6 166.708 277.6 165.2C277.6 163.692 276.377 162.47 274.87 162.47C273.362 162.47 272.14 163.692 272.14 165.2C272.14 166.708 273.362 167.93 274.87 167.93Z" stroke="#1976d2" stroke-width="1.03" stroke-miterlimit="10"/>
<path d="M383.84 90.92C383.84 91.1455 383.773 91.3659 383.647 91.5534C383.522 91.7409 383.344 91.887 383.136 91.9733C382.928 92.0595 382.698 92.0821 382.477 92.0381C382.256 91.9941 382.053 91.8856 381.893 91.7261C381.734 91.5667 381.625 91.3636 381.581 91.1424C381.537 90.9213 381.56 90.6921 381.646 90.4838C381.733 90.2755 381.879 90.0974 382.066 89.9722C382.254 89.8469 382.474 89.78 382.7 89.78C383.002 89.78 383.292 89.9001 383.506 90.1139C383.719 90.3277 383.84 90.6177 383.84 90.92Z" stroke="#1976d2" stroke-width="1.03" stroke-miterlimit="10"/>
<path d="M380.14 323.27C380.14 323.992 379.926 324.698 379.524 325.299C379.122 325.899 378.552 326.367 377.884 326.643C377.217 326.919 376.482 326.991 375.774 326.849C375.066 326.707 374.415 326.359 373.905 325.847C373.395 325.336 373.048 324.685 372.909 323.976C372.769 323.267 372.843 322.533 373.121 321.866C373.398 321.199 373.868 320.63 374.469 320.23C375.071 319.83 375.778 319.618 376.5 319.62C376.979 319.62 377.453 319.714 377.895 319.898C378.337 320.082 378.739 320.351 379.077 320.69C379.415 321.029 379.683 321.431 379.866 321.874C380.048 322.317 380.141 322.791 380.14 323.27V323.27Z" stroke="#1976d2" stroke-width="1.03" stroke-miterlimit="10"/>
<path d="M358.36 234.3C358.362 235.192 358.099 236.065 357.605 236.808C357.11 237.551 356.407 238.131 355.583 238.474C354.759 238.817 353.852 238.908 352.976 238.735C352.101 238.562 351.296 238.133 350.664 237.503C350.033 236.872 349.602 236.069 349.427 235.194C349.252 234.318 349.341 233.411 349.682 232.586C350.023 231.762 350.601 231.057 351.343 230.561C352.085 230.065 352.957 229.8 353.85 229.8C354.442 229.799 355.028 229.914 355.575 230.14C356.122 230.365 356.619 230.697 357.038 231.115C357.457 231.533 357.79 232.029 358.016 232.576C358.243 233.122 358.36 233.708 358.36 234.3V234.3Z" stroke="#1976d2" stroke-width="1.03" stroke-miterlimit="10"/>
<path d="M411.45 231.28C411.45 231.621 411.349 231.954 411.159 232.237C410.97 232.52 410.701 232.74 410.386 232.87C410.071 233 409.724 233.033 409.391 232.966C409.057 232.899 408.75 232.734 408.51 232.493C408.27 232.251 408.107 231.944 408.042 231.609C407.976 231.275 408.012 230.929 408.144 230.615C408.275 230.301 408.497 230.033 408.781 229.845C409.066 229.657 409.399 229.558 409.74 229.56C409.965 229.56 410.188 229.605 410.396 229.691C410.605 229.778 410.794 229.904 410.952 230.064C411.111 230.224 411.237 230.414 411.322 230.622C411.408 230.831 411.451 231.055 411.45 231.28Z" stroke="#1976d2" stroke-width="1.03" stroke-miterlimit="10"/>
<path d="M172.01 183.04C173.314 183.04 174.37 181.983 174.37 180.68C174.37 179.377 173.314 178.32 172.01 178.32C170.707 178.32 169.65 179.377 169.65 180.68C169.65 181.983 170.707 183.04 172.01 183.04Z" stroke="#1976d2" stroke-width="1.03" stroke-miterlimit="10"/>
<path d="M189.7 108.62C189.702 109.087 189.566 109.544 189.308 109.934C189.049 110.323 188.682 110.627 188.251 110.807C187.819 110.988 187.345 111.036 186.886 110.946C186.428 110.856 186.006 110.632 185.675 110.302C185.344 109.973 185.118 109.552 185.027 109.094C184.935 108.636 184.981 108.161 185.159 107.729C185.337 107.297 185.64 106.928 186.028 106.668C186.417 106.409 186.873 106.27 187.34 106.27C187.965 106.27 188.563 106.517 189.006 106.958C189.448 107.398 189.698 107.996 189.7 108.62V108.62Z" stroke="#1976d2" stroke-width="1.03" stroke-miterlimit="10"/>
<path d="M111.76 50.75C111.762 51.6429 111.499 52.5162 111.004 53.2594C110.51 54.0026 109.805 54.5822 108.981 54.9248C108.156 55.2674 107.249 55.3575 106.373 55.1838C105.497 55.0101 104.693 54.5804 104.061 53.949C103.43 53.3177 103 52.5132 102.826 51.6374C102.653 50.7616 102.743 49.854 103.085 49.0295C103.428 48.205 104.008 47.5007 104.751 47.0059C105.494 46.5111 106.367 46.248 107.26 46.25C108.453 46.2527 109.596 46.7276 110.439 47.5709C111.283 48.4143 111.758 49.5573 111.76 50.75V50.75Z" stroke="#1976d2" stroke-width="1.03" stroke-miterlimit="10"/>
<path d="M84.5504 155.04C85.8538 155.04 86.9104 153.983 86.9104 152.68C86.9104 151.377 85.8538 150.32 84.5504 150.32C83.247 150.32 82.1904 151.377 82.1904 152.68C82.1904 153.983 83.247 155.04 84.5504 155.04Z" stroke="#1976d2" stroke-width="1.03" stroke-miterlimit="10"/>
<path d="M23.2005 187.76C24.9788 187.76 26.4205 186.318 26.4205 184.54C26.4205 182.762 24.9788 181.32 23.2005 181.32C21.4221 181.32 19.9805 182.762 19.9805 184.54C19.9805 186.318 21.4221 187.76 23.2005 187.76Z" stroke="#1976d2" stroke-width="1.03" stroke-miterlimit="10"/>
<path d="M74.2301 217.89C74.2301 218.272 74.1169 218.645 73.9049 218.962C73.6928 219.28 73.3914 219.527 73.0387 219.673C72.686 219.819 72.298 219.857 71.9236 219.783C71.5492 219.708 71.2053 219.525 70.9354 219.255C70.6655 218.985 70.4817 218.641 70.4072 218.266C70.3327 217.892 70.371 217.504 70.517 217.151C70.6631 216.799 70.9105 216.497 71.2279 216.285C71.5453 216.073 71.9184 215.96 72.3001 215.96C72.8112 215.963 73.3006 216.167 73.6619 216.528C74.0233 216.89 74.2275 217.379 74.2301 217.89V217.89Z" stroke="#1976d2" stroke-width="1.03" stroke-miterlimit="10"/>
<path d="M72.8903 261.94C72.8903 262.322 72.7771 262.695 72.565 263.012C72.3529 263.33 72.0515 263.577 71.6989 263.723C71.3462 263.869 70.9581 263.907 70.5838 263.833C70.2094 263.759 69.8655 263.575 69.5956 263.305C69.3256 263.035 69.1418 262.691 69.0674 262.317C68.9929 261.942 69.0311 261.554 69.1772 261.201C69.3233 260.849 69.5706 260.547 69.888 260.335C70.2054 260.123 70.5786 260.01 70.9603 260.01C71.2141 260.009 71.4657 260.058 71.7004 260.154C71.9352 260.251 72.1485 260.393 72.3279 260.572C72.5074 260.752 72.6495 260.965 72.7461 261.2C72.8426 261.435 72.8916 261.686 72.8903 261.94Z" stroke="#1976d2" stroke-width="1.03" stroke-miterlimit="10"/>
<path d="M4.22 321.5C5.99836 321.5 7.44 320.058 7.44 318.28C7.44 316.502 5.99836 315.06 4.22 315.06C2.44164 315.06 1 316.502 1 318.28C1 320.058 2.44164 321.5 4.22 321.5Z" stroke="#1976d2" stroke-width="1.03" stroke-miterlimit="10"/>
<path d="M75.4804 347.88C75.4804 349.025 75.1408 350.145 74.5046 351.097C73.8684 352.049 72.9641 352.791 71.9061 353.229C70.8481 353.667 69.684 353.782 68.5608 353.559C67.4377 353.335 66.406 352.784 65.5962 351.974C64.7865 351.164 64.2351 350.133 64.0116 349.01C63.7882 347.886 63.9029 346.722 64.3411 345.664C64.7794 344.606 65.5215 343.702 66.4736 343.066C67.4258 342.43 68.5452 342.09 69.6904 342.09C71.226 342.09 72.6987 342.7 73.7845 343.786C74.8704 344.872 75.4804 346.344 75.4804 347.88V347.88Z" stroke="#1976d2" stroke-width="1.03" stroke-miterlimit="10"/>
<path d="M171.8 301.4C172.75 301.4 173.52 300.63 173.52 299.68C173.52 298.73 172.75 297.96 171.8 297.96C170.85 297.96 170.08 298.73 170.08 299.68C170.08 300.63 170.85 301.4 171.8 301.4Z" stroke="#1976d2" stroke-width="1.03" stroke-miterlimit="10"/>
<path d="M271.72 262.38C272.67 262.38 273.44 261.61 273.44 260.66C273.44 259.71 272.67 258.94 271.72 258.94C270.77 258.94 270 259.71 270 260.66C270 261.61 270.77 262.38 271.72 262.38Z" stroke="#1976d2" stroke-width="1.03" stroke-miterlimit="10"/>
<path d="M267 347.71C268.419 347.71 269.57 346.559 269.57 345.14C269.57 343.721 268.419 342.57 267 342.57C265.58 342.57 264.43 343.721 264.43 345.14C264.43 346.559 265.58 347.71 267 347.71Z" stroke="#1976d2" stroke-width="1.03" stroke-miterlimit="10"/>
<path d="M50.8605 75.8C51.7607 75.8 52.4905 75.0703 52.4905 74.17C52.4905 73.2698 51.7607 72.54 50.8605 72.54C49.9602 72.54 49.2305 73.2698 49.2305 74.17C49.2305 75.0703 49.9602 75.8 50.8605 75.8Z" stroke="#1976d2" stroke-width="1.03" stroke-miterlimit="10"/>
<path d="M244.66 59.69C244.658 55.6577 243.681 51.6857 241.812 48.1129C239.942 44.54 237.237 41.4723 233.925 39.1715C230.614 36.8706 226.795 35.4049 222.795 34.8993C218.794 34.3937 214.731 34.8633 210.951 36.268C207.171 37.6727 203.788 39.9709 201.088 42.9664C198.389 45.9619 196.454 49.5658 195.449 53.4709C194.444 57.3759 194.399 61.4661 195.316 65.3925C196.234 69.319 198.088 72.9651 200.72 76.02C204.792 80.8549 206.995 86.9894 206.93 93.31V94.42H231.93V93.42C231.996 87.011 234.363 80.8391 238.6 76.03C242.519 71.4893 244.671 65.6882 244.66 59.69Z" fill="#1976d2"/>
<path d="M219.82 38.6699C222.698 38.343 225.611 38.8243 228.23 40.0599C230.882 41.2282 233.265 42.9303 235.23 45.0599C237.229 47.2051 238.734 49.7615 239.64 52.5499C240.563 55.2908 240.742 58.2272 240.16 61.0599C239.727 58.3707 238.919 55.7554 237.76 53.2899C236.605 50.9268 235.113 48.744 233.33 46.8099C231.536 44.8788 229.492 43.1971 227.25 41.8099C224.951 40.3859 222.444 39.3266 219.82 38.6699Z" fill="white"/>
<path d="M215.5 95.77C215.5 95.77 215.5 86.64 215.31 81.57C215.11 75.1 215.16 71.08 213.77 67.8C212.53 64.88 210.85 64.22 209.55 65.8C208.25 67.38 209.55 71.54 212.81 72.68C216.353 73.7481 220.113 73.8756 223.72 73.05C225.835 72.6522 227.793 71.6562 229.36 70.18C231.17 68.42 230.83 65.51 229.73 64.84C228.27 63.96 226.4 64.97 225.29 67.84C224.82 69.06 223.56 71.84 223.48 80.54C223.43 84.81 223.2 95.54 223.2 95.54" stroke="#00A486" stroke-width="0.86" stroke-miterlimit="10" stroke-linecap="round"/>
<path style="mix-blend-mode:multiply" d="M205.56 39.0601C202.649 41.0444 200.189 43.6217 198.344 46.6231C196.498 49.6245 195.308 52.9821 194.851 56.4757C194.394 59.9694 194.68 63.5202 195.692 66.8953C196.703 70.2704 198.417 73.3936 200.72 76.0601C204.792 80.895 206.995 87.0294 206.93 93.3501V94.4601H231.93V93.4601C231.996 87.051 234.363 80.8791 238.6 76.0701C239.873 74.5844 240.97 72.957 241.87 71.2201C211.44 83.3601 199.47 57.6301 205.56 39.0601Z" fill="url(#paint6_linear_226_1909)"/>
<path d="M219.35 112.52C225.817 112.52 231.06 109.69 231.06 106.2C231.06 102.71 225.817 99.88 219.35 99.88C212.882 99.88 207.64 102.71 207.64 106.2C207.64 109.69 212.882 112.52 219.35 112.52Z" fill="#8F8F8F"/>
<path d="M206.73 98.37H232.17C232.453 98.3897 232.737 98.3509 233.005 98.2561C233.273 98.1613 233.518 98.0124 233.726 97.8187C233.933 97.625 234.099 97.3907 234.212 97.1303C234.325 96.8699 234.384 96.5889 234.384 96.305C234.384 96.021 234.325 95.7401 234.212 95.4797C234.099 95.2193 233.933 94.985 233.726 94.7913C233.518 94.5976 233.273 94.4487 233.005 94.3539C232.737 94.259 232.453 94.2203 232.17 94.24H206.73C206.207 94.2764 205.718 94.5098 205.36 94.893C205.003 95.2763 204.804 95.7809 204.804 96.305C204.804 96.8291 205.003 97.3337 205.36 97.7169C205.718 98.1002 206.207 98.3336 206.73 98.37Z" fill="#BEBEBE"/>
<path d="M232.17 102.37H206.73C206.207 102.406 205.718 102.64 205.36 103.023C205.003 103.406 204.804 103.911 204.804 104.435C204.804 104.959 205.003 105.464 205.36 105.847C205.718 106.23 206.207 106.464 206.73 106.5H232.17C232.453 106.52 232.737 106.481 233.005 106.386C233.273 106.291 233.518 106.142 233.726 105.949C233.933 105.755 234.099 105.521 234.212 105.26C234.325 105 234.384 104.719 234.384 104.435C234.384 104.151 234.325 103.87 234.212 103.61C234.099 103.349 233.933 103.115 233.726 102.921C233.518 102.728 233.273 102.579 233.005 102.484C232.737 102.389 232.453 102.35 232.17 102.37Z" fill="#BEBEBE"/>
<path d="M232.17 98.28H206.73C206.184 98.28 205.66 98.4971 205.273 98.8834C204.887 99.2697 204.67 99.7937 204.67 100.34C204.67 100.886 204.887 101.41 205.273 101.797C205.66 102.183 206.184 102.4 206.73 102.4H232.17C232.716 102.4 233.24 102.183 233.627 101.797C234.013 101.41 234.23 100.886 234.23 100.34C234.23 99.7937 234.013 99.2697 233.627 98.8834C233.24 98.4971 232.716 98.28 232.17 98.28Z" fill="#8F8F8F"/>
<path d="M215.43 27.91L210.56 0L218.19 0.709999L215.43 27.91Z" fill="#1976d2"/>
<path d="M227.94 28.4L234.02 9.96997L236.95 13.14L227.94 28.4Z" fill="#1976d2"/>
<path d="M246.27 37.83L271.72 17.36L272.61 25.91L246.27 37.83Z" fill="#1976d2"/>
<path d="M195.95 37.2201L181.71 18.3101L176.75 23.5101L195.95 37.2201Z" fill="#1976d2"/>
<path d="M187.24 56.66L155.67 45.4301L154.79 55.6701L187.24 56.66Z" fill="#1976d2"/>
<path d="M255.49 58.05L273.15 56.12L272.98 59.8L255.49 58.05Z" fill="#1976d2"/>
<defs>
<linearGradient id="paint0_linear_226_1909" x1="286.48" y1="181.287" x2="285.545" y2="186.583" gradientUnits="userSpaceOnUse">
<stop stop-color="#DA9C68"/>
<stop offset="1" stop-color="#DA9C68" stop-opacity="0"/>
</linearGradient>
<linearGradient id="paint1_linear_226_1909" x1="122.876" y1="181.527" x2="124.37" y2="186.789" gradientUnits="userSpaceOnUse">
<stop stop-color="#B88F6C"/>
<stop offset="1" stop-color="#B88F6C" stop-opacity="0"/>
</linearGradient>
<linearGradient id="paint2_linear_226_1909" x1="134.474" y1="181.782" x2="132.997" y2="186.814" gradientUnits="userSpaceOnUse">
<stop stop-color="#B88F6C"/>
<stop offset="1" stop-color="#B88F6C" stop-opacity="0"/>
</linearGradient>
<linearGradient id="paint3_linear_226_1909" x1="233.025" y1="190.848" x2="227.91" y2="192.444" gradientUnits="userSpaceOnUse">
<stop stop-color="#D38278"/>
<stop offset="1" stop-color="#EEB9AD" stop-opacity="0"/>
</linearGradient>
<linearGradient id="paint4_linear_226_1909" x1="222.043" y1="182.17" x2="222.265" y2="188.84" gradientUnits="userSpaceOnUse">
<stop stop-color="#DA9C68"/>
<stop offset="1" stop-color="#DA9C68" stop-opacity="0"/>
</linearGradient>
<linearGradient id="paint5_linear_226_1909" x1="235.096" y1="181.699" x2="234.863" y2="188.379" gradientUnits="userSpaceOnUse">
<stop stop-color="#DA9C68"/>
<stop offset="1" stop-color="#DA9C68" stop-opacity="0"/>
</linearGradient>
<linearGradient id="paint6_linear_226_1909" x1="204.19" y1="90.1701" x2="224.42" y2="53.8601" gradientUnits="userSpaceOnUse">
<stop stop-color="#E7C13C"/>
<stop offset="1" stop-color="#E7C13C" stop-opacity="0"/>
</linearGradient>
</defs>
</svg>
