<svg width="399" height="364" viewBox="0 0 399 364" fill="none" xmlns="http://www.w3.org/2000/svg">
<path d="M174.381 303.709C258.248 303.709 326.236 235.722 326.236 151.855C326.236 67.9876 258.248 0 174.381 0C90.514 0 22.5264 67.9876 22.5264 151.855C22.5264 235.722 90.514 303.709 174.381 303.709Z" fill="#1976d2"/>
<path d="M196.303 208.001C196.303 208.001 153.973 259.344 139.001 258.033C124.029 256.722 113.742 231.665 113.742 231.665C113.742 231.665 114.256 231.39 115.127 230.867C119.509 228.282 132.986 219.718 136.14 210.578C139.193 205.618 161.399 169.614 168.156 160.427C175.427 150.553 183.981 150.168 183.981 150.168C188.803 158.098 194.891 164.131 202.436 165.268C203.433 165.419 204.437 165.52 205.444 165.57C205.902 168.798 208.937 185.264 223.725 193.69C223.725 193.69 224.294 182.22 231.876 181.202C231.876 181.202 239.907 176.802 246.545 183.238C246.545 183.238 257.052 171.961 246.545 140.293L239.045 133.509L235.607 125.331C235.607 125.331 273.977 123.415 282.852 131.638C291.727 139.862 348.497 214.978 348.497 214.978L265.936 279.083C265.936 279.083 215.859 229.428 196.303 208.001Z" fill="#626262"/>
<path d="M246.563 140.294C257.07 171.961 246.563 183.238 246.563 183.238C239.935 176.82 231.894 181.202 231.894 181.202L242.612 141.99L239.064 133.555L246.563 140.294Z" fill="#D7F2ED"/>
<path d="M220.8 173.877L231.903 181.212C224.321 182.229 223.752 193.699 223.752 193.699C208.964 185.273 205.929 168.807 205.471 165.58C206.372 165.63 207.275 165.63 208.175 165.58L220.8 173.877Z" fill="#D7F2ED"/>
<path d="M196.046 207.598C191.425 201.908 186.807 196.208 182.193 190.499C181.817 190.041 181.175 190.692 181.542 191.15C186.162 196.853 190.78 202.552 195.395 208.249C195.771 208.707 196.413 208.056 196.046 207.598Z" fill="#2E303D"/>
<path d="M192.003 208.726L182.193 204.517C181.652 204.288 181.184 205.077 181.725 205.306L191.535 209.514C192.076 209.743 192.59 208.918 192.003 208.726Z" fill="#2E303D"/>
<path d="M265.019 234.874L252.55 214.245L240.136 193.708L233.095 182.073C233.028 181.982 232.93 181.918 232.819 181.894C232.708 181.871 232.592 181.89 232.494 181.947C232.396 182.004 232.322 182.095 232.287 182.203C232.253 182.311 232.26 182.428 232.306 182.532L244.784 203.16C248.922 210.006 253.06 216.852 257.198 223.697C259.533 227.579 261.877 231.457 264.23 235.332C264.505 235.836 265.303 235.378 265.019 234.874Z" fill="#2E303D"/>
<path d="M136.837 207.195C136.783 208.349 136.558 209.489 136.168 210.578C133.014 219.746 119.537 228.282 115.154 230.867L113.742 225.797C113.742 225.797 106.637 227.392 101.439 222.891C101.293 223.162 101.082 223.392 100.824 223.56C100.044 223.947 99.162 224.079 98.3029 223.936C94.3763 223.577 90.6346 222.101 87.521 219.682C85.6075 218.356 84.2063 216.415 83.5511 214.181C83.2813 213.114 83.3509 211.989 83.7502 210.964C84.1496 209.939 84.8588 209.063 85.779 208.46C85.7057 208.119 85.6597 207.772 85.6415 207.424C85.6533 206.425 85.8711 205.44 86.2813 204.53C86.6914 203.62 87.2852 202.804 88.0253 202.134C89.3972 200.884 90.9409 199.838 92.6094 199.026L92.6644 198.796C93.1197 197.392 94.0252 196.177 95.2407 195.34C96.3317 194.583 97.4995 193.944 98.7247 193.433C92.8478 190.407 87.2093 187.015 87.7777 185.548C88.9238 182.495 100.962 183.577 113.137 187.84C125.313 192.104 129.328 198.457 129.328 198.457C133.069 196.779 137.213 197.109 136.837 207.195Z" fill="#FF9971"/>
<path d="M132.381 208.918L123.827 212.586L119.518 214.419C118.345 214.923 116.905 215.749 115.576 215.336C114.246 214.923 114.136 213.301 114.659 212.155C115.261 211.014 115.997 209.949 116.85 208.982C118.412 207.038 120.169 205.259 122.095 203.674C124.328 201.836 126.775 200.276 129.383 199.026C129.915 198.769 129.457 197.98 128.925 198.237C123.87 200.67 119.437 204.222 115.961 208.625C114.622 210.339 112.083 213.365 114.127 215.51C114.613 215.934 115.207 216.215 115.843 216.321C116.479 216.428 117.133 216.357 117.73 216.115C119.214 215.583 120.668 214.97 122.085 214.282L132.803 209.697C133.381 209.477 132.913 208.689 132.381 208.918Z" fill="#2E303D"/>
<path d="M110.01 199.75L99.3385 193.378C98.8343 193.075 98.4217 193.873 98.8801 194.176L109.552 200.547C110.075 200.859 110.515 200.062 110.01 199.75Z" fill="#2E303D"/>
<path d="M111.67 216.94C111.519 216.082 111.241 215.251 110.845 214.474C110.487 213.557 110.121 212.723 109.754 211.843C108.067 207.821 106.383 203.793 104.702 199.759C104.473 199.227 103.593 199.456 103.785 200.007C105.154 203.264 106.517 206.522 107.874 209.78L109.937 214.713C110.359 215.712 111.642 218.38 109.79 218.774C108.489 219.067 106.967 217.766 105.986 217.078C104.849 216.261 103.765 215.373 102.74 214.419C100.701 212.543 98.9001 210.425 97.3766 208.111C95.6552 205.499 94.3125 202.656 93.3884 199.667C93.2142 199.108 92.334 199.346 92.4716 199.915C94.7103 207.162 99.2889 213.462 105.491 217.83C106.637 218.637 108.003 219.663 109.47 219.663C109.801 219.65 110.125 219.566 110.421 219.417C110.717 219.268 110.978 219.058 111.186 218.8C111.395 218.542 111.546 218.243 111.629 217.923C111.712 217.602 111.726 217.267 111.67 216.94Z" fill="#2E303D"/>
<path d="M103.968 217.417C103.62 216.95 102.822 217.417 103.18 217.885C103.511 218.267 103.693 218.755 103.693 219.26C103.693 219.765 103.511 220.254 103.18 220.635C102.822 220.984 102.361 221.208 101.866 221.276C101.371 221.343 100.868 221.251 100.429 221.011C99.509 220.537 98.65 219.952 97.8713 219.269C97.037 218.609 96.2119 217.931 95.4051 217.243C92.218 214.483 89.2819 211.445 86.631 208.166C86.2643 207.708 85.6133 208.359 85.9801 208.808C88.4134 211.825 91.0904 214.637 93.984 217.215C95.3959 218.462 96.8537 219.663 98.3664 220.8C99.6958 221.79 101.429 222.735 103.061 221.845C103.436 221.637 103.761 221.35 104.015 221.003C104.269 220.657 104.445 220.26 104.531 219.84C104.617 219.419 104.612 218.985 104.515 218.567C104.417 218.149 104.231 217.757 103.968 217.417Z" fill="#2E303D"/>
<path d="M242.611 141.99L231.903 181.248L220.8 173.914C232.224 157.686 229.968 138.414 229.968 138.414C229.968 138.414 228.19 164.369 208.148 165.589C207.247 165.64 206.344 165.64 205.443 165.589C204.436 165.539 203.433 165.438 202.436 165.286C194.89 164.149 188.803 158.117 183.98 150.186C174.399 134.435 169.769 111.239 168.513 104.115C179.799 102.639 190.765 97.8992 201.473 93.6268C204.783 92.3065 208.276 90.9955 211.824 91.3897C215.372 91.7839 218.71 93.9477 221.148 96.6707C223.21 99.1278 224.967 101.824 226.384 104.702C226.805 102.117 228.556 94.3603 234.424 96.5973C235.114 96.8581 235.739 97.2646 236.258 97.7892C241.126 102.703 239.338 117.959 233.819 121.068L235.653 125.34L239.091 133.518L242.611 141.99Z" fill="#FF9971"/>
<path d="M229.996 138.377C229.996 138.377 232.224 157.631 220.828 173.877L208.175 165.552C228.217 164.333 229.996 138.377 229.996 138.377Z" fill="#2E303D"/>
<path d="M235.268 83.9084C234.727 80.4611 233.883 76.8763 231.601 74.2541C229.538 71.9162 225.98 70.6693 223.184 71.8245C223.605 70.2544 223.711 68.6164 223.495 67.0052C223.279 65.394 222.746 63.8415 221.927 62.4374C221.108 61.0333 220.018 59.8055 218.722 58.8249C217.425 57.8443 215.947 57.1304 214.373 56.7243C206.599 54.6981 199.493 59.8141 193.185 63.5456C189.859 65.583 186.242 67.101 182.458 68.0472C178.724 68.9243 174.872 69.1875 171.053 68.8265C169.118 68.6276 167.202 68.275 165.323 67.7721C163.465 67.1822 161.556 66.7678 159.62 66.5344C156.384 66.2777 153.092 67.4513 151.79 70.6602C150.58 73.6124 151.204 77.078 152.377 79.8926C153.206 81.9106 154.375 83.7713 155.834 85.3936C153.932 85.1603 152.005 85.5321 150.327 86.4564C148.649 87.3807 147.305 88.8103 146.486 90.5422C145.666 92.274 145.414 94.22 145.764 96.1036C146.114 97.9873 147.048 99.7127 148.435 101.035C150.956 103.446 154.605 104.216 158.08 104.473C161.57 104.72 165.075 104.603 168.541 104.124C179.827 102.648 190.792 97.9084 201.501 93.6359C204.811 92.3157 208.304 91.0046 211.852 91.3989C215.4 91.7931 218.737 93.9568 221.176 96.6798C223.238 99.1369 224.995 101.834 226.411 104.711C226.833 102.126 228.584 94.3694 234.452 96.6065C235.142 96.8672 235.767 97.2738 236.286 97.7983C236.342 93.1478 236.002 88.5009 235.268 83.9084ZM215.804 61.4185C211.421 59.8416 206.507 60.8684 202.234 62.7204C197.962 64.5724 194.056 67.1854 189.766 68.9732C181.839 72.2236 173.004 72.4972 164.892 69.7433C161.921 68.7165 158.676 67.2862 155.788 68.5148C154.708 69.0551 153.793 69.8752 153.139 70.8896C152.484 71.9039 152.113 73.0753 152.066 74.2816C152.06 73.7292 152.099 73.1772 152.185 72.6314C152.388 71.1496 153.121 69.7914 154.248 68.8082C155.572 67.8362 157.191 67.3505 158.832 67.4329C160.704 67.5352 162.554 67.8867 164.333 68.4781C166.088 68.9689 167.874 69.3456 169.678 69.6058C176.751 70.5417 183.943 69.3479 190.334 66.1769C196.834 62.9221 202.785 57.4761 210.413 57.2378C212.089 57.1576 213.763 57.4322 215.325 58.0437C216.888 58.6551 218.304 59.5895 219.48 60.7859C220.665 62.0301 221.554 63.5249 222.083 65.1596C222.611 66.7943 222.765 68.527 222.533 70.2292C222.533 70.3484 222.487 70.4676 222.469 70.5868C222.652 66.6719 219.608 62.8029 215.804 61.4185Z" fill="#2E303D"/>
<path d="M215.977 138.689C215.977 138.689 221.075 148.004 213.3 153.413C205.526 158.823 200.043 151.158 200.043 151.158L215.977 138.689Z" fill="white"/>
<path d="M189.472 121.819L200.043 142.851C200.043 142.851 191.443 147.692 189.472 144.887C187.501 142.081 189.472 121.819 189.472 121.819Z" fill="#F9785A"/>
<path d="M185.585 126.559C186.392 129.31 185.503 131.987 183.596 132.555C181.689 133.124 179.488 131.345 178.672 128.604C177.856 125.862 178.755 123.176 180.662 122.617C182.569 122.058 184.769 123.818 185.585 126.559Z" fill="#2E303D"/>
<path d="M207.891 119.069C208.698 121.819 207.809 124.487 205.902 125.056C203.995 125.624 201.794 123.845 200.988 121.104C200.181 118.363 201.061 115.677 202.968 115.117C204.875 114.558 207.075 116.318 207.891 119.069Z" fill="#2E303D"/>
<path d="M180.946 115.456C179.205 115.881 177.53 116.541 175.967 117.418C175.556 117.676 175.263 118.085 175.153 118.558C175.043 119.03 175.125 119.527 175.381 119.94C175.508 120.145 175.675 120.323 175.871 120.463C176.067 120.604 176.289 120.704 176.524 120.758C176.759 120.813 177.003 120.821 177.241 120.781C177.479 120.741 177.707 120.655 177.911 120.526C178.296 120.316 178.69 120.123 179.094 119.94C180.027 119.548 180.994 119.242 181.982 119.023C182.213 118.955 182.429 118.842 182.616 118.691C182.804 118.539 182.96 118.353 183.075 118.141C183.19 117.929 183.263 117.697 183.288 117.458C183.314 117.218 183.292 116.976 183.224 116.745C183.156 116.513 183.043 116.298 182.892 116.11C182.741 115.923 182.554 115.767 182.342 115.652C182.131 115.536 181.899 115.464 181.659 115.438C181.419 115.412 181.177 115.434 180.946 115.502V115.456Z" fill="#2E303D"/>
<path d="M207.075 109.286C206.712 108.982 206.257 108.807 205.783 108.791C203.536 108.583 201.272 108.916 199.181 109.763C198.718 109.925 198.33 110.251 198.09 110.68C197.865 111.108 197.812 111.607 197.944 112.073C198.012 112.305 198.125 112.52 198.277 112.708C198.429 112.895 198.616 113.051 198.828 113.166C199.04 113.281 199.273 113.353 199.513 113.378C199.753 113.403 199.995 113.38 200.227 113.311C201.077 112.965 201.962 112.713 202.867 112.559C203.857 112.42 204.86 112.396 205.856 112.486C206.1 112.481 206.342 112.428 206.565 112.329C206.789 112.23 206.99 112.087 207.158 111.908C207.323 111.733 207.452 111.526 207.537 111.301C207.622 111.075 207.662 110.835 207.655 110.594C207.647 110.353 207.592 110.116 207.492 109.896C207.393 109.676 207.251 109.479 207.075 109.314V109.286Z" fill="#2E303D"/>
<path d="M222.918 56.4034C222.68 55.8625 221.891 56.3301 222.12 56.871C223.822 60.8213 224.675 65.0849 224.623 69.3857C224.623 69.5073 224.672 69.6239 224.758 69.7099C224.844 69.7959 224.96 69.8441 225.082 69.8441C225.203 69.8441 225.32 69.7959 225.406 69.7099C225.492 69.6239 225.54 69.5073 225.54 69.3857C225.583 64.9226 224.69 60.5 222.918 56.4034Z" fill="#2E303D"/>
<path d="M227.118 64.3065C226.72 65.9201 226.329 67.5337 225.944 69.1473C225.797 69.7158 226.687 69.9633 226.861 69.3949C227.255 67.7813 227.64 66.1676 228.034 64.554C228.135 63.9764 227.255 63.738 227.118 64.3065Z" fill="#2E303D"/>
<path d="M220.883 335.844V341.703H139.083L76.7295 307.807V302.536L140.275 335.844H220.883Z" fill="#8E8E8E"/>
<path d="M220.883 335.844H140.275L76.7295 302.536H157.337L220.883 335.844Z" fill="#B7B7B7"/>
<path d="M148.811 333.286H138.881L131.052 329.179H140.981L148.811 333.286Z" fill="#8E8E8E"/>
<path d="M138.313 327.804H128.393L120.563 323.705H130.493L138.313 327.804Z" fill="#8E8E8E"/>
<path d="M129.438 322.541H119.509L111.688 318.434H121.617L129.438 322.541Z" fill="#8E8E8E"/>
<path d="M118.95 317.058H109.02L101.2 312.96H111.129L118.95 317.058Z" fill="#8E8E8E"/>
<path d="M160.785 332.488H150.864L143.035 328.39H152.964L160.785 332.488Z" fill="#8E8E8E"/>
<path d="M151.91 327.226H141.981L134.16 323.119H144.08L151.91 327.226Z" fill="#8E8E8E"/>
<path d="M141.421 321.743H131.492L123.671 317.636H133.591L141.421 321.743Z" fill="#8E8E8E"/>
<path d="M162.949 326.245H153.028L145.199 322.147H155.128L162.949 326.245Z" fill="#8E8E8E"/>
<path d="M154.074 320.982H144.153L136.324 316.875H146.253L154.074 320.982Z" fill="#8E8E8E"/>
<path d="M143.585 315.5H133.656L125.835 311.392H135.764L143.585 315.5Z" fill="#8E8E8E"/>
<path d="M199.52 333.781H189.591L181.761 329.674H191.691L199.52 333.781Z" fill="#8E8E8E"/>
<path d="M189.032 328.299H179.103L171.273 324.2H181.202L189.032 328.299Z" fill="#8E8E8E"/>
<path d="M180.148 323.036H170.228L162.398 318.929H172.327L180.148 323.036Z" fill="#8E8E8E"/>
<path d="M169.66 317.553H159.739L151.91 313.455H161.839L169.66 317.553Z" fill="#8E8E8E"/>
<path d="M211.494 332.984H201.574L193.745 328.885H203.674L211.494 332.984Z" fill="#8E8E8E"/>
<path d="M202.619 327.721H192.699L184.87 323.614H194.799L202.619 327.721Z" fill="#8E8E8E"/>
<path d="M192.131 322.239H182.202L174.381 318.131H184.311L192.131 322.239Z" fill="#8E8E8E"/>
<path d="M272.381 364H191.773L150.617 342.381H231.224L272.381 364Z" fill="#D5E0E0"/>
<path d="M216.473 361.396H193.02L181.037 355.107H204.499L216.473 361.396Z" fill="#27C8CC"/>
<path d="M223.762 361.002C223.615 361.003 223.47 360.968 223.34 360.901L195.523 346.287C195.314 346.171 195.158 345.977 195.09 345.748C195.022 345.518 195.046 345.271 195.157 345.059C195.268 344.847 195.458 344.687 195.686 344.613C195.914 344.54 196.161 344.558 196.376 344.664L224.229 359.278C224.408 359.375 224.55 359.529 224.633 359.715C224.715 359.902 224.733 360.11 224.683 360.308C224.634 360.505 224.52 360.681 224.36 360.807C224.2 360.932 224.002 361.001 223.798 361.002H223.762Z" fill="#B7B7B7"/>
<path d="M233.159 360.47C233.011 360.471 232.866 360.433 232.737 360.36L204.921 345.755C204.704 345.642 204.542 345.448 204.468 345.215C204.395 344.982 204.418 344.729 204.531 344.513C204.644 344.296 204.838 344.134 205.071 344.061C205.304 343.988 205.557 344.01 205.773 344.123L233.59 358.738C233.774 358.832 233.921 358.986 234.007 359.174C234.092 359.362 234.112 359.574 234.062 359.775C234.012 359.976 233.895 360.154 233.732 360.28C233.568 360.406 233.366 360.473 233.159 360.47Z" fill="#B7B7B7"/>
<path d="M245.885 361.277C245.735 361.276 245.587 361.239 245.454 361.167L217.637 346.562C217.528 346.508 217.43 346.432 217.351 346.339C217.271 346.247 217.21 346.139 217.173 346.023C217.135 345.907 217.121 345.784 217.131 345.663C217.142 345.541 217.176 345.422 217.233 345.314C217.29 345.206 217.368 345.11 217.462 345.033C217.557 344.955 217.666 344.897 217.783 344.862C217.9 344.827 218.023 344.816 218.144 344.829C218.266 344.842 218.383 344.88 218.49 344.939L246.307 359.544C246.49 359.638 246.637 359.791 246.722 359.979C246.808 360.166 246.828 360.377 246.78 360.577C246.731 360.777 246.616 360.955 246.454 361.082C246.291 361.209 246.091 361.278 245.885 361.277Z" fill="#B7B7B7"/>
<path d="M255.236 360.736C255.09 360.733 254.946 360.699 254.814 360.635L226.998 346.021C226.888 345.967 226.791 345.891 226.711 345.799C226.631 345.706 226.571 345.599 226.533 345.482C226.495 345.366 226.481 345.243 226.492 345.122C226.502 345 226.537 344.881 226.593 344.773C226.65 344.665 226.728 344.569 226.823 344.492C226.917 344.414 227.026 344.356 227.143 344.321C227.26 344.286 227.383 344.275 227.505 344.288C227.626 344.301 227.744 344.339 227.85 344.398L255.667 359.003C255.851 359.098 255.998 359.251 256.084 359.44C256.169 359.628 256.189 359.84 256.139 360.041C256.089 360.241 255.973 360.419 255.809 360.546C255.645 360.672 255.443 360.739 255.236 360.736Z" fill="#B7B7B7"/>
<path d="M339.282 117.492L354.969 109.323C363.109 111.433 371.738 110.518 379.256 106.749C386.773 102.979 392.667 96.6109 395.846 88.8254C399.024 81.04 399.271 72.3659 396.539 64.4125C393.808 56.4591 388.285 49.7665 380.994 45.5763C373.703 41.3861 365.139 39.9828 356.892 41.6269C348.645 43.2709 341.275 47.8507 336.148 54.5164C331.021 61.1821 328.486 69.4812 329.014 77.8739C329.541 86.2666 333.095 94.1831 339.016 100.155L339.282 117.492Z" fill="#1976d2"/>
<path d="M373.526 99.8062V102.08H371.564H358.316H356.28V95.5704L373.526 99.8062Z" fill="#8E8E8E"/>
<path d="M358.315 102.08H371.564C371.564 102.08 371.252 104.83 364.898 104.83C358.545 104.83 358.315 102.08 358.315 102.08Z" fill="#B7B7B7"/>
<path d="M373.526 93.6084V99.8062L356.28 95.5704V93.6084H357.509H372.682H373.526Z" fill="#B7B7B7"/>
<path d="M385.435 66.3326C385.438 69.8882 384.507 73.3822 382.738 76.4661C380.968 79.55 378.421 82.1161 375.35 83.9083L372.682 93.6083H357.509L354.868 83.9083C351.788 82.1126 349.234 79.5384 347.462 76.4441C345.69 73.3497 344.763 69.8438 344.774 66.2782C344.785 62.7125 345.733 59.2123 347.524 56.1288C349.314 53.0452 351.884 50.4867 354.975 48.7097C358.066 46.9328 361.571 45.9999 365.136 46.0047C368.702 46.0094 372.204 46.9517 375.29 48.7369C378.377 50.5221 380.94 53.0876 382.722 56.1759C384.504 59.2643 385.443 62.7669 385.445 66.3326H385.435Z" fill="#27CC9A"/>
<path d="M356.931 71.0451C356.858 70.5684 356.115 70.7701 356.189 71.256L359.599 93.1132C359.682 93.5992 360.415 93.3975 360.342 92.9115L356.931 71.0451Z" fill="white"/>
<path d="M373.058 70.3118C371.836 77.9888 370.613 85.6596 369.391 93.3243C369.318 93.8102 370.051 94.0119 370.134 93.526C371.356 85.8613 372.578 78.1904 373.801 70.5135C373.874 70.0276 373.141 69.8259 373.058 70.3118Z" fill="white"/>
<path d="M375.131 75.8494C374.834 76.6446 374.271 77.3124 373.537 77.7387C372.803 78.1651 371.944 78.3236 371.106 78.1873C370.419 78.0152 369.777 77.7011 369.219 77.2652C368.662 76.8294 368.202 76.2814 367.869 75.6568C368.538 74.6825 369.026 73.5955 369.309 72.4479C369.592 71.3185 369.657 70.1454 369.501 68.9915C369.373 68.0747 368.96 66.9928 367.952 66.8553C366.769 66.6994 366.164 67.8913 365.972 68.8631C365.733 70.1233 365.733 71.417 365.972 72.6771C366.146 73.6881 366.477 74.6656 366.953 75.5743C366.852 75.6935 366.751 75.8219 366.641 75.9411C366.028 76.7248 365.133 77.2381 364.147 77.3713C363.706 77.3734 363.274 77.2538 362.897 77.0257C362.52 76.7976 362.213 76.4698 362.011 76.0786C362.519 75.3336 362.874 74.4954 363.056 73.6123C363.335 72.3025 363.437 70.9611 363.359 69.6241C363.285 68.6156 362.588 67.4329 361.406 67.7904C360.223 68.148 359.985 69.6241 359.911 70.6876C359.815 71.9264 359.961 73.1722 360.342 74.3549C360.533 74.964 360.782 75.5535 361.085 76.1152C360.584 76.7171 359.885 77.1203 359.114 77.2521C356.803 77.628 355.941 75.2718 355.492 73.484C355.462 73.389 355.397 73.3094 355.31 73.2616C355.222 73.2139 355.12 73.2018 355.024 73.2279C354.928 73.2539 354.846 73.3162 354.795 73.4015C354.743 73.4869 354.727 73.5887 354.75 73.6857C355.254 75.6752 356.216 78.0589 358.646 78.0498C359.184 78.046 359.716 77.9299 360.207 77.7089C360.698 77.4879 361.138 77.1668 361.497 76.7662C361.68 77.0142 361.886 77.2444 362.112 77.4538C362.538 77.8273 363.062 78.0714 363.622 78.1575C364.183 78.2435 364.756 78.168 365.275 77.9397C366.091 77.5899 366.813 77.0528 367.383 76.372C368.058 77.4599 369.059 78.307 370.244 78.7924C371.35 79.1735 372.561 79.1055 373.617 78.6032C374.673 78.1009 375.49 77.2043 375.892 76.1061C376.038 75.5927 375.296 75.391 375.131 75.8494ZM360.709 70.1283C360.726 69.6016 360.923 69.0967 361.268 68.6981C361.736 68.2764 362.258 68.5514 362.46 69.074C362.599 69.5876 362.633 70.1239 362.561 70.6509C362.561 71.1919 362.561 71.7328 362.469 72.2646C362.377 73.3433 362.065 74.3917 361.552 75.3451C360.752 73.7309 360.458 71.9125 360.709 70.1283ZM367.374 74.7125C366.521 72.8372 366.311 70.7323 366.778 68.7256C366.805 68.4878 366.892 68.2608 367.032 68.0665C367.172 67.8721 367.359 67.7171 367.576 67.6162C368.044 67.4695 368.364 67.8729 368.493 68.258C368.787 69.102 368.878 70.0035 368.759 70.8893C368.637 72.2964 368.175 73.6527 367.411 74.8409C367.411 74.8409 367.402 74.7858 367.374 74.74V74.7125Z" fill="white"/>
<path d="M143.08 122.626L126.761 125.157C121.806 131.261 114.806 135.361 107.058 136.695C99.3104 138.03 91.3417 136.508 84.6306 132.413C77.9196 128.318 72.922 121.927 70.5653 114.427C68.2085 106.927 68.6526 98.8263 71.8152 91.6287C74.9778 84.4311 80.6441 78.6251 87.7626 75.2883C94.8811 71.9514 102.968 71.3102 110.524 73.4837C118.079 75.6572 124.59 80.4978 128.847 87.1071C133.104 93.7165 134.819 101.646 133.674 109.424L143.08 122.626Z" fill="#4D4A4A"/>
<path d="M127.366 94.2776L96.9822 124.661L80.4609 108.131L88.4649 100.118L96.9822 108.635L119.353 86.2645L127.366 94.2776Z" fill="#1976d2"/>
<path d="M317.379 194.872L296.677 218.086L291.387 232.362L290.305 219.003L288.132 202.693L288.352 199.677L289.59 182.633C286.291 182.979 282.96 182.877 279.688 182.33C267.311 180.13 257.868 170.677 256.685 150.241C255.961 137.781 257.501 128.393 259.582 121.627C262.635 111.688 266.917 107.425 266.917 107.425C266.917 107.425 282.402 133.362 302.921 136.232C302.921 136.232 306.68 127.366 312.538 129.979C318.397 132.592 318.406 150.232 309.109 152.542C307.897 164.81 309.662 177.188 314.253 188.629C315.089 190.807 316.136 192.898 317.379 194.872Z" fill="#FF9971"/>
<path d="M297.136 160.152C301.718 160.152 305.433 156.437 305.433 151.855C305.433 147.272 301.718 143.557 297.136 143.557C292.553 143.557 288.838 147.272 288.838 151.855C288.838 156.437 292.553 160.152 297.136 160.152Z" fill="#F9785A"/>
<path d="M299.923 180.579L288.921 191.581L289.572 182.66C293.083 182.312 296.55 181.615 299.923 180.579Z" fill="#2E303D"/>
<path d="M288.939 191.544L288.353 199.667C288.353 199.667 276.434 205.003 270.997 217.61C269.919 213.718 269.85 209.617 270.795 205.691C271.886 201.328 273.423 197.088 275.379 193.039C277.048 189.567 278.488 185.99 279.688 182.33C282.968 182.892 286.308 183.006 289.618 182.669L288.939 191.544Z" fill="#2E303D"/>
<path d="M269.273 140.156L273.995 160.042C273.995 160.042 265.743 162.527 264.689 160.546C263.635 158.566 269.273 140.156 269.273 140.156Z" fill="#F9785A"/>
<path d="M384.995 199.2C382.529 189.115 376.569 180.441 369.766 172.804C364.265 166.625 358.15 161.032 352.347 155.137C350.513 152.175 348.835 149.15 347.313 146.024C341.629 134.297 338.649 121.398 332.8 109.763C326.95 98.1284 317.122 87.2822 304.25 85.2744C285.345 82.3222 267.302 99.0819 248.497 95.5521C248.163 100.353 248.921 105.168 250.714 109.635C252.506 114.102 255.287 118.104 258.848 121.342L259.554 121.563C262.176 113.036 265.66 108.727 266.605 107.627C267.732 113.265 271.647 117.895 275.516 121.984C280.036 126.761 285.134 131.208 291.313 133.674C293.978 134.76 296.809 135.38 299.684 135.508C300.728 135.784 301.787 136.002 302.856 136.158C302.856 136.158 306.615 127.293 312.474 129.906C318.332 132.519 318.341 150.158 309.045 152.469C307.833 164.736 309.597 177.115 314.188 188.555C315.041 190.758 316.11 192.871 317.379 194.863C318.16 196.081 319.083 197.201 320.129 198.2C320.505 198.549 320.899 198.888 321.321 199.209C329.38 205.361 341.253 201.675 350.742 205.242C359.525 208.542 364.971 217.784 366.402 227.062C367.832 236.341 365.971 245.775 364.119 254.98L364.284 255.035C364.467 254.485 364.641 253.925 364.816 253.375C377.138 249.011 384.436 235.653 384.986 222.515C386.806 214.85 386.809 206.866 384.995 199.2ZM284.272 128.695C279.263 124.831 274.803 120.303 271.015 115.236C269.639 113.321 268.572 111.202 267.852 108.956C271.015 113.742 281.311 128.035 294.907 133.885C291.068 132.837 287.46 131.077 284.272 128.695ZM384.931 217.921C384.014 204.646 377.596 192.25 370.197 181.129C365.146 173.556 359.562 166.313 354.611 158.703C358.15 162.196 361.735 165.644 365.182 169.219C372.462 176.774 379.357 185.209 382.859 195.23C385.352 202.52 386.068 210.299 384.949 217.921H384.931Z" fill="#2E303D"/>
<path d="M265.817 140.284C265.817 143.145 264.203 145.464 262.214 145.464C260.224 145.464 258.62 143.145 258.62 140.284C258.62 137.424 260.224 135.095 262.214 135.095C264.203 135.095 265.817 137.405 265.817 140.284Z" fill="#2E303D"/>
<path d="M284.474 139.542C284.474 142.402 282.861 144.722 280.871 144.722C278.882 144.722 277.277 142.402 277.277 139.542C277.277 136.681 278.882 134.352 280.871 134.352C282.861 134.352 284.474 136.672 284.474 139.542Z" fill="#2E303D"/>
<path d="M264.514 128.32C262.726 128.227 260.933 128.384 259.188 128.787C258.72 128.918 258.323 129.229 258.084 129.651C257.845 130.074 257.784 130.575 257.913 131.043C258.044 131.51 258.354 131.907 258.777 132.146C259.2 132.385 259.7 132.447 260.169 132.317C260.599 132.225 261.03 132.152 261.47 132.088C262.48 131.967 263.499 131.933 264.514 131.987C265.001 131.987 265.467 131.794 265.811 131.45C266.155 131.106 266.348 130.64 266.348 130.153C266.348 129.667 266.155 129.201 265.811 128.857C265.467 128.513 265.001 128.32 264.514 128.32Z" fill="#2E303D"/>
<path d="M286.454 129.961C286.194 129.563 285.806 129.266 285.354 129.117C283.26 128.284 280.995 127.969 278.753 128.2C278.268 128.21 277.804 128.399 277.451 128.732C277.115 129.083 276.924 129.548 276.919 130.034C276.919 130.52 277.113 130.987 277.456 131.331C277.8 131.675 278.267 131.868 278.753 131.868C279.667 131.772 280.589 131.772 281.504 131.868C282.49 132.019 283.456 132.284 284.382 132.656C284.619 132.72 284.865 132.736 285.108 132.703C285.35 132.67 285.584 132.588 285.794 132.464C286.213 132.219 286.518 131.818 286.641 131.349C286.765 130.879 286.698 130.38 286.454 129.961Z" fill="#2E303D"/>
<path d="M287.848 166.744C289.178 170.026 287.922 173.629 285.098 174.794C282.274 175.958 278.827 174.234 277.497 170.952C276.168 167.67 277.415 164.058 280.248 162.893C283.081 161.729 286.519 163.434 287.848 166.744Z" fill="#E56B45"/>
<path d="M288.856 162.16C288.856 162.16 291.607 169.999 283.695 172.612C277.277 174.739 274.526 170.512 273.83 169.064L288.856 162.16Z" fill="white"/>
<path d="M364.128 254.998L364.293 255.053C361.745 262.965 358.847 270.905 355.923 278.396C346.883 301.536 337.586 320.414 337.284 320.973C328.354 308.642 311.722 300.454 306.322 298.052C305.213 297.557 304.58 297.301 304.58 297.301L301.179 307.496L302.032 308.284L271.198 312.392V299.684C271.198 299.684 270.438 298.034 269.31 295.412C267.77 291.836 265.542 286.445 263.681 281.018C261.636 275.058 260.013 269.053 260.224 265.358C260.737 255.842 281.586 219.141 281.586 219.141C281.609 222.364 282.012 225.574 282.787 228.703C282.899 228.079 283.106 227.476 283.402 226.916C283.493 227.31 286.445 239.485 291.956 248.709L303.691 228.703C304.177 229.959 304.654 231.362 305.085 232.902C305.085 232.902 318.104 211.815 320.139 198.237C320.515 198.585 320.909 198.925 321.331 199.246C329.39 205.398 341.263 201.712 350.752 205.278C359.535 208.579 364.981 217.821 366.411 227.099C367.842 236.377 365.98 245.793 364.128 254.998Z" fill="#1976d2"/>
<path d="M355.923 278.405L361.424 326.676H336.669L338.723 323.109C338.274 322.385 337.806 321.679 337.275 320.982C337.568 320.423 346.883 301.518 355.923 278.405Z" fill="#1976d2"/>
<path d="M337.284 320.982C337.797 321.679 338.283 322.385 338.732 323.109L336.678 326.676L326.327 344.692C326.327 344.692 322.66 327.574 302.031 308.266L301.179 307.477L304.58 297.282C304.58 297.282 305.213 297.539 306.322 298.034C311.722 300.464 328.354 308.651 337.284 320.982Z" fill="#1976d2"/>
<path d="M326.327 344.692C326.327 344.692 302.645 345.113 236.478 341.29C236.478 341.29 221.011 351.999 214.731 351.32C208.45 350.642 196.036 338.998 192.974 334.157C189.912 329.316 197.907 322.092 197.907 322.092C197.907 322.092 197.989 318.424 203.004 316.316C205.241 315.399 211.375 315.5 217.499 315.931C225.127 316.481 232.737 317.508 232.737 317.508L251.156 315.05L271.235 312.373L302.068 308.266C322.687 327.574 326.327 344.692 326.327 344.692Z" fill="#FF9971"/>
<path d="M320.139 198.21C318.104 211.825 305.085 232.875 305.085 232.875C304.654 231.335 304.168 229.932 303.691 228.676C300.546 220.534 296.677 218.096 296.677 218.096L317.379 194.863C318.163 196.084 319.089 197.208 320.139 198.21Z" fill="white"/>
<path d="M303.691 228.685L291.955 248.69C286.454 239.467 283.493 227.291 283.401 226.897C285.235 223.175 290.305 219.003 290.305 219.003L291.387 232.389L296.677 218.086C296.677 218.086 300.546 220.544 303.691 228.685Z" fill="#D7F2ED"/>
<path d="M281.522 276.984H295.825L296.393 306.322H275.269L274.838 276.984H281.522ZM291.351 293.56V279.807H279.881V293.56H291.351Z" fill="#666666"/>
<path d="M291.378 279.798H279.881V293.56H291.378V279.798Z" fill="#27C8CC"/>
<path d="M288.132 202.684L290.305 219.003C290.305 219.003 285.244 223.175 283.402 226.897C283.106 227.458 282.899 228.061 282.787 228.685C282.012 225.556 281.609 222.346 281.586 219.122C281.522 213.502 282.815 206.718 288.132 202.684Z" fill="white"/>
<path d="M285.235 272.519L288.765 276.984H281.549L285.235 272.519Z" fill="#B7B7B7"/>
<path d="M270.997 217.61C276.498 205.003 288.352 199.667 288.352 199.667L288.132 202.684C282.815 206.718 281.559 213.502 281.586 219.123C281.586 219.123 260.737 255.796 260.224 265.34C260.031 269.007 261.636 275.04 263.681 281L262.434 281.311L253.485 276.965L253.77 276.388C253.77 276.388 265.157 236.047 269.741 220.993C270.089 219.84 270.508 218.71 270.997 217.61Z" fill="#27C8CC"/>
<path d="M271.199 299.684V312.392L251.12 315.069L190.013 314.941C179.671 319.387 174.326 319.625 170.329 317.636C168.697 317.746 162.573 318.424 160.941 318.553C160.785 320.313 160.244 321.881 158.786 321.881C155.476 321.881 151.781 314.491 151.781 314.491C151.781 314.491 150.764 321.881 147.445 320.102C144.126 318.324 145.024 308.183 145.024 308.183C145.024 308.183 137.506 315.518 136.489 312.768C135.471 310.017 140.44 296.751 152.799 295.605C165.158 294.458 193.066 299.428 193.066 299.428L248.415 290.168L269.31 295.412C270.438 298.016 271.199 299.684 271.199 299.684Z" fill="#FF9971"/>
<path d="M269.31 295.394L248.415 290.149C247.132 279.872 250.542 275.535 250.542 275.535L253.485 276.965L263.681 280.999C265.542 286.427 267.77 291.818 269.31 295.394Z" fill="#0CBCBC"/>
<path d="M227.255 295.283C227.883 295.73 228.32 296.396 228.482 297.149C228.643 297.903 228.516 298.69 228.126 299.354C221.662 298.52 220.122 295.577 220.122 295.577C220.385 295.07 220.756 294.626 221.209 294.278C221.662 293.929 222.186 293.684 222.744 293.56C224.386 293.672 225.956 294.272 227.255 295.283Z" fill="#ED694F"/>
<path d="M228.126 299.354L224.22 306.102C221.186 305.682 218.394 304.217 216.326 301.958L220.122 295.54C220.122 295.54 221.662 298.52 228.126 299.354Z" fill="#FF9076"/>
<path d="M224.22 306.102L218.132 316.609L207.735 316.389L216.326 301.958C218.394 304.217 221.186 305.682 224.22 306.102Z" fill="#27C8CC"/>
<path d="M324.393 233.728C321.875 241.674 319.356 249.598 316.838 257.501L309.329 281.164L305.066 294.578C304.892 295.137 305.772 295.385 305.983 294.816C308.507 286.87 311.026 278.949 313.538 271.052L321.01 247.425L325.273 234.012C325.447 233.407 324.613 233.168 324.393 233.728Z" fill="#00AB82"/>
<path d="M355.464 279.707C350.202 290.189 345.367 300.885 340.96 311.796C339.738 314.852 338.531 317.935 337.339 321.047C337.128 321.597 338.017 321.835 338.256 321.285C342.369 310.387 346.926 299.666 351.925 289.122C353.35 286.134 354.804 283.16 356.29 280.202C356.528 279.642 355.73 279.175 355.464 279.707Z" fill="#00AB82"/>
<path d="M280.34 220.186C275.976 228.263 271.511 236.304 267.284 244.455C263.461 251.789 260.087 259.692 260.114 268.127C260.066 272.526 261.149 276.864 263.259 280.724C263.32 280.83 263.42 280.907 263.538 280.939C263.656 280.971 263.781 280.955 263.887 280.894C263.993 280.833 264.07 280.733 264.102 280.615C264.134 280.497 264.118 280.372 264.057 280.266C260.096 273.289 260.454 264.799 262.737 257.345C264.028 253.347 265.666 249.47 267.632 245.756C269.631 241.86 271.758 238.018 273.839 234.159L281.128 220.644C281.412 220.122 280.606 219.663 280.34 220.186Z" fill="#00AB82"/>
<path d="M303.645 229.749C298.694 240.958 293.741 252.165 288.784 263.369C287.561 266.101 286.357 268.83 285.171 271.556C283.309 260.383 282.523 249.057 282.824 237.734C282.916 234.379 283.105 231.017 283.393 227.649C283.393 227.062 282.476 227.071 282.476 227.649C281.473 239.558 281.675 251.537 283.081 263.405C283.466 266.66 283.943 269.887 284.502 273.115C284.502 273.194 284.52 273.273 284.557 273.344C284.586 273.421 284.637 273.487 284.703 273.536C284.769 273.585 284.847 273.614 284.929 273.62C285.011 273.626 285.093 273.608 285.165 273.569C285.237 273.53 285.296 273.471 285.336 273.399C285.368 273.355 285.39 273.305 285.4 273.252C290.327 262.104 295.256 250.955 300.189 239.806C301.601 236.603 303.016 233.404 304.434 230.207C304.672 229.684 303.884 229.217 303.645 229.749Z" fill="#00AB82"/>
<path d="M270.52 312.593L251.019 314.5C250.432 314.555 250.432 315.472 251.019 315.417L270.52 313.51C271.134 313.437 271.144 312.52 270.52 312.593Z" fill="#2E303D"/>
<path d="M179.891 314.289C174.424 316.031 168.782 317.169 163.067 317.682C162.407 317.737 161.756 317.792 161.096 317.828C160.542 317.902 159.981 317.902 159.427 317.828C159.015 317.737 158.51 317.544 158.575 317.04C158.639 316.536 159.409 315.83 159.822 315.436C163.832 311.628 168.449 308.514 173.482 306.221C174.014 305.974 173.547 305.185 173.015 305.433C167.826 307.814 163.073 311.046 158.951 314.995C158.18 315.729 157.172 316.829 157.915 317.938C158.446 318.745 159.574 318.855 160.445 318.8C163.551 318.643 166.644 318.288 169.705 317.737C173.236 317.121 176.722 316.27 180.139 315.188C180.67 314.995 180.459 314.115 179.891 314.289Z" fill="#2E303D"/>
<path d="M152.249 314.354C151.042 310.306 151.026 305.996 152.203 301.94C152.219 301.88 152.223 301.817 152.215 301.755C152.207 301.693 152.187 301.633 152.156 301.579C152.125 301.525 152.084 301.478 152.034 301.44C151.985 301.402 151.928 301.374 151.868 301.358C151.808 301.341 151.745 301.337 151.683 301.345C151.621 301.353 151.562 301.373 151.508 301.404C151.454 301.435 151.406 301.477 151.368 301.526C151.33 301.576 151.302 301.632 151.286 301.692C150.049 305.906 150.049 310.387 151.286 314.601C151.319 314.729 151.401 314.838 151.514 314.905C151.628 314.972 151.763 314.992 151.891 314.959C152.019 314.926 152.128 314.844 152.195 314.73C152.262 314.617 152.281 314.481 152.249 314.354Z" fill="#2E303D"/>
<path d="M148.801 300.427C148.695 300.369 148.57 300.353 148.452 300.384C148.335 300.415 148.233 300.489 148.169 300.592C146.462 302.833 145.303 305.442 144.786 308.211C144.676 308.788 145.565 309.036 145.703 308.449C146.205 305.762 147.332 303.23 148.994 301.06C149.024 301.006 149.043 300.946 149.05 300.885C149.056 300.823 149.051 300.761 149.033 300.702C149.015 300.643 148.985 300.588 148.945 300.541C148.905 300.494 148.857 300.455 148.801 300.427Z" fill="#2E303D"/>
<path d="M289.929 219.003C287.283 221.627 284.797 224.406 282.484 227.328C282.127 227.787 282.769 228.437 283.135 227.97C285.445 225.046 287.931 222.266 290.58 219.645C291.002 219.196 290.351 218.545 289.929 219.003Z" fill="#00AB82"/>
<path d="M305.231 231.94C303.667 226.703 300.972 221.874 297.337 217.793C296.943 217.353 296.292 218.004 296.686 218.444C300.222 222.407 302.836 227.104 304.342 232.197C304.376 232.314 304.455 232.414 304.563 232.473C304.67 232.533 304.797 232.547 304.915 232.513C305.033 232.479 305.132 232.399 305.192 232.292C305.251 232.184 305.265 232.058 305.231 231.94Z" fill="#00AB82"/>
<path d="M292.12 233.141C292.12 232.554 291.204 232.554 291.204 233.141L291.726 245.335C291.726 245.921 292.643 245.921 292.643 245.335L292.12 233.141Z" fill="#2E303D"/>
<path d="M295.439 235.506C295.304 235.246 295.08 235.043 294.807 234.933C294.535 234.824 294.232 234.816 293.954 234.91C293.791 234.976 293.642 235.073 293.514 235.195H293.468C293.445 235.227 293.423 235.261 293.404 235.295C293.404 235.35 293.303 235.387 293.276 235.451C293.248 235.515 293.276 235.525 293.276 235.561C293.279 235.592 293.279 235.623 293.276 235.653C293.24 235.763 293.219 235.877 293.212 235.992C293.212 235.992 293.212 236.056 293.212 236.084C293.207 236.16 293.207 236.237 293.212 236.313C293.212 236.313 293.212 236.368 293.257 236.396C293.276 236.447 293.301 236.496 293.331 236.542C293.365 236.625 293.412 236.702 293.468 236.772C293.468 236.772 293.468 236.772 293.468 236.827C293.501 236.859 293.538 236.887 293.578 236.909C293.62 236.954 293.666 236.994 293.716 237.028C293.716 237.028 293.762 237.028 293.78 237.028L293.963 237.092C294.037 237.125 294.114 237.15 294.193 237.166C294.481 237.21 294.775 237.145 295.018 236.982C295.263 236.813 295.442 236.563 295.522 236.276C295.577 236.017 295.548 235.748 295.439 235.506Z" fill="#2E303D"/>
<path d="M61.6016 316.637L58.8787 339.081L105.775 336.193V345.544L37.4707 353.191L18.9507 339.081L40.0745 289.086L47.6658 271.116L66.525 276.049L64.1596 295.586L61.6016 316.637Z" fill="#8E8E8E"/>
<path d="M86.6586 146.995L118.353 312.153H104.757L72.897 146.995H86.6586Z" fill="#8E8E8E"/>
<path d="M105.775 336.193L58.8789 339.081L61.6019 316.637L105.775 336.193Z" fill="#B7B7B7"/>
<path d="M72.8972 146.995L104.757 312.153L64.1598 295.586L66.5252 276.048L47.666 271.116L40.0747 289.086L36.7099 287.656L0 146.995H72.8972Z" fill="#B7B7B7"/>
<path d="M98.0642 275.452C96.2916 265.111 94.4886 254.778 92.6549 244.454C90.8212 234.131 88.9142 223.765 86.9339 213.356C84.9963 203.05 83.0098 192.751 80.9745 182.458C78.9391 172.165 76.8579 161.885 74.7309 151.616L73.9332 147.766C73.814 147.188 72.9247 147.435 73.0164 148.013C75.1495 158.282 77.243 168.559 79.2967 178.846C81.3504 189.133 83.3582 199.429 85.3202 209.734C87.2945 220.088 89.2137 230.451 91.0779 240.824C92.9422 251.196 94.7575 261.529 96.5239 271.822C98.2965 282.151 100.02 292.496 101.695 302.857C101.906 304.149 102.107 305.442 102.318 306.735C102.41 307.322 103.299 307.074 103.235 306.496C101.548 296.136 99.8245 285.788 98.0642 275.452Z" fill="#2E303D"/>
<path d="M60.8679 275.654C58.0686 285.593 55.1653 295.501 52.1581 305.378C49.1509 315.255 46.0336 325.062 42.8064 334.799C40.9727 340.3 39.1116 345.801 37.2229 351.302C37.0304 351.861 37.9197 352.1 38.1397 351.549C41.5075 341.77 44.7592 331.969 47.8948 322.147C51.0304 312.324 54.0314 302.502 56.8981 292.68C58.5361 287.093 60.1437 281.497 61.7206 275.893C61.7216 275.792 61.6893 275.693 61.6287 275.613C61.5682 275.532 61.4827 275.474 61.3856 275.447C61.2885 275.419 61.1852 275.425 61.0916 275.463C60.998 275.5 60.9194 275.568 60.8679 275.654Z" fill="#2E303D"/>
</svg>
