<svg width="360" height="391" viewBox="0 0 360 391" fill="none" xmlns="http://www.w3.org/2000/svg">
<path opacity="0.38" d="M184.73 1.79742C84.6699 7.17742 80.3699 114.797 91.1199 156.727C101.87 198.657 20.1199 208.367 10.4299 277.227C0.739902 346.087 64.2299 375.127 109.43 376.227C154.63 377.327 190.13 350.407 197.66 317.047C205.19 283.687 226.66 267.557 264.36 261.107C302.06 254.657 369.8 204.107 357.96 138.457C357.96 138.457 355.19 68.6274 289.64 22.2574C245.55 -8.98259 184.73 1.79742 184.73 1.79742Z" fill="#E2E7FF"/>
<path d="M249.45 166.647C249.45 166.647 252.18 131.887 241.95 108.717C237.86 103.267 235.14 105.307 235.14 105.307C235.14 105.307 233.77 119.627 237.14 133.307C240.51 146.987 242.59 173.517 242.59 173.517L249.45 166.647Z" fill="#61A27D"/>
<path d="M251.49 163.927C251.49 163.927 252.18 147.567 269.21 133.257C286.24 118.947 289.66 118.937 289.66 118.937C289.66 118.937 276.03 118.257 266.49 124.397C256.95 130.537 253.54 147.567 252.86 150.297C252.18 153.027 248.09 163.927 248.09 163.927H251.49Z" fill="#578B71"/>
<path d="M240.44 166.427C240.44 166.427 237.25 150.427 218.21 138.857C199.17 127.287 195.8 127.857 195.8 127.857C195.8 127.857 209.16 125.077 219.53 129.667C229.9 134.257 235.9 150.577 236.99 153.167C238.08 155.757 243.81 165.897 243.81 165.897L240.44 166.427Z" fill="#578B71"/>
<path d="M248.09 163.927C248.09 163.927 265.81 105.307 281.48 91.6774C280.8 89.6774 262.4 95.7674 256.95 110.757C251.5 125.747 250.13 148.247 248.09 154.387C246.74 158.342 245.147 162.209 243.32 165.967" fill="#7CC97D"/>
<path d="M249.45 166.647C249.45 166.647 242.63 134.647 224.91 123.707C223.55 127.797 243.32 161.197 241.27 176.197C239.22 191.197 249.45 166.647 249.45 166.647Z" fill="#7CC97D"/>
<path d="M259.18 202.797H232.97C231.36 191.867 229.97 182.037 229.75 178.277C229.461 172.418 230.625 166.578 233.14 161.277H259.01C261.525 166.578 262.689 172.418 262.4 178.277C262.15 181.997 260.79 191.797 259.18 202.797Z" fill="#A9A7E7"/>
<path d="M20.5101 137.477H68.5801V202.517H20.5101V137.477Z" fill="#24ADB2"/>
<path d="M25.45 137.477H73.52V202.517H25.45V137.477Z" fill="#26C6DA"/>
<path d="M37.4701 130.887H85.54V202.517H37.4701V130.887Z" fill="#E1543C"/>
<path d="M42.42 130.887H97.5601V202.517H42.42V130.887Z" fill="#FF634D"/>
<path d="M42.4098 130.887H51.8398V202.517H42.4098V130.887Z" fill="#EB594D"/>
<path d="M317.65 148.797C317.65 148.797 325.19 152.577 328.49 163.407C331.79 174.237 313.88 203.467 313.88 202.057C313.88 200.647 295.97 192.627 295.97 192.627L304.97 159.627L317.65 148.797Z" fill="#1976d2"/>
<path d="M129.3 205.997L139.26 179.687H164.15L154.19 205.997" fill="#4F57A0"/>
<path d="M219.62 184.897H78.1001L75.6201 171.627H217.15" fill="#E2E7FF"/>
<path d="M204.62 104.447L217.15 171.627H75.6199L63.3799 105.997C63.2704 105.387 63.296 104.759 63.4548 104.16C63.6136 103.56 63.9019 103.002 64.2993 102.525C64.6967 102.049 65.1937 101.665 65.7553 101.401C66.3168 101.137 66.9294 100.999 67.5499 100.997H200.45C201.438 100.996 202.396 101.341 203.157 101.971C203.918 102.6 204.436 103.477 204.62 104.447V104.447Z" fill="#243FA7"/>
<path d="M134.91 196.507L97.4399 168.587L134.2 166.467L168.84 193.327L134.91 196.507Z" fill="white"/>
<path d="M145.39 187.437L135.97 182.257C135.97 182.257 126.87 178.487 126.6 178.487C126.33 178.487 125.54 179.367 126.51 181.227C127.48 183.087 130.05 183.517 130.05 183.517L131.73 188.207L123.01 186.967L121.01 186.497C121.587 187.99 122.255 189.446 123.01 190.857C124.212 191.957 125.514 192.941 126.9 193.797C126.9 193.797 133.14 198.987 135.38 199.577C137.62 200.167 145.38 200.517 145.38 200.517L150.38 200.397L154.98 201.337C156.521 198.069 157.209 194.464 156.98 190.857L145.39 187.437Z" fill="#FF8D68"/>
<path d="M89.5498 209.117L62.2098 387.257H55.6098L73.5198 208.177L89.5498 209.117Z" fill="#E2E7FF"/>
<path d="M33.9399 209.117L6.59991 387.257H-6.10352e-05L17.9099 208.177L33.9399 209.117Z" fill="#E2E7FF"/>
<path d="M194.17 209.117L221.51 387.257H228.1L210.2 208.177L194.17 209.117Z" fill="#C2D3EB"/>
<path d="M249.78 209.117L277.12 387.257H283.71L265.81 208.177L249.78 209.117Z" fill="#5A5A5A"/>
<path d="M14.1399 207.227H260.15V215.707H14.1399V207.227Z" fill="#A9A7E7"/>
<path d="M9.42982 210.997H252.61C253.859 210.997 255.057 210.501 255.94 209.618C256.824 208.735 257.32 207.537 257.32 206.287V206.287C257.32 205.038 256.824 203.84 255.94 202.957C255.057 202.074 253.859 201.577 252.61 201.577H9.42982C8.18066 201.577 6.98265 202.074 6.09935 202.957C5.21605 203.84 4.71983 205.038 4.71983 206.287V206.287C4.71983 207.537 5.21605 208.735 6.09935 209.618C6.98265 210.501 8.18066 210.997 9.42982 210.997V210.997Z" fill="#FFC757"/>
<path d="M244.46 369.357C244.46 369.357 242.92 365.567 236.46 366.237C230 366.907 229.19 368.107 228.3 371.287C227.41 374.467 225.01 377.797 223.49 378.467C221.97 379.137 216.37 382.567 211.89 383.097C207.41 383.627 206.79 386.307 207.71 387.587C208.63 388.867 225.37 390.677 229.09 390.367C229.09 390.367 241.69 390.727 244.7 389.887C247.71 389.047 244.65 370.597 244.46 369.357Z" fill="#1976d2"/>
<path d="M242.75 342.217L244.69 371.797C241.805 372.749 239.066 374.095 236.55 375.797C231.37 379.587 227.13 374.997 227.13 374.997L225.96 356.407L242.75 342.217Z" fill="#FF8D68"/>
<path d="M205.25 290.177L224.33 372.177C224.33 372.177 234.23 373.598 246.25 367.938C246.25 367.938 235.64 290.888 234.94 285.938C234.24 280.988 206.66 285.937 205.25 290.177Z" fill="#1976d2"/>
<path d="M282.62 78.0174C282.62 78.0174 274.78 79.4774 269.62 91.0174C264.46 102.557 265.71 127.897 268.42 131.017C271.13 134.137 280.05 133.627 292.58 130.387C305.81 126.977 311.08 113.807 313.98 105.077C319.55 88.3974 305.93 69.9174 282.62 78.0174Z" fill="#FF8D68"/>
<path d="M304.37 145.567L299.86 123.977C299.86 123.977 288.26 119.737 280.35 127.137L277.65 130.417L276.74 144.217C285.799 146.289 295.152 146.746 304.37 145.567V145.567Z" fill="#FF8D68"/>
<path d="M304.62 278.327C286.613 283.068 268.023 285.213 249.41 284.697C219.41 283.697 215.49 275.187 214.56 267.087C213.63 258.987 236.93 254.087 247.06 251.407C257.19 248.727 291.85 238.797 301.23 248.887C310.61 258.977 312.78 271.417 304.62 278.327Z" fill="#201360"/>
<path d="M174.48 369.357C174.48 369.357 172.93 365.567 166.48 366.237C160.03 366.907 159.22 368.107 158.32 371.287C157.42 374.467 155.03 377.797 153.52 378.467C152.01 379.137 146.39 382.567 141.92 383.097C137.45 383.627 136.81 386.307 137.74 387.587C138.67 388.867 155.39 390.677 159.12 390.367C159.12 390.367 171.71 390.727 174.72 389.887C177.73 389.047 174.67 370.597 174.48 369.357Z" fill="#1976d2"/>
<path d="M181.92 344.377L174.85 373.117C174.85 373.117 169.19 371.707 165.85 374.537C162.51 377.367 156.43 375.477 156.43 375.477L161.61 352.857L181.92 344.377Z" fill="#FF8D68"/>
<path d="M240.36 248.237C238.94 248.237 190.87 264.237 181.45 271.327C172.02 278.867 156.94 362.867 156 364.757C155.06 366.647 169.67 371.827 179.09 370.407C179.56 368.527 201.71 297.717 201.71 293.007C201.71 293.007 239.41 291.117 255.44 288.287C271.47 285.457 282.3 284.997 288.9 267.557C295.5 250.117 256.9 248.707 256.9 248.707L240.36 248.237Z" fill="#1976d2"/>
<path d="M158.12 186.257C158.12 186.257 148.93 186.027 148.22 186.967C147.51 187.907 144.22 196.388 147.28 199.968L149.87 201.797H157.87L158.12 186.257Z" fill="#E2E7FF"/>
<path d="M305.98 142.427L303.51 136.067C303.51 136.067 288.66 131.477 275.94 137.127C273.791 139.5 272.111 142.259 270.99 145.257L305.98 142.427Z" fill="#E2E7FF"/>
<path d="M309.16 143.137C309.16 143.137 307.28 139.837 303.98 139.367C300.68 138.897 285.6 137.007 275.7 139.837C273.618 140.555 271.698 141.677 270.05 143.137C270.05 143.137 255.91 147.847 251.2 150.677C246.49 153.507 245.07 175.187 244.13 182.257C243.19 189.327 246.01 196.867 246.01 196.867C246.01 196.867 234.7 243.047 234.7 249.647C234.7 256.247 238.47 263.787 251.7 268.497C264.93 273.207 300.7 271.327 312.96 263.787C316.73 256.247 322.39 166.697 323.33 158.217C324.27 149.737 309.16 143.137 309.16 143.137Z" fill="#1976d2"/>
<path d="M258.97 148.797C258.97 148.797 255.44 146.677 246.97 152.337C238.5 157.997 215.15 179.197 212.33 180.617C209.51 182.037 155.07 184.857 155.07 184.857C155.07 184.857 147.29 194.747 155.77 202.527C155.77 202.527 208.32 204.647 218.22 203.937C228.12 203.227 261.1 184.147 261.1 184.147C261.1 184.147 274.55 164.347 258.97 148.797Z" fill="#1976d2"/>
<path d="M270.3 179.987C270.3 179.987 226.23 203.117 221.09 203.857C215.95 204.597 196.48 203.857 196.48 203.857" stroke="#1B2048" stroke-width="0.83" stroke-miterlimit="10"/>
<path d="M210.81 185.857C210.81 185.857 209.34 193.937 214.48 198.717" stroke="#1B2048" stroke-width="0.83" stroke-miterlimit="10"/>
<path d="M207.5 183.657C207.5 183.657 203.1 190.657 205.3 195.777" stroke="#1B2048" stroke-width="0.83" stroke-miterlimit="10"/>
<path d="M270.67 170.797C270.67 170.797 274.34 157.937 261.49 149.497" stroke="#1B2048" stroke-width="0.83" stroke-miterlimit="10"/>
<path d="M318.05 158.687C318.05 158.687 320.62 181.457 320.62 192.107" stroke="#1B2048" stroke-width="0.83" stroke-miterlimit="10"/>
<path d="M304.82 143.627C304.82 143.627 287.93 142.157 273.97 143.627" stroke="#1B2048" stroke-width="0.83" stroke-miterlimit="10"/>
<path d="M194.28 291.627C194.28 291.627 186.2 289.057 183.28 276.577" stroke="#1B2048" stroke-width="0.83" stroke-miterlimit="10"/>
<path d="M188.77 292.727C188.77 292.727 184 291.267 181.77 284.647" stroke="#1B2048" stroke-width="0.83" stroke-miterlimit="10"/>
<path d="M218.15 307.057L230.27 367.647" stroke="#1B2048" stroke-width="0.83" stroke-miterlimit="10"/>
<path d="M271.34 93.2974C270.993 95.2822 271.203 97.3241 271.947 99.1969C272.69 101.07 273.937 102.7 275.55 103.907L275.19 110.967C275.19 110.967 273.07 117.337 274.48 118.037C275.89 118.737 276.25 117.687 276.25 117.687C276.25 117.687 280.85 110.267 282.25 109.907C283.65 109.547 279.07 119.807 279.07 119.807C279.07 119.807 283.66 126.877 292.15 127.937L290.38 125.467C293.406 127.116 296.844 127.852 300.28 127.587C306.28 127.227 310.88 118.037 310.88 118.037C310.88 118.037 309.82 120.517 310.88 121.577C311.94 122.637 317.95 113.447 318.3 101.777L320.07 105.317C319.654 99.4156 318.471 93.5932 316.55 87.9974C313.37 78.8074 299.23 72.0874 291.45 72.0874C283.67 72.0874 275.9 72.7974 273.78 72.0874C271.66 71.3774 272.72 77.3974 272.72 77.3974C272.097 75.9144 271.621 74.3736 271.3 72.7974C269.89 71.7374 267.77 80.2174 268.48 83.3974L269.18 86.5874C269.18 86.5874 266.71 83.3974 266.36 81.6374C264.98 81.2774 265.34 89.0574 271.34 93.2974Z" fill="#333333"/>
<path d="M276.47 110.907C276.47 110.907 277.9 106.177 281.82 108.667C285.74 111.157 280.17 122.297 276.89 121.337C273.61 120.377 275.61 112.707 276.47 110.907Z" fill="#FF634D"/>
<path d="M133.02 192.857L123.01 190.857L121 186.497" stroke="#E66657" stroke-width="1.28" stroke-miterlimit="10"/>
<path d="M123.36 191.087C123.36 191.087 128.43 195.327 129.13 195.687C129.83 196.047 133.02 196.867 133.02 196.867" stroke="#E66657" stroke-width="1.28" stroke-miterlimit="10"/>
<path d="M278.06 122.867C278.06 122.867 279.47 127.867 270.99 130.647" stroke="#E66657" stroke-width="1.28" stroke-miterlimit="10"/>
<path d="M84.8398 160.107H160.24L150.81 111.087H75.4097L84.8398 160.107Z" fill="#2E60BE"/>
<path d="M184.47 128.057C184.533 128.387 184.523 128.727 184.44 129.053C184.356 129.378 184.202 129.681 183.988 129.94C183.774 130.199 183.505 130.407 183.202 130.55C182.898 130.693 182.566 130.768 182.23 130.767H100.14C99.6101 130.766 99.0973 130.58 98.6889 130.243C98.2805 129.906 98.0016 129.437 97.8998 128.917L96.6998 122.637H183.43L184.47 128.057Z" fill="#26C6F8"/>
<path d="M90.1797 74.3875H172.27C172.799 74.3876 173.311 74.5726 173.718 74.9104C174.125 75.2482 174.402 75.7176 174.5 76.2375L183.43 122.637H96.6997L87.9397 77.0975C87.8763 76.7676 87.8867 76.4277 87.9699 76.1023C88.0532 75.7768 88.2074 75.4738 88.4214 75.2149C88.6354 74.9559 88.904 74.7475 89.208 74.6045C89.5119 74.4614 89.8438 74.3873 90.1797 74.3875V74.3875Z" fill="#CAE5FF"/>
<path d="M146.3 130.797C145.22 127.797 144.55 125.687 144.55 125.687C144.55 125.687 142.08 112.747 153.11 116.067C155.829 118.428 157.785 121.543 158.73 125.017C159.29 126.897 159.96 128.917 160.61 130.797H146.3Z" fill="#387AB6"/>
<path d="M123.46 130.797C123.66 124.417 124.06 119.297 124.75 117.927C126.75 114.207 135.04 110.837 135.04 110.837L146.35 112.517C146.35 112.517 151.08 113.867 152.6 117.247C153.11 118.387 154.34 123.907 155.66 130.797H123.46Z" fill="#DCE4FF"/>
<path d="M144.42 103.177C144.844 106.162 145.578 109.095 146.61 111.927C146.61 111.927 147.02 114.797 141 113.567C134.98 112.337 135.81 109.327 135.81 109.327V97.4374L144.42 103.177Z" fill="#FF8D68"/>
<path d="M152.87 90.6674C152.87 90.6674 152.8 101.977 149.55 107.427C147.34 109.717 139.78 106.117 136.6 101.257C133.42 96.3974 133.49 89.0774 136 85.0074C138.51 80.9374 146.8 82.1574 149.23 83.5674C151.66 84.9774 153.01 88.8574 152.87 90.6674Z" fill="#FF8D68"/>
<path d="M137.55 97.0574C137.55 97.0574 135.42 93.7674 133.99 95.7274C132.56 97.6874 137.51 101.727 137.89 100.167C138.082 99.1197 137.964 98.0388 137.55 97.0574Z" fill="#FBA894"/>
<path d="M152.87 90.6674C152.87 90.6674 156.87 87.1774 152.05 82.6674C149.32 80.6174 147.95 82.1174 145.05 81.5674C142.15 81.0174 136.98 81.5674 135.05 84.5674C133.12 87.5674 133.82 94.5674 134.36 95.2374C134.9 95.9074 136.55 96.3274 136.55 97.5574C136.55 98.7874 136.82 99.7474 137.23 99.7474C137.64 99.7474 137.64 97.6974 137.64 96.1874C137.678 94.0117 138.014 91.8515 138.64 89.7674C139.32 87.7674 142.47 87.8474 143.7 88.1274C144.93 88.4074 145.76 91.5574 152.87 90.6674Z" fill="#713336"/>
<path opacity="0.53" d="M137.97 94.0674C137.896 94.0284 137.819 93.995 137.74 93.9674V93.9674L137.97 94.0674Z" fill="#505E83"/>
<path d="M137.74 93.9675C137.74 94.1875 137 100.737 139.6 102.557C142.2 104.377 142.41 102.057 144.55 101.717C146.69 101.377 148.43 101.497 149.39 102.897C150.35 104.297 150.07 104.897 150.85 104.527C151.02 104.977 149.85 107.737 148.04 108.467C146.23 109.197 141.96 106.947 140.04 105.267C138.12 103.587 136.95 102.507 136.61 101.047C136.27 99.5875 136.44 96.7675 136.05 94.7975C135.83 93.3075 137.19 93.7375 137.74 93.9675ZM147.55 106.047C150.14 105.487 149.8 103.457 147.16 102.617C147.16 102.617 144.34 101.327 143.39 103.297C143.03 104.587 145 106.617 147.55 106.047Z" fill="#713336"/>
<path d="M135.8 108.467C138.023 111.041 141.124 112.695 144.5 113.107C145.59 112.687 146.18 110.667 146.18 110.667L147.03 111.927C147.25 113.101 147.25 114.304 147.03 115.477C146.52 115.557 144.66 114.297 144.66 114.297C144.66 114.297 143.4 116.067 142.47 116.407C141.54 116.747 135.63 112.777 135.04 110.837C135.084 109.995 135.346 109.178 135.8 108.467V108.467Z" fill="white"/>
<path d="M122.55 130.797C122.84 124.507 123.22 119.707 123.55 118.707C124.9 115.557 129.96 111.507 134.97 110.837C134.97 110.837 136.85 119.517 138.7 130.837L122.55 130.797Z" fill="#387AB6"/>
<path d="M151.73 130.797C149.08 119.547 147.03 112.857 147.03 112.857C149.328 113.305 151.443 114.422 153.11 116.067C154.11 118.067 155.68 123.877 157.3 130.797H151.73Z" fill="#387AB6"/>
<path d="M123.61 130.797C123.42 124.797 123.76 119.207 124.75 117.927C127.95 115.217 131.33 115.387 133.02 118.427C133.94 120.087 135.16 125.887 136.09 130.797H123.61Z" fill="#387AB6"/>
<path d="M144.66 114.297C145.66 118.197 146.42 122.137 147.13 126.087" stroke="#87B8EB" stroke-width="0.36" stroke-miterlimit="10"/>
<path d="M82.7194 83.3158C74.7632 76.2891 72.756 65.5625 78.2362 59.3573C83.7165 53.1521 94.6089 53.818 102.565 60.8448C110.521 67.8715 112.529 78.5981 107.048 84.8033C101.568 91.0085 90.6756 90.3425 82.7194 83.3158Z" fill="#6787FF"/>
<path d="M72.2098 90.3374C72.5657 91.6225 73.3178 92.7627 74.3591 93.5957C75.4004 94.4288 76.6778 94.9122 78.0097 94.9774C78.5816 95.0049 79.1515 94.892 79.6698 94.6487C80.1881 94.4053 80.6389 94.0389 80.9831 93.5813C81.3273 93.1238 81.5542 92.589 81.6443 92.0236C81.7343 91.4581 81.6847 90.8793 81.4998 90.3374C81.1437 89.0497 80.3904 87.907 79.3473 87.0722C78.3042 86.2373 77.0243 85.7527 75.6898 85.6874C75.1175 85.6611 74.5475 85.7752 74.0295 86.0197C73.5115 86.2643 73.0613 86.632 72.718 87.0906C72.3748 87.5493 72.149 88.0849 72.0604 88.6509C71.9718 89.2168 72.0231 89.7959 72.2098 90.3374V90.3374Z" fill="#6787FF"/>
<path d="M86.7188 80.7274C86.465 80.7356 86.2128 80.6848 85.982 80.5789C85.7512 80.4731 85.5481 80.3151 85.3888 80.1174L81.0088 74.2674C80.7374 73.7739 80.6618 73.1963 80.797 72.6496C80.9323 72.103 81.2686 71.6273 81.7388 71.3174C81.9321 71.123 82.1619 70.9687 82.4151 70.8634C82.6682 70.7581 82.9397 70.7039 83.2138 70.7039C83.488 70.7039 83.7594 70.7581 84.0126 70.8634C84.2657 70.9687 84.4955 71.123 84.6888 71.3174L87.9688 75.6874L99.6888 66.3174C99.8814 66.1127 100.114 65.9497 100.372 65.8382C100.63 65.7268 100.908 65.6693 101.189 65.6693C101.47 65.6693 101.748 65.7268 102.006 65.8382C102.264 65.9497 102.496 66.1127 102.689 66.3174C102.977 66.8162 103.061 67.4071 102.923 67.9663C102.785 68.5255 102.436 69.0097 101.949 69.3174L88.3888 80.1674C87.9119 80.5383 87.3229 80.7358 86.7188 80.7274V80.7274Z" fill="white"/>
<path d="M217.33 43.7974H222.89C223.201 43.813 223.51 43.752 223.792 43.6199C224.073 43.4878 224.318 43.2886 224.505 43.0398C224.691 42.791 224.814 42.5002 224.862 42.1929C224.91 41.8856 224.882 41.5713 224.78 41.2774L223.4 35.7274C223.205 35.0284 222.795 34.4087 222.228 33.9562C221.66 33.5038 220.965 33.2418 220.24 33.2074H214.69C214.379 33.1919 214.07 33.2529 213.788 33.385C213.507 33.5171 213.262 33.7163 213.075 33.9651C212.889 34.2139 212.766 34.5047 212.718 34.812C212.67 35.1192 212.698 35.4336 212.8 35.7274L214.18 41.2774C214.374 41.9749 214.783 42.5935 215.348 43.0458C215.914 43.4981 216.607 43.761 217.33 43.7974Z" fill="#BFD9FF"/>
<path d="M221.39 60.0875H226.94C227.252 60.1029 227.563 60.0416 227.846 59.909C228.128 59.7763 228.374 59.5764 228.562 59.3268C228.749 59.0771 228.873 58.7852 228.921 58.4768C228.97 58.1683 228.942 57.8527 228.84 57.5575L227.45 52.0075C227.257 51.3093 226.849 50.6898 226.283 50.2373C225.718 49.7848 225.024 49.5224 224.3 49.4875H218.75C218.439 49.472 218.13 49.5329 217.848 49.665C217.567 49.7971 217.322 49.9963 217.135 50.2451C216.949 50.4939 216.826 50.7847 216.778 51.092C216.73 51.3993 216.758 51.7136 216.86 52.0075L218.24 57.5575C218.433 58.2568 218.841 58.8776 219.406 59.3318C219.972 59.786 220.666 60.0504 221.39 60.0875Z" stroke="#A9A7E7" stroke-width="0.75" stroke-miterlimit="10"/>
<path d="M203.73 60.0874H209.28C209.591 60.1011 209.901 60.0385 210.182 59.9052C210.463 59.7719 210.708 59.5718 210.894 59.3223C211.08 59.0729 211.203 58.7817 211.251 58.4741C211.299 58.1665 211.271 57.8518 211.17 57.5574L209.79 52.0074C209.596 51.3099 209.187 50.6913 208.622 50.239C208.056 49.7868 207.363 49.5238 206.64 49.4874H201.09C200.779 49.4726 200.47 49.5339 200.188 49.666C199.906 49.7981 199.661 49.997 199.474 50.2454C199.287 50.4937 199.163 50.7841 199.113 51.0911C199.064 51.3982 199.09 51.7127 199.19 52.0074L200.55 57.5574C200.744 58.2614 201.156 58.8856 201.728 59.3403C202.299 59.7949 203 60.0565 203.73 60.0874V60.0874Z" fill="#26C6DA"/>
<path d="M186.07 60.0874H191.62C191.931 60.1011 192.24 60.0386 192.522 59.9052C192.803 59.7719 193.048 59.5718 193.234 59.3223C193.42 59.0729 193.543 58.7817 193.591 58.4741C193.639 58.1665 193.611 57.8518 193.51 57.5574L192.13 52.0074C191.935 51.31 191.527 50.6913 190.961 50.239C190.396 49.7868 189.703 49.5238 188.98 49.4874H183.43C183.118 49.4702 182.807 49.5299 182.524 49.6612C182.242 49.7926 181.995 49.9916 181.808 50.2406C181.62 50.4897 181.496 50.7812 181.448 51.0893C181.399 51.3974 181.427 51.7127 181.53 52.0074L182.92 57.5574C183.109 58.2582 183.517 58.8808 184.083 59.3354C184.649 59.7901 185.344 60.0534 186.07 60.0874V60.0874Z" fill="white"/>
<path d="M225.55 76.7374H231.11C231.42 76.7529 231.73 76.6919 232.012 76.5598C232.293 76.4277 232.538 76.2285 232.724 75.9797C232.911 75.7309 233.034 75.4401 233.082 75.1328C233.13 74.8256 233.102 74.5112 233 74.2174L231.62 68.6673C231.427 67.9665 231.017 67.3445 230.45 66.8902C229.882 66.4358 229.186 66.1724 228.46 66.1373H222.91C222.599 66.1236 222.289 66.1862 222.008 66.3195C221.726 66.4529 221.482 66.653 221.295 66.9024C221.109 67.1518 220.987 67.443 220.938 67.7507C220.89 68.0583 220.918 68.373 221.02 68.6673L222.4 74.2174C222.594 74.9148 223.003 75.5335 223.568 75.9857C224.133 76.438 224.827 76.7009 225.55 76.7374Z" fill="#26C6DA"/>
<path d="M229.98 94.5274H235.55C235.861 94.5429 236.17 94.4819 236.452 94.3498C236.733 94.2177 236.978 94.0185 237.165 93.7697C237.352 93.5209 237.474 93.2301 237.522 92.9229C237.57 92.6156 237.542 92.3012 237.44 92.0074L236.06 86.4574C235.868 85.7581 235.46 85.1372 234.894 84.683C234.329 84.2289 233.634 83.9644 232.91 83.9274H227.36C227.048 83.912 226.737 83.9733 226.455 84.1059C226.172 84.2385 225.926 84.4384 225.739 84.6881C225.551 84.9378 225.428 85.2296 225.379 85.5381C225.331 85.8465 225.358 86.1622 225.46 86.4574L226.85 92.0074C227.042 92.7025 227.447 93.3197 228.009 93.7719C228.571 94.2241 229.26 94.4884 229.98 94.5274Z" fill="white"/>
<path d="M207.88 76.7374H213.43C213.741 76.7521 214.05 76.6908 214.332 76.5587C214.613 76.4266 214.858 76.2277 215.046 75.9794C215.233 75.731 215.357 75.4407 215.406 75.1336C215.456 74.8265 215.43 74.512 215.33 74.2174L213.94 68.6673C213.749 67.9673 213.341 67.3456 212.775 66.8912C212.21 66.4368 211.515 66.1729 210.79 66.1373H205.24C204.929 66.1236 204.619 66.1862 204.338 66.3195C204.056 66.4529 203.812 66.653 203.626 66.9024C203.439 67.1518 203.317 67.443 203.269 67.7507C203.221 68.0583 203.249 68.373 203.35 68.6673L204.73 74.2174C204.924 74.9148 205.333 75.5335 205.898 75.9857C206.464 76.438 207.157 76.7009 207.88 76.7374Z" fill="#EDF4FF"/>
<path d="M215.62 107.797H221.17C221.481 107.811 221.791 107.749 222.072 107.615C222.353 107.482 222.598 107.282 222.784 107.032C222.971 106.783 223.093 106.492 223.141 106.184C223.189 105.877 223.161 105.562 223.06 105.267L221.68 99.7175C221.486 99.02 221.077 98.4014 220.512 97.9491C219.946 97.4968 219.253 97.2339 218.53 97.1975H212.98C212.669 97.1827 212.36 97.244 212.078 97.3761C211.796 97.5082 211.551 97.7071 211.364 97.9555C211.177 98.2038 211.053 98.4942 211.004 98.8012C210.954 99.1083 210.98 99.4228 211.08 99.7175L212.47 105.267C212.662 105.967 213.07 106.588 213.636 107.042C214.201 107.496 214.896 107.76 215.62 107.797V107.797Z" stroke="#A9A7E7" stroke-width="0.75" stroke-miterlimit="10"/>
<path d="M48.63 86.2074H50.63C50.7445 86.2158 50.8593 86.1954 50.9639 86.1482C51.0685 86.101 51.1597 86.0284 51.2292 85.9371C51.2988 85.8457 51.3444 85.7385 51.362 85.625C51.3796 85.5116 51.3686 85.3956 51.33 85.2874L50.82 83.2874C50.7489 83.0302 50.5985 82.8019 50.3903 82.6349C50.1821 82.468 49.9265 82.3709 49.66 82.3574H47.66C47.5451 82.351 47.4304 82.373 47.326 82.4214C47.2216 82.4699 47.1307 82.5434 47.0615 82.6354C46.9923 82.7273 46.9468 82.8349 46.9291 82.9487C46.9114 83.0624 46.922 83.1788 46.96 83.2874L47.47 85.2874C47.5415 85.5436 47.6923 85.7705 47.9006 85.9358C48.109 86.101 48.3643 86.1961 48.63 86.2074Z" fill="#CAE5FF"/>
<path d="M50.1201 92.1874H52.1201C52.2351 92.1939 52.3498 92.1719 52.4542 92.1234C52.5586 92.0749 52.6494 92.0014 52.7186 91.9095C52.7879 91.8175 52.8334 91.7099 52.8511 91.5961C52.8688 91.4824 52.8581 91.3661 52.8201 91.2574L52.3101 89.2574C52.2386 89.0013 52.0879 88.7743 51.8795 88.6091C51.6711 88.4438 51.4158 88.3487 51.1501 88.3374H49.1501C49.0356 88.3291 48.9209 88.3494 48.8162 88.3966C48.7116 88.4438 48.6204 88.5164 48.5509 88.6078C48.4814 88.6991 48.4358 88.8064 48.4182 88.9198C48.4006 89.0332 48.4115 89.1493 48.4501 89.2574L48.9601 91.2574C49.0312 91.5146 49.1816 91.7429 49.3898 91.9099C49.598 92.0768 49.8536 92.1739 50.1201 92.1874V92.1874Z" fill="#CAE5FF"/>
<path d="M43.6298 92.1875H45.6298C45.7439 92.1922 45.8574 92.169 45.9605 92.1198C46.0635 92.0706 46.153 91.9969 46.221 91.9052C46.2891 91.8134 46.3337 91.7065 46.3509 91.5936C46.3681 91.4807 46.3574 91.3653 46.3198 91.2575L45.8198 89.2575C45.7469 89.0021 45.5958 88.776 45.3877 88.6109C45.1796 88.4459 44.9251 88.3503 44.6598 88.3375H42.6598C42.5461 88.3309 42.4326 88.3525 42.3293 88.4005C42.226 88.4484 42.1363 88.5212 42.0679 88.6123C41.9996 88.7034 41.9549 88.81 41.9378 88.9226C41.9207 89.0351 41.9317 89.1502 41.9698 89.2575L42.4698 91.2575C42.5423 91.514 42.693 91.7414 42.9009 91.9082C43.1089 92.0749 43.3637 92.1725 43.6298 92.1875Z" fill="#CAE5FF"/>
<path d="M37.1498 92.1875H39.1498C39.2639 92.1922 39.3775 92.169 39.4805 92.1198C39.5836 92.0706 39.673 91.9969 39.7411 91.9052C39.8091 91.8135 39.8537 91.7065 39.8709 91.5936C39.8881 91.4807 39.8775 91.3653 39.8398 91.2575L39.3298 89.2575C39.2602 89.0021 39.1114 88.7755 38.9047 88.6101C38.698 88.4448 38.4442 88.3493 38.1798 88.3375H36.1798C36.0661 88.3316 35.9526 88.3537 35.8493 88.4016C35.746 88.4496 35.6559 88.522 35.587 88.6127C35.518 88.7033 35.4722 88.8095 35.4535 88.9218C35.4348 89.0342 35.4439 89.1494 35.4798 89.2575L35.9898 91.2575C36.0623 91.514 36.213 91.7414 36.421 91.9082C36.6289 92.0749 36.8837 92.1725 37.1498 92.1875V92.1875Z" fill="#CAE5FF"/>
<path d="M51.6401 98.2975H53.6401C53.7542 98.3022 53.8677 98.279 53.9708 98.2298C54.0738 98.1805 54.1633 98.1069 54.2313 98.0152C54.2994 97.9234 54.3439 97.8165 54.3611 97.7036C54.3784 97.5907 54.3677 97.4753 54.3301 97.3675L53.8201 95.3675C53.7537 95.1095 53.606 94.8797 53.3989 94.7122C53.1918 94.5447 52.9362 94.4484 52.6701 94.4375H50.6701C50.5559 94.4334 50.4424 94.457 50.3393 94.5062C50.2362 94.5554 50.1464 94.6287 50.0777 94.72C50.009 94.8113 49.9633 94.9179 49.9446 95.0306C49.9259 95.1433 49.9346 95.2589 49.9701 95.3675L50.4801 97.3675C50.5512 97.6247 50.7015 97.853 50.9098 98.0199C51.118 98.1869 51.3735 98.284 51.6401 98.2975Z" fill="#CAE5FF"/>
<path d="M53.27 104.797H55.27C55.3841 104.802 55.4976 104.779 55.6006 104.73C55.7037 104.681 55.7932 104.607 55.8612 104.515C55.9292 104.423 55.9738 104.316 55.991 104.204C56.0082 104.091 55.9976 103.975 55.96 103.867L55.4499 101.867C55.3836 101.609 55.2359 101.38 55.0288 101.212C54.8217 101.045 54.5661 100.948 54.3 100.937H52.3C52.1858 100.933 52.0723 100.957 51.9692 101.006C51.866 101.055 51.7763 101.129 51.7076 101.22C51.6389 101.311 51.5932 101.418 51.5745 101.531C51.5557 101.643 51.5645 101.759 51.5999 101.867L52.11 103.867C52.1811 104.125 52.3314 104.353 52.5396 104.52C52.7479 104.687 53.0034 104.784 53.27 104.797V104.797Z" fill="#CAE5FF"/>
<path d="M45.1597 98.2974H47.1597C47.2746 98.3038 47.3893 98.2819 47.4937 98.2334C47.5981 98.1849 47.689 98.1114 47.7582 98.0194C47.8274 97.9275 47.8729 97.8199 47.8906 97.7061C47.9083 97.5924 47.8977 97.476 47.8597 97.3674L47.3497 95.3674C47.2799 95.1094 47.13 94.8802 46.9215 94.713C46.713 94.5459 46.4567 94.4493 46.1897 94.4374H44.1897C44.0748 94.4309 43.96 94.4529 43.8556 94.5014C43.7512 94.5499 43.6604 94.6234 43.5912 94.7153C43.5219 94.8073 43.4765 94.9149 43.4588 95.0286C43.4411 95.1424 43.4517 95.2587 43.4897 95.3674L43.9997 97.3674C44.0694 97.6254 44.2194 97.8545 44.4279 98.0217C44.6364 98.1889 44.8927 98.2854 45.1597 98.2974V98.2974Z" fill="#CAE5FF"/>
<path d="M48.0001 109.687H50.0001C50.1146 109.696 50.2294 109.675 50.334 109.628C50.4386 109.581 50.5298 109.508 50.5994 109.417C50.6689 109.326 50.7145 109.218 50.7321 109.105C50.7497 108.992 50.7387 108.875 50.7001 108.767L50.1901 106.767C50.119 106.51 49.9687 106.282 49.7605 106.115C49.5522 105.948 49.2967 105.851 49.0301 105.837H47.0301C46.916 105.833 46.8025 105.857 46.6993 105.906C46.5962 105.955 46.5065 106.029 46.4378 106.12C46.3691 106.211 46.3234 106.318 46.3047 106.43C46.2859 106.543 46.2947 106.659 46.3301 106.767L46.8401 108.767C46.913 109.023 47.0641 109.249 47.2722 109.414C47.4803 109.579 47.7349 109.675 48.0001 109.687V109.687Z" fill="#CAE5FF"/>
<path opacity="0.9" d="M49.2797 163.417H116.28C116.44 163.412 116.597 163.371 116.74 163.296C116.882 163.222 117.006 163.117 117.102 162.988C117.198 162.859 117.264 162.711 117.295 162.553C117.325 162.395 117.32 162.233 117.28 162.077L111.02 138.077C110.963 137.852 110.835 137.651 110.655 137.505C110.475 137.359 110.252 137.276 110.02 137.267H43.0197C42.8587 137.274 42.7014 137.317 42.5591 137.392C42.4168 137.468 42.2932 137.574 42.1973 137.704C42.1014 137.833 42.0357 137.982 42.005 138.14C41.9742 138.299 41.9793 138.462 42.0197 138.617L48.2797 162.617C48.3378 162.841 48.4666 163.039 48.6468 163.184C48.827 163.328 49.049 163.41 49.2797 163.417V163.417Z" fill="#BFD9FF"/>
<path d="M107.09 142.377H83.7798" stroke="#A9C2FF" stroke-width="1.08" stroke-linecap="round" stroke-linejoin="round"/>
<path d="M108.88 153.137H85.5699" stroke="#A9C2FF" stroke-width="1.08" stroke-linecap="round" stroke-linejoin="round"/>
<path d="M99.0801 149.077H75.7701" stroke="#A9C2FF" stroke-width="1.08" stroke-linecap="round" stroke-linejoin="round"/>
<path d="M107.69 145.967H100.69" stroke="#A9C2FF" stroke-width="1.08" stroke-linecap="round" stroke-linejoin="round"/>
<path d="M108.64 149.077H101.65" stroke="#A9C2FF" stroke-width="1.08" stroke-linecap="round" stroke-linejoin="round"/>
<path d="M80.0698 142.377H71.7598" stroke="#A9C2FF" stroke-width="1.08" stroke-linecap="round" stroke-linejoin="round"/>
<path d="M75.9999 158.187H88.4099C88.424 158.186 88.4377 158.182 88.4502 158.175C88.4626 158.169 88.4735 158.159 88.482 158.148C88.4905 158.136 88.4965 158.123 88.4995 158.11C88.5026 158.096 88.5028 158.081 88.4999 158.067L87.9399 155.937C87.9353 155.917 87.9238 155.899 87.9074 155.886C87.891 155.874 87.8706 155.867 87.8499 155.867H75.4399C75.4251 155.867 75.4102 155.869 75.3968 155.876C75.3833 155.882 75.3716 155.891 75.3627 155.903C75.3538 155.915 75.3479 155.929 75.3457 155.944C75.3435 155.958 75.3449 155.973 75.3499 155.987L75.9099 158.117C75.9145 158.138 75.9259 158.156 75.9424 158.169C75.9588 158.181 75.9791 158.188 75.9999 158.187V158.187Z" stroke="#84AEE5" stroke-width="0.36" stroke-miterlimit="10"/>
<path d="M91.4201 158.187H103.83C103.845 158.188 103.86 158.185 103.873 158.179C103.887 158.173 103.898 158.163 103.907 158.152C103.916 158.14 103.922 158.126 103.924 158.111C103.927 158.096 103.925 158.081 103.92 158.067L103.36 155.937C103.359 155.927 103.356 155.917 103.35 155.907C103.345 155.898 103.338 155.89 103.33 155.884C103.321 155.877 103.312 155.872 103.302 155.869C103.291 155.867 103.281 155.866 103.27 155.867H90.8601C90.8453 155.867 90.8305 155.869 90.817 155.876C90.8035 155.882 90.7918 155.891 90.7829 155.903C90.774 155.915 90.7681 155.929 90.7659 155.944C90.7637 155.958 90.7651 155.973 90.7701 155.987L91.3301 158.117C91.3362 158.137 91.3481 158.154 91.3642 158.166C91.3802 158.179 91.3997 158.186 91.4201 158.187V158.187Z" stroke="#84AEE5" stroke-width="0.36" stroke-miterlimit="10"/>
<path d="M54.19 155.097C54.83 154.247 57.41 153.627 58.12 152.787C58.4435 152.203 58.543 151.52 58.4 150.867C58.181 150.737 57.9822 150.575 57.81 150.387C57.5479 149.994 57.3139 149.583 57.11 149.157C57.0718 149.198 57.0252 149.23 56.9734 149.251C56.9215 149.272 56.8657 149.281 56.81 149.277C56.47 149.277 55.18 147.517 55.52 147.107C55.71 146.877 56.01 147.107 56.24 147.297C55.9 146.517 55.6599 145.917 55.6599 145.917C55.6599 145.817 55.6 145.717 55.58 145.617C55.4287 145.184 55.3862 144.721 55.456 144.268C55.5258 143.814 55.7059 143.385 55.9804 143.018C56.255 142.651 56.6156 142.356 57.0305 142.161C57.4454 141.965 57.9019 141.875 58.36 141.897C59.4279 141.949 60.4523 142.337 61.2872 143.005C62.1221 143.673 62.725 144.587 63.0099 145.617L63.0699 145.917C63.0699 145.917 63.13 146.517 63.18 147.297C63.3 147.077 63.51 146.877 63.81 147.107C64.35 147.517 63.9299 149.267 63.5999 149.277C63.4704 149.276 63.3445 149.234 63.24 149.157C63.244 149.569 63.2173 149.98 63.1599 150.387C63.0538 150.62 62.8882 150.82 62.68 150.967C62.9145 151.668 63.3282 152.296 63.8799 152.787C65.0099 153.627 67.88 154.247 68.96 155.097C69.853 156.089 70.5336 157.253 70.96 158.517H53.96C53.88 158.077 53.62 155.857 54.19 155.097Z" fill="#387AB6"/>
<path d="M140.12 154.847H195.12C199.94 154.847 202.88 150.937 201.68 146.107C200.47 141.287 195.59 137.377 190.76 137.377H135.76C130.94 137.377 128 141.287 129.2 146.107C130.41 150.937 135.3 154.847 140.12 154.847Z" fill="white"/>
<path d="M189.27 148.397L191.62 149.487C191.85 149.597 192.03 149.427 191.94 149.207L190.94 146.887C190.92 146.851 190.909 146.809 190.909 146.767C190.909 146.725 190.92 146.684 190.94 146.647L192.22 145.007C192.34 144.847 192.22 144.587 191.96 144.547L189.54 144.207C189.494 144.203 189.449 144.188 189.409 144.164C189.369 144.139 189.335 144.107 189.31 144.067L187.74 141.957C187.59 141.757 187.31 141.757 187.26 141.957L186.74 144.067C186.732 144.105 186.712 144.138 186.683 144.164C186.654 144.189 186.618 144.204 186.58 144.207L184.33 144.547C184.12 144.547 184.1 144.847 184.33 145.007L186.42 146.647C186.458 146.676 186.491 146.712 186.515 146.753C186.539 146.794 186.554 146.84 186.56 146.887L186.74 149.207C186.74 149.427 187.03 149.597 187.2 149.487L189.01 148.397C189.05 148.375 189.094 148.364 189.14 148.364C189.185 148.364 189.23 148.375 189.27 148.397V148.397Z" fill="#FFA402"/>
<path d="M177.66 148.397L180.02 149.487C180.24 149.597 180.43 149.427 180.33 149.207L179.33 146.887C179.308 146.851 179.296 146.81 179.296 146.767C179.296 146.725 179.308 146.684 179.33 146.647L180.6 145.007C180.72 144.847 180.6 144.587 180.34 144.547L177.93 144.207C177.882 144.202 177.837 144.186 177.795 144.162C177.754 144.138 177.718 144.106 177.69 144.067L176.12 141.957C175.97 141.757 175.69 141.757 175.64 141.957L175.12 144.067C175.113 144.105 175.093 144.14 175.064 144.165C175.035 144.191 174.998 144.206 174.96 144.207L172.71 144.547C172.5 144.547 172.48 144.847 172.71 145.007L174.81 146.647C174.881 146.709 174.928 146.794 174.94 146.887L175.12 149.207C175.12 149.427 175.41 149.597 175.58 149.487L177.39 148.397C177.431 148.374 177.477 148.361 177.525 148.361C177.572 148.361 177.619 148.374 177.66 148.397V148.397Z" fill="#FFA402"/>
<path d="M166.05 148.397L168.41 149.487C168.63 149.597 168.82 149.427 168.73 149.207L167.73 146.887C167.708 146.851 167.696 146.81 167.696 146.767C167.696 146.725 167.708 146.684 167.73 146.647L169.01 145.007C169.13 144.847 169.01 144.587 168.74 144.547L166.33 144.207C166.283 144.202 166.237 144.186 166.196 144.162C166.154 144.138 166.118 144.106 166.09 144.067L164.52 141.957C164.37 141.757 164.09 141.757 164.04 141.957L163.53 144.067C163.521 144.106 163.5 144.141 163.469 144.166C163.438 144.192 163.4 144.206 163.36 144.207L161.12 144.547C160.91 144.547 160.88 144.847 161.12 145.007L163.22 146.647C163.259 146.675 163.29 146.711 163.313 146.752C163.336 146.794 163.348 146.84 163.35 146.887L163.53 149.207C163.53 149.427 163.82 149.597 163.99 149.487L165.8 148.397C165.839 148.377 165.882 148.367 165.925 148.367C165.969 148.367 166.012 148.377 166.05 148.397V148.397Z" fill="#FFA402"/>
<path d="M154.45 148.397L156.8 149.487C157.02 149.597 157.21 149.427 157.12 149.207L156.12 146.887C156.1 146.851 156.089 146.809 156.089 146.767C156.089 146.725 156.1 146.684 156.12 146.647L157.4 145.007C157.52 144.847 157.4 144.587 157.14 144.547L154.72 144.207C154.673 144.202 154.627 144.186 154.586 144.162C154.544 144.138 154.508 144.106 154.48 144.067L152.92 141.957C152.77 141.757 152.48 141.757 152.44 141.957L151.92 144.067C151.912 144.105 151.892 144.138 151.863 144.164C151.834 144.189 151.798 144.204 151.76 144.207L149.51 144.547C149.3 144.547 149.28 144.847 149.51 145.007L151.6 146.647C151.639 146.676 151.671 146.712 151.695 146.753C151.719 146.794 151.734 146.84 151.74 146.887L151.92 149.207C151.924 149.26 151.94 149.311 151.967 149.356C151.995 149.401 152.033 149.439 152.078 149.466C152.123 149.494 152.174 149.51 152.226 149.514C152.279 149.517 152.332 149.508 152.38 149.487L154.19 148.397C154.23 148.375 154.275 148.364 154.32 148.364C154.366 148.364 154.41 148.375 154.45 148.397V148.397Z" fill="#FFA402"/>
<path d="M142.84 148.397L145.2 149.487C145.42 149.597 145.61 149.427 145.51 149.207L144.51 146.887C144.49 146.851 144.479 146.809 144.479 146.767C144.479 146.725 144.49 146.684 144.51 146.647L145.79 145.007C145.91 144.847 145.79 144.587 145.53 144.547L143.11 144.207C143.064 144.202 143.019 144.186 142.98 144.162C142.94 144.138 142.906 144.106 142.88 144.067L141.31 141.957C141.16 141.757 140.88 141.757 140.83 141.957L140.31 144.067C140.301 144.105 140.281 144.138 140.253 144.164C140.224 144.189 140.188 144.204 140.15 144.207L137.9 144.547C137.69 144.547 137.67 144.847 137.9 145.007L139.99 146.647C140.028 146.676 140.06 146.712 140.085 146.753C140.109 146.794 140.124 146.84 140.13 146.887L140.31 149.207C140.31 149.427 140.6 149.597 140.77 149.487L142.55 148.397C142.593 148.37 142.643 148.355 142.695 148.355C142.746 148.355 142.796 148.37 142.84 148.397V148.397Z" fill="#C2D4D9"/>
<path d="M275.31 121.137C272.803 121.137 270.77 118.299 270.77 114.797C270.77 111.296 272.803 108.457 275.31 108.457C277.817 108.457 279.85 111.296 279.85 114.797C279.85 118.299 277.817 121.137 275.31 121.137Z" fill="#1976d2"/>
<path d="M274.62 115.347C274.62 115.347 261.95 129.347 261.95 131.597C261.95 133.847 266.08 133.527 266.08 133.527" stroke="#1976d2" stroke-width="1.1" stroke-miterlimit="10"/>
<path d="M265.11 133.527C265.108 133.856 265.203 134.178 265.385 134.452C265.566 134.727 265.824 134.941 266.128 135.068C266.431 135.195 266.765 135.23 267.087 135.167C267.41 135.104 267.707 134.947 267.94 134.715C268.173 134.483 268.332 134.187 268.397 133.865C268.462 133.543 268.43 133.208 268.304 132.905C268.179 132.601 267.966 132.341 267.693 132.158C267.42 131.975 267.098 131.877 266.77 131.877C266.552 131.876 266.337 131.918 266.135 132C265.934 132.083 265.751 132.204 265.597 132.357C265.442 132.511 265.32 132.693 265.236 132.894C265.153 133.095 265.11 133.31 265.11 133.527Z" fill="#1976d2"/>
<path d="M297.15 297.957C292.65 305.717 278.53 311.387 261.8 311.387C245.07 311.387 230.95 305.717 226.45 297.957H297.15Z" fill="#4F57A0"/>
<path d="M201.71 258.127L210.2 297.247H215.38L210.67 259.067L201.71 258.127Z" fill="#A9A7E7"/>
<path d="M262.1 252.007H193.7C191.7 252.007 189.783 252.802 188.369 254.216C186.954 255.63 186.16 257.548 186.16 259.547V261.437H262.1V252.007Z" fill="#7A82CC"/>
<path d="M324.25 293.007L342.62 204.607C342.791 203.786 342.776 202.936 342.578 202.12C342.379 201.305 342.001 200.544 341.472 199.893C340.942 199.241 340.274 198.716 339.516 198.356C338.758 197.995 337.929 197.808 337.09 197.807H276.27C274.645 197.808 273.07 198.368 271.81 199.393C270.55 200.419 269.681 201.847 269.35 203.437L250.73 293.007" fill="#767676"/>
<path d="M199.35 302.697H314.84C316.737 302.698 318.583 302.083 320.101 300.945C321.619 299.808 322.728 298.208 323.26 296.387L324.26 293.007H199.35V302.697Z" fill="#767676"/>
<path d="M256.15 307.147H265.34V389.147H256.15V307.147Z" fill="#5A5A5A"/>
<path d="M256.14 322.337L265.33 329.767V307.147H256.14V322.337Z" fill="#747474"/>
<path d="M256.43 376.927H259.79H260.63H263.99L298.44 390.607H221.98L256.43 376.927Z" fill="#5A5A5A"/>
<path d="M334.52 203.857H279.86" stroke="#4F57A0" stroke-miterlimit="10"/>
<path d="M274.19 210.188L264.86 257.188" stroke="#4F57A0" stroke-miterlimit="10"/>
<path d="M263.19 265.517L261.19 279.187" stroke="#4F57A0" stroke-miterlimit="10"/>
<path d="M8.35014 124.857H52.3501C52.8847 124.857 53.4128 124.74 53.8981 124.516C54.3834 124.292 54.8143 123.965 55.1612 123.558C55.5081 123.152 55.7627 122.674 55.9075 122.16C56.0523 121.645 56.084 121.105 56.0002 120.577L55.6601 118.467C55.522 117.599 55.0784 116.809 54.4092 116.239C53.74 115.669 52.8893 115.356 52.0101 115.357H8.01014C7.47601 115.357 6.94806 115.472 6.46278 115.695C5.97749 115.918 5.54644 116.244 5.19938 116.65C4.85232 117.056 4.59754 117.532 4.45264 118.046C4.30775 118.561 4.27619 119.1 4.36015 119.627L4.70014 121.737C4.83809 122.607 5.28134 123.398 5.95029 123.97C6.61925 124.542 7.47009 124.856 8.35014 124.857V124.857Z" fill="#CAE5FF"/>
<path d="M50.52 120.187H12.52" stroke="white" stroke-width="2" stroke-miterlimit="10"/>
<path d="M168.69 70.1874H180.69C186.39 70.1874 192 74.8074 193.21 80.5174C194.43 86.2274 190.79 90.8574 185.08 90.8574H182.47C181.706 92.7791 180.34 94.402 178.577 95.4834C176.815 96.5649 174.749 97.0469 172.69 96.8574C173.675 95.0077 174.213 92.9526 174.26 90.8574H173.08C167.37 90.8574 161.76 86.2274 160.55 80.5174C159.34 74.7974 162.98 70.1874 168.69 70.1874Z" fill="#FF634D"/>
<path d="M185.79 78.5175H174.46" stroke="white" stroke-width="2" stroke-miterlimit="10"/>
<path d="M186.75 83.0175H168.33" stroke="white" stroke-width="2" stroke-miterlimit="10"/>
</svg>
