<svg width="53" height="161" viewBox="0 0 53 161" fill="none" xmlns="http://www.w3.org/2000/svg">
<path d="M45.8254 161H6.92651L19.2045 94.4912H33.5516L45.8254 161Z" fill="url(#paint0_linear_28_501)"/>
<path d="M33.5724 107.257C31.0274 113.01 28.7555 116.361 26.3926 129.19C26.3906 129.219 26.3906 129.248 26.3926 129.277C26.3907 129.248 26.3907 129.219 26.3926 129.19C24.0297 116.361 21.7579 112.993 19.2129 107.257C16.6679 101.522 19.2129 94.4498 19.2129 94.4498L26.3637 93.8994H26.3926L33.5724 94.4415C33.5724 94.4415 36.1256 101.481 33.5724 107.257Z" fill="#FA3636"/>
<path d="M26.38 117.665C25.4056 114.618 24.2106 111.646 22.8046 108.772C22.3908 107.92 21.9977 107.042 21.5922 106.119C20.2472 103.086 20.8018 97.2638 21.2735 95.1409H31.1638C31.6355 97.2638 32.5128 103.074 31.1638 106.119C30.7499 107.042 30.3361 107.92 29.9471 108.772C28.5416 111.645 27.3494 114.617 26.38 117.665Z" fill="#F50000"/>
<path d="M26.3802 111.06C25.8629 109.637 25.3456 108.325 24.8366 107.038C24.4435 106.049 24.0421 105.027 23.649 103.968C22.9041 101.977 22.9331 98.0169 23.1979 95.1574H29.2976C29.6783 98.2528 29.8149 102.105 29.1196 103.968C28.7058 105.027 28.3168 106.037 27.9279 107.042C27.4106 108.329 26.8933 109.625 26.3802 111.06Z" fill="#FF7D6B"/>
<path d="M15.8319 77.3467C14.3468 77.3415 12.8832 77.701 11.5696 78.3937C9.12389 79.7344 6.86031 82.7926 8.60248 89.7488C9.93498 95.0747 10.2081 98.8114 10.1212 101.274C10.1177 101.559 10.0205 101.834 9.84482 102.059C9.6691 102.283 9.42452 102.443 9.14873 102.515C8.85404 102.603 8.53789 102.585 8.25517 102.464C7.97245 102.343 7.74101 102.127 7.60105 101.853C4.62983 96.2292 -0.762212 84.7416 0.0902526 76.7343C0.653045 71.4126 4.22843 66.1488 7.77071 62.143C10.0109 59.6059 12.4611 57.2623 15.0953 55.1371C14.6133 61.3391 14.6965 67.572 15.3436 73.7589L15.3932 74.1727C15.5091 75.2445 15.6622 76.3039 15.8319 77.3467Z" fill="#1976d2"/>
<path opacity="0.2" d="M15.8318 77.3467C14.3468 77.3415 12.8832 77.701 11.5695 78.3937C9.12384 79.7344 6.86026 82.7926 8.60243 89.7488C9.93493 95.0747 10.208 98.8114 10.1211 101.274C10.1176 101.559 10.0205 101.834 9.84477 102.059C9.66905 102.283 9.42447 102.443 9.14868 102.515C8.88839 101.812 8.79627 101.058 8.87969 100.314C9.36386 95.4637 4.67116 86.79 4.93187 80.9469C5.01315 79.2357 5.51946 77.5717 6.40506 76.1053C8.54096 72.5343 9.2127 68.2755 8.27966 64.2204L7.79135 62.1513C10.0246 59.6122 12.4678 57.2658 15.0952 55.1371C14.6133 61.3391 14.6964 67.572 15.3435 73.7589L15.3932 74.1727C15.3932 74.2265 15.3932 74.2762 15.3932 74.33C15.4139 74.4996 15.4346 74.6734 15.4594 74.8431C15.4842 75.0128 15.5132 75.2859 15.5463 75.5052V75.6004C15.5794 75.8156 15.6084 76.0142 15.6415 76.2418C15.7118 76.6018 15.7739 76.966 15.8318 77.3467Z" fill="gray"/>
<path d="M36.6594 77.3467C38.1445 77.3415 39.6081 77.701 40.9218 78.3937C43.3674 79.7344 45.631 82.7926 43.893 89.7488C42.5563 95.0747 42.2874 98.8115 42.3701 101.274C42.38 101.569 42.4872 101.852 42.675 102.08C42.8629 102.307 43.1208 102.467 43.4086 102.532C43.6963 102.598 43.9978 102.566 44.2658 102.443C44.5338 102.319 44.7534 102.11 44.8903 101.849C47.8656 96.2251 53.2535 84.7375 52.4011 76.7301C51.8383 71.4084 48.2629 66.1447 44.7206 62.1389C42.4835 59.6094 40.0375 57.2728 37.4084 55.1537C37.8925 61.3555 37.8094 67.5887 37.1602 73.7755C37.1602 73.912 37.1312 74.0486 37.1105 74.1893C36.9864 75.2445 36.8291 76.3039 36.6594 77.3467Z" fill="#1976d2"/>
<path opacity="0.2" d="M36.6594 77.3467C38.1445 77.3415 39.6081 77.701 40.9218 78.3937C43.3674 79.7344 45.631 82.7925 43.893 89.7488C42.5563 95.0747 42.2874 98.8114 42.3701 101.274C42.375 101.558 42.4726 101.833 42.6482 102.057C42.8237 102.282 43.0675 102.442 43.3426 102.515C43.6023 101.812 43.6958 101.059 43.6157 100.314C43.1274 95.4637 47.8201 86.79 47.5594 80.9469C47.4865 79.2372 46.9872 77.5728 46.1069 76.1052C43.972 72.5338 43.3017 68.2749 44.2364 64.2204L44.7206 62.1513C42.4835 59.6218 40.0375 57.2852 37.4084 55.1661C37.8925 61.368 37.8094 67.6011 37.1602 73.7879C37.1602 73.9244 37.1312 74.061 37.1105 74.2017C37.1105 74.2555 37.1105 74.3051 37.1105 74.3589C37.0898 74.5286 37.0691 74.7024 37.0443 74.8721C37.0195 75.0417 36.9905 75.3149 36.9574 75.5342V75.6294C36.9243 75.8445 36.8953 76.0432 36.8622 76.2708C36.7794 76.6018 36.7215 76.966 36.6594 77.3467Z" fill="gray"/>
<path d="M34.6192 91.6027C34.1515 93.9118 33.8701 95.2485 33.8701 95.2485C30.8565 96.3099 27.6518 96.7189 24.4682 96.4485C22.5655 96.2775 20.6908 95.8745 18.8858 95.2485C18.8858 95.2485 18.5837 93.8167 18.083 91.3545C15.7408 79.7675 9.08246 45.5572 9.39282 31.4626C9.4967 28.1328 10.118 24.8394 11.2343 21.7006C11.5736 20.7157 11.9502 19.7433 12.3558 18.8039C12.673 18.0673 13.0068 17.3404 13.3572 16.6231C16.8622 9.46402 21.8156 3.67471 24.4889 0.827639C24.7326 0.568996 25.0267 0.362914 25.3529 0.222056C25.6792 0.0811976 26.0309 0.00853729 26.3863 0.00853729C26.7416 0.00853729 27.0933 0.0811976 27.4196 0.222056C27.7458 0.362914 28.0399 0.568996 28.2836 0.827639C30.9941 3.72436 36.0344 9.60886 39.5436 16.8962C39.8664 17.5666 40.1754 18.248 40.4705 18.9405C40.8761 19.8977 41.2485 20.8633 41.5878 21.8372C42.6713 24.9329 43.2756 28.1761 43.3797 31.4543C43.6776 45.6607 36.9158 80.2848 34.6192 91.6027Z" fill="#393939"/>
<path d="M34.6192 91.6027C34.1516 93.9118 33.8702 95.2485 33.8702 95.2485C30.8565 96.3098 27.6518 96.7189 24.4682 96.4485C22.5655 96.2775 20.6908 95.8745 18.8858 95.2485C18.8858 95.2485 18.5837 93.8167 18.083 91.3544C18.9603 91.8345 21.8653 93.2125 26.3594 93.2125C29.1917 93.2247 31.9987 92.6777 34.6192 91.6027Z" fill="#1976d2"/>
<path d="M41.5796 21.8454C37.1683 23.0124 31.5859 24.1297 26.3677 24.1297C21.2487 24.1297 15.6912 22.9545 11.2261 21.7006C11.5654 20.7157 11.942 19.7433 12.3475 18.8039C16.5643 19.975 21.7164 21.0509 26.3677 21.0509C31.1059 21.0509 36.2993 20.0329 40.4623 18.9404C40.8679 19.8895 41.2403 20.8578 41.5796 21.8454Z" fill="#1976d2"/>
<path opacity="0.2" d="M24.4683 96.4485C22.5655 96.2775 20.6908 95.8745 18.8859 95.2485C18.8859 95.2485 9.01632 48.5533 9.36807 31.4626C9.47195 28.1328 10.0932 24.8394 11.2096 21.7006C11.5489 20.7157 11.9255 19.7433 12.331 18.8039C12.6483 18.0673 12.9821 17.3404 13.3324 16.6231C16.8375 9.46402 21.7909 3.6747 24.4641 0.827636C24.9203 0.337973 25.5467 0.0417751 26.2146 0C23.293 6.38107 16.2499 29.6376 24.4683 96.4485Z" fill="gray"/>
<path d="M39.5353 16.8796C37.3534 17.467 35.1325 17.8984 32.8894 18.1707C30.7079 18.4417 28.512 18.5799 26.3138 18.5846C20.4086 18.5846 16.2084 17.6659 13.353 16.6313C16.8581 9.4723 21.8115 3.68298 24.4889 0.835915C24.7329 0.578458 25.0267 0.37341 25.3526 0.233284C25.6785 0.0931572 26.0294 0.0208893 26.3842 0.0208893C26.7389 0.0208893 27.0899 0.0931572 27.4157 0.233284C27.7416 0.37341 28.0355 0.578458 28.2794 0.835915C32.2571 5.05793 35.6871 9.76423 38.4883 14.8437C38.8497 15.5002 39.1987 16.1789 39.5353 16.8796Z" fill="#1976d2"/>
<path d="M26.9967 103.93C26.9344 104.082 26.8283 104.212 26.692 104.303C26.5557 104.395 26.3953 104.444 26.2312 104.444C26.067 104.444 25.9066 104.395 25.7703 104.303C25.634 104.212 25.5279 104.082 25.4656 103.93C20.4253 90.9199 23.7482 69.538 25.4242 60.8685C25.4675 60.6876 25.5705 60.5266 25.7165 60.4114C25.8625 60.2962 26.0431 60.2336 26.2291 60.2336C26.4151 60.2336 26.5956 60.2962 26.7416 60.4114C26.8877 60.5266 26.9906 60.6876 27.034 60.8685C28.7141 69.538 32.0329 90.9199 26.9967 103.93Z" fill="#1976d2"/>
<path opacity="0.2" d="M26.2312 60.2022V104.456C26.0656 104.455 25.9042 104.404 25.7677 104.311C25.6312 104.217 25.526 104.084 25.4656 103.93C20.4253 90.9199 23.7482 69.538 25.4242 60.8685C25.4568 60.6793 25.5562 60.508 25.7042 60.3858C25.8523 60.2636 26.0392 60.1985 26.2312 60.2022Z" fill="gray"/>
<path d="M26.4215 50.3244C31.4221 50.3244 35.4759 46.2706 35.4759 41.2701C35.4759 36.2695 31.4221 32.2157 26.4215 32.2157C21.4209 32.2157 17.3672 36.2695 17.3672 41.2701C17.3672 46.2706 21.4209 50.3244 26.4215 50.3244Z" fill="#1976d2"/>
<path d="M33.5847 41.2701C33.5869 41.3018 33.5869 41.3336 33.5847 41.3652C33.559 43.2311 32.8067 45.0134 31.4876 46.3332C30.1685 47.6531 28.3867 48.4065 26.5208 48.4333H26.4257C25.768 48.435 25.1133 48.3444 24.4807 48.1643C23.1988 47.8024 22.0433 47.0901 21.1441 46.1075C20.245 45.1248 19.6377 43.9108 19.3908 42.6019C19.1438 41.2931 19.2668 39.9413 19.7461 38.6985C20.2254 37.4558 21.0419 36.3713 22.1037 35.5672C23.1656 34.7631 24.4307 34.2712 25.7568 34.1467C27.083 34.0223 28.4175 34.2703 29.6104 34.8628C30.8034 35.4554 31.8073 36.369 32.5094 37.5009C33.2115 38.6328 33.5839 39.9381 33.5847 41.2701Z" fill="gray"/>
<path d="M31.6481 36.3787L21.5303 46.5007C20.8226 45.8267 20.2594 45.0157 19.875 44.1171L29.2811 34.7069C30.1758 35.0971 30.9812 35.666 31.6481 36.3787Z" fill="#424141"/>
<path d="M33.5847 41.2701C33.5869 41.3018 33.5869 41.3335 33.5847 41.3652L26.5167 48.4332H26.4215C25.7638 48.4349 25.1091 48.3444 24.4766 48.1643L33.3033 39.3293C33.4859 39.9602 33.5806 40.6133 33.5847 41.2701Z" fill="#424141"/>
<path opacity="0.1" d="M33.3033 39.3293C32.8426 37.6541 31.7888 36.2035 30.3381 35.2475C28.8875 34.2916 27.1388 33.8954 25.4178 34.1328C23.6967 34.3702 22.1206 35.225 20.9829 36.538C19.8452 37.851 19.2235 39.5328 19.2335 41.2701C19.2335 41.4687 19.2418 41.6632 19.2583 41.8535C19.3977 40.1784 20.1214 38.6056 21.3029 37.4099C22.4844 36.2143 24.0486 35.472 25.722 35.3127C27.3953 35.1535 29.0714 35.5874 30.4573 36.5387C31.8431 37.49 32.8505 38.8981 33.3033 40.5169C33.4291 40.9602 33.5109 41.4149 33.5475 41.8742C33.5475 41.7128 33.5682 41.5432 33.5682 41.3777C33.5703 41.346 33.5703 41.3142 33.5682 41.2825C33.5706 40.6223 33.4815 39.965 33.3033 39.3293Z" fill="gray"/>
<path opacity="0.2" d="M39.5311 16.8838C37.3505 17.4695 35.131 17.8996 32.8894 18.1707C30.7079 18.4417 28.512 18.5799 26.3138 18.5846C20.4086 18.5846 16.2084 17.6659 13.353 16.6313C16.8581 9.47229 21.8115 3.68298 24.4889 0.835914C24.7372 0.566349 25.0404 0.353033 25.378 0.210285C25.7156 0.0675373 26.0798 -0.00133984 26.4462 0.00827775C26.4462 0.00827775 21.7411 6.32314 22.8253 11.9635C24.0916 18.5846 39.1794 16.9293 39.5311 16.8838Z" fill="gray"/>
<defs>
<linearGradient id="paint0_linear_28_501" x1="26.376" y1="75.8818" x2="26.376" y2="159.713" gradientUnits="userSpaceOnUse">
<stop stop-color="gray"/>
<stop offset="0.22" stop-color="gray" stop-opacity="0.76"/>
<stop offset="0.6" stop-color="gray" stop-opacity="0.36"/>
<stop offset="0.87" stop-color="gray" stop-opacity="0.1"/>
<stop offset="1" stop-color="gray" stop-opacity="0"/>
</linearGradient>
</defs>
</svg>
