<svg width="113" height="128" viewBox="0 0 113 128" fill="none" xmlns="http://www.w3.org/2000/svg">
<path d="M0 53.6131L4.82833 63.2582L26.1917 81.2151L31.4439 74.3753L10.4659 56.8654L0 53.6131Z" fill="#FF725E"/>
<g opacity="0.7">
<path d="M10.4659 56.8654C10.4655 56.963 10.4429 57.0592 10.3996 57.1467C10.3563 57.2342 10.2936 57.3106 10.2162 57.3701C10.1389 57.4296 10.0489 57.4706 9.95327 57.49C9.85761 57.5094 9.75879 57.5067 9.66437 57.482C9.89596 57.8071 10.0208 58.1962 10.0217 58.5954C10.0226 58.9946 9.89944 59.3843 9.66929 59.7105C9.43914 60.0367 9.11334 60.2833 8.73694 60.4163C8.36053 60.5493 7.95211 60.5621 7.56811 60.4529C7.67068 60.8356 7.66986 61.2387 7.56572 61.621C7.46158 62.0033 7.25786 62.3511 6.97535 62.6289C6.69285 62.9067 6.34169 63.1045 5.95772 63.2022C5.57375 63.2999 5.17072 63.294 4.7898 63.185L0 53.6131L10.4659 56.8654Z" fill="white"/>
</g>
<path d="M1.94212 57.4935C1.94212 57.4935 3.97673 57.8403 4.28885 54.9464L0 53.6131L1.94212 57.4935Z" fill="#FF725E"/>
<g opacity="0.3">
<path d="M7.56811 60.4529L28.6078 77.8665L26.1917 81.2151L4.82448 63.2582L4.78979 63.185C5.10886 63.2781 5.44508 63.2966 5.77242 63.239C6.20362 63.1634 6.6045 62.967 6.92844 62.6725C7.32295 62.3117 7.57346 61.8203 7.63362 61.2891C7.6641 61.0087 7.64188 60.7251 7.56811 60.4529Z" fill="black"/>
</g>
<g opacity="0.3">
<path d="M9.66431 57.482L30.7733 75.2539L31.4477 74.3753L10.4658 56.8654C10.4574 57.034 10.3863 57.1934 10.2666 57.3124C10.1469 57.4314 9.98708 57.5015 9.81844 57.5089C9.76632 57.5049 9.7147 57.4959 9.66431 57.482Z" fill="black"/>
</g>
<path d="M5.24451 59.9713C5.24451 59.9713 5.24451 60.0175 5.34085 60.0368C5.39738 60.0485 5.45623 60.0393 5.50652 60.011C5.55682 59.9826 5.59515 59.937 5.61444 59.8826C5.66036 59.7029 5.65096 59.5136 5.58747 59.3393C5.55419 59.2308 5.48825 59.1353 5.39865 59.0657C5.34869 59.028 5.29031 59.003 5.22854 58.993C5.16677 58.9829 5.10348 58.988 5.04413 59.0079C4.98213 59.0376 4.92708 59.0801 4.8826 59.1326C4.83811 59.185 4.80518 59.2463 4.78595 59.3123C4.73874 59.4596 4.71152 59.6125 4.70503 59.767C4.68268 60.1088 4.73258 60.4515 4.85146 60.7728C4.87871 60.8585 4.92415 60.9373 4.98467 61.0038C5.04519 61.0703 5.11937 61.1229 5.20212 61.1581C5.29157 61.184 5.3861 61.187 5.47702 61.1668C5.56793 61.1466 5.65229 61.1039 5.72233 61.0425C5.85969 60.8965 5.96629 60.7244 6.0358 60.5364C6.10531 60.3484 6.1363 60.1484 6.12694 59.9481C6.13595 59.5562 6.03724 59.1693 5.84155 58.8295C5.64587 58.4898 5.36072 58.2103 5.01716 58.0214C4.94094 57.9843 4.85726 57.965 4.77247 57.965C4.68768 57.965 4.604 57.9843 4.52778 58.0214C4.38425 58.1029 4.26261 58.2179 4.17326 58.3567C4.0037 58.6062 3.87372 58.8805 3.78792 59.1697C3.6692 59.5865 3.63384 60.0225 3.68388 60.4529C3.69802 60.5709 3.71861 60.6879 3.74553 60.8036C3.75599 60.8428 3.76371 60.8827 3.76865 60.923C3.71717 60.7716 3.68103 60.6154 3.66076 60.4568C3.6002 60.0224 3.63038 59.5803 3.74939 59.1582C3.83234 58.863 3.96247 58.5833 4.13473 58.3297C4.22658 58.1839 4.35213 58.0623 4.5008 57.9752C4.58484 57.9343 4.67708 57.913 4.77054 57.913C4.864 57.913 4.95624 57.9343 5.04028 57.9752C5.39643 58.1662 5.69287 58.4518 5.89687 58.8007C6.10088 59.1495 6.2045 59.5479 6.19631 59.952C6.19309 60.1628 6.15801 60.372 6.09226 60.5724C6.03604 60.774 5.92221 60.9548 5.76472 61.0926C5.687 61.1596 5.5937 61.206 5.49338 61.2275C5.39306 61.2491 5.28894 61.2451 5.19056 61.2159C5.1005 61.1789 5.01946 61.1229 4.95297 61.0517C4.88647 60.9806 4.83608 60.896 4.80522 60.8036C4.68786 60.4727 4.63934 60.1212 4.66264 59.7709C4.67018 59.6121 4.70002 59.4551 4.75127 59.3046C4.77326 59.2326 4.80996 59.166 4.85905 59.109C4.90814 59.0519 4.96854 59.0057 5.03643 58.9732C5.10133 58.9516 5.17062 58.9466 5.23795 58.9587C5.30528 58.9708 5.36848 58.9997 5.42177 59.0426C5.51904 59.1162 5.59053 59.2187 5.626 59.3354C5.68367 59.5185 5.68367 59.7149 5.626 59.898C5.60494 59.9565 5.56291 60.005 5.50808 60.0342C5.45325 60.0634 5.38953 60.0712 5.32929 60.056C5.30958 60.0494 5.29167 60.0383 5.27696 60.0236C5.26226 60.0089 5.25115 59.991 5.24451 59.9713Z" fill="white"/>
<path d="M6.11153 55.6092C6.11153 55.6092 6.06529 55.7209 6.0229 55.9367C5.97312 56.2428 5.98359 56.5556 6.05373 56.8577C6.16316 57.3041 6.32484 57.7361 6.53541 58.1447C6.80486 58.6474 6.98726 59.192 7.07489 59.7555C7.13448 60.326 7.02316 60.9014 6.75505 61.4086C6.53551 61.822 6.21797 62.1752 5.83023 62.4374C5.56886 62.6107 5.28132 62.7408 4.97863 62.8228C4.86803 62.855 4.75439 62.8757 4.63953 62.8844L4.72816 62.8652L4.95551 62.7997C5.25129 62.7153 5.53211 62.5852 5.78785 62.4143C6.16644 62.1533 6.47589 61.8042 6.68954 61.397C6.9489 60.8966 7.05733 60.3317 7.00167 59.7709C6.92006 59.2155 6.74962 58.6768 6.49687 58.1756C6.28697 57.7621 6.12783 57.3248 6.0229 56.8731C5.95956 56.5655 5.95956 56.2482 6.0229 55.9406C6.03775 55.8267 6.06755 55.7153 6.11153 55.6092Z" fill="white"/>
<path d="M8.5315 56.2257C8.34828 56.3389 8.21159 56.5138 8.14615 56.719C8.02108 57.2226 7.97558 57.7427 8.01129 58.2603C8.02815 58.7855 8.09395 59.308 8.20781 59.821C8.2502 60.0175 8.29259 60.1755 8.31956 60.2872C8.3384 60.3425 8.35258 60.3992 8.36194 60.4568C8.33569 60.4034 8.31378 60.348 8.29644 60.2911C8.26176 60.1832 8.21552 60.029 8.16542 59.8325C8.04186 59.3182 7.96958 58.7928 7.94963 58.2642C7.94134 57.9737 7.94906 57.683 7.97275 57.3933C7.98341 57.1546 8.02751 56.9185 8.10377 56.692C8.16072 56.5403 8.25798 56.4071 8.38507 56.3066C8.42887 56.2715 8.4784 56.2441 8.5315 56.2257Z" fill="white"/>
<path d="M9.45244 59.9751C9.38918 59.8746 9.33747 59.7673 9.2983 59.6553C9.18152 59.3897 9.12619 59.1013 9.13646 58.8114C9.13876 58.6622 9.1746 58.5155 9.2413 58.3821C9.30801 58.2487 9.40387 58.132 9.5218 58.0407C9.59373 57.9879 9.6747 57.9487 9.76072 57.9251C9.79262 57.92 9.82514 57.92 9.85705 57.9251C9.74654 57.9628 9.64255 58.0174 9.54878 58.0869C9.44169 58.1765 9.35475 58.2877 9.29366 58.4132C9.23256 58.5387 9.19869 58.6757 9.19426 58.8152C9.18935 59.0966 9.23773 59.3764 9.33684 59.6399C9.38202 59.7492 9.42062 59.8612 9.45244 59.9751Z" fill="white"/>
<path d="M4.71659 55.0582C4.71659 55.0582 4.71659 55.0581 4.73971 55.1044C4.76129 55.1492 4.77933 55.1955 4.79366 55.2431C4.8239 55.3165 4.8396 55.395 4.8399 55.4743C4.83263 55.5803 4.80098 55.6831 4.74742 55.7749C4.61661 56.0082 4.47384 56.2345 4.31969 56.4531C4.14692 56.7292 3.99741 57.0192 3.87269 57.3201C3.65501 57.8707 3.48107 58.4376 3.35248 59.0156C3.30624 59.2083 3.26771 59.3817 3.22917 59.5435C3.19064 59.7054 3.18293 59.7362 3.17908 59.7362C3.17902 59.6698 3.18809 59.6036 3.20605 59.5397C3.22917 59.4125 3.26385 59.2314 3.31395 59.0079C3.42874 58.4232 3.59774 57.8504 3.81875 57.297C3.94365 56.9923 4.09583 56.6995 4.27345 56.4223C4.43915 56.1679 4.6087 55.956 4.71274 55.7556C4.76073 55.6817 4.79093 55.5976 4.80096 55.51C4.81099 55.4224 4.80058 55.3337 4.77054 55.2508C4.73586 55.1275 4.71274 55.062 4.71659 55.0582Z" fill="white"/>
<path d="M17.5562 102.49H17.2287C15.6964 102.49 14.4542 103.732 14.4542 105.264V120.809C14.4542 122.341 15.6964 123.583 17.2287 123.583H17.5562C19.0885 123.583 20.3307 122.341 20.3307 120.809V105.264C20.3307 103.732 19.0885 102.49 17.5562 102.49Z" fill="#263238"/>
<path d="M38.0217 127.969C38.0217 127.969 30.3611 127.969 26.9816 127.969C23.6022 127.969 19.9646 128.354 18.5041 126.358C17.3481 124.817 17.5562 122.74 17.6448 120.875C17.9017 115.626 18.1496 110.378 18.3885 105.129C18.454 103.708 18.5311 102.255 19.1245 100.925C19.718 99.5959 22.3961 81.2036 24.0068 80.8876H37.6556L38.0217 127.969Z" fill="#263238"/>
<path d="M35.1509 119.557C35.1509 119.611 31.494 119.657 26.9816 119.657C22.4693 119.657 18.8124 119.611 18.8124 119.557C18.8124 119.503 22.4693 119.453 26.9816 119.453C31.494 119.453 35.1509 119.499 35.1509 119.557Z" fill="#455A64"/>
<path d="M28.6424 98.2511C28.7002 98.2511 28.7426 103.014 28.7426 108.89C28.7426 114.767 28.7002 119.534 28.6424 119.534C28.5846 119.534 28.5422 114.771 28.5422 108.89C28.5422 103.01 28.5885 98.2511 28.6424 98.2511Z" fill="#455A64"/>
<path d="M18.4425 122.343C18.4248 122.279 18.417 122.212 18.4193 122.146C18.4193 121.996 18.4193 121.811 18.3924 121.587C18.3692 121.098 18.35 120.393 18.3307 119.522C18.2922 117.78 18.2691 115.372 18.2922 112.713C18.3153 110.054 18.377 107.642 18.4463 105.9C18.4771 105.029 18.5118 104.324 18.5388 103.839L18.5773 103.276C18.5773 103.211 18.5864 103.146 18.6043 103.083C18.6136 103.148 18.6136 103.215 18.6043 103.28V103.839C18.6043 104.359 18.6043 105.056 18.5696 105.904C18.5465 107.673 18.5157 110.066 18.4771 112.713C18.4386 115.36 18.4771 117.749 18.4579 119.522C18.4579 120.37 18.4579 121.063 18.4579 121.587C18.4579 121.811 18.4579 121.996 18.4579 122.146C18.4612 122.212 18.456 122.278 18.4425 122.343Z" fill="#455A64"/>
<path d="M93.927 54.2759C93.927 54.2759 99.9191 55.4319 102.971 65.0924C106.458 76.1556 112.342 98.8368 112.296 101.453C112.25 104.07 105.576 108.27 105.576 108.27L96.0155 105.083L91.0061 86.2015L93.927 54.2759Z" fill="#1976d2"/>
<path d="M93.927 54.2759L79.1838 48.8079L78.1704 47.5131L59.1576 48.1027L57.7472 49.0121C57.7472 49.0121 43.4549 52.145 41.9752 52.3376C38.5071 52.7808 34.8734 57.5513 34.8734 57.5513C34.488 57.9944 16.5465 84.1129 16.5465 84.1129L20.7275 100.563C20.7275 100.563 22.7043 101.261 28.3881 97.5344C32.8888 94.5788 36.3878 89.9007 37.6363 88.0819L37.617 127.984H93.322L90.2894 102.675L93.927 54.2759Z" fill="#1976d2"/>
<path d="M91.0987 80.5639C91.096 80.4976 91.1038 80.4313 91.1218 80.3674C91.1526 80.2171 91.1873 80.0321 91.2297 79.8086L91.642 77.7586C91.9849 76.0284 92.4127 73.6278 92.8288 70.9689C93.245 68.31 93.5109 65.8824 93.692 64.1291C93.7806 63.2736 93.85 62.5684 93.9039 62.0482C93.9271 61.8209 93.9463 61.6359 93.9656 61.4818C93.9679 61.415 93.9796 61.3488 94.0003 61.2853C94.0093 61.3517 94.0093 61.4191 94.0003 61.4856C94.0003 61.6398 94.0003 61.8247 93.9772 62.0559C93.954 62.5492 93.904 63.2621 93.8307 64.1406C93.6843 65.9017 93.4223 68.3293 93.0215 70.9959C92.6208 73.6624 92.1545 76.0593 91.7769 77.7856C91.588 78.6488 91.4262 79.3462 91.3029 79.824C91.2451 80.0437 91.1989 80.2287 91.1565 80.3751C91.145 80.4401 91.1256 80.5036 91.0987 80.5639Z" fill="#263238"/>
<path d="M35.8792 69.8822C35.9042 69.9612 35.921 70.0426 35.9293 70.125C35.9563 70.3023 35.991 70.5335 36.0372 70.8148C36.1259 71.4197 36.2415 72.2906 36.3763 73.3734C36.6422 75.5352 36.9543 78.5293 37.1971 81.8509C37.4399 85.1726 37.5824 88.1744 37.6133 90.3477C37.6364 91.4382 37.648 92.3207 37.648 92.9295C37.648 93.2147 37.648 93.4459 37.648 93.6308C37.6545 93.7116 37.6545 93.7928 37.648 93.8736C37.6301 93.7939 37.6211 93.7125 37.621 93.6308C37.621 93.4497 37.6017 93.2147 37.5902 92.9295C37.5632 92.2976 37.5323 91.4228 37.49 90.3554C37.4013 88.1783 37.2549 85.1764 37.016 81.8779C36.7771 78.5794 36.4842 75.5776 36.2453 73.4004C36.1297 72.3369 36.0372 71.4737 35.9717 70.8379C35.9409 70.5527 35.9178 70.3215 35.9024 70.1404C35.8835 70.0557 35.8757 69.9689 35.8792 69.8822Z" fill="#263238"/>
<path d="M79.1761 50.7847C79.1194 50.8572 79.0548 50.9231 78.9835 50.9812C78.8486 51.1007 78.6482 51.2779 78.39 51.4976C77.866 51.9446 77.103 52.5727 76.1242 53.3087C74.9866 54.1914 73.7687 54.9654 72.4866 55.6207C70.8674 56.3404 69.1278 56.7508 67.3577 56.8307C65.589 56.9617 63.8126 56.7188 62.144 56.1178C60.7979 55.584 59.606 54.7231 58.676 53.6131C58.0441 52.8677 57.5743 51.999 57.2964 51.0621C57.2226 50.8098 57.1685 50.5522 57.1346 50.2915C57.1145 50.2017 57.1055 50.1098 57.1076 50.0179C57.139 50.1039 57.161 50.193 57.1731 50.2837C57.2254 50.5438 57.291 50.8011 57.3696 51.0544C57.6736 51.9665 58.1541 52.8097 58.7838 53.536C59.716 54.6143 60.8991 55.4467 62.2288 55.9598C63.8713 56.5344 65.6147 56.764 67.35 56.6342C69.094 56.5541 70.8087 56.1557 72.4095 55.4589C73.6833 54.8155 74.898 54.0611 76.0394 53.2046C77.0259 52.4841 77.8043 51.8714 78.3515 51.4475L78.9681 50.9581C79.0338 50.8961 79.1033 50.8382 79.1761 50.7847Z" fill="#263238"/>
<g opacity="0.3">
<path d="M50.7341 69.2541C48.5146 70.7955 48.2448 73.9052 48.1215 76.6026C47.6013 87.6773 40.5341 108.821 37.6287 119.518C46.7767 105.384 52.3873 86.0126 50.7341 69.2541Z" fill="black"/>
</g>
<path d="M51.339 50.3994C51.339 50.3994 50.5992 74.2327 48.5568 88.5482C46.5145 102.864 36.6113 121.884 36.6113 121.884L35.0121 118.751C35.0121 118.751 40.4839 102.875 42.9617 89.5539C44.715 80.1477 42.9617 51.7904 42.9617 51.7904C45.4654 50.2507 48.4721 49.7515 51.339 50.3994Z" fill="#263238"/>
<path d="M46.0791 73.9977C46.0252 73.9977 46.1524 69.0345 46.3682 62.9152C46.5839 56.796 46.8036 51.8367 46.8575 51.8405C46.9115 51.8444 46.7843 56.8037 46.5685 62.923C46.3527 69.0422 46.1331 74.0015 46.0791 73.9977Z" fill="#455A64"/>
<path d="M15.2056 75.3656L13.3058 80.2749C13.3058 80.2749 10.7857 85.4115 10.9938 88.9027C11.2019 92.3939 15.5871 105.149 24.4807 101.014C33.3744 96.8793 28.9199 90.1589 28.9199 90.1589L24.7428 78.722L18.192 74.41C17.941 74.2441 17.6559 74.1366 17.3579 74.0955C17.0598 74.0543 16.7564 74.0806 16.4698 74.1723C16.1832 74.264 15.9209 74.4188 15.7021 74.6253C15.4833 74.8318 15.3136 75.0848 15.2056 75.3656Z" fill="#1976d2"/>
<path d="M25.7023 61.7245C26.2842 62.4952 29.6405 61.6089 30.4035 63.1773C30.6308 63.6002 30.7498 64.0728 30.7498 64.5529C30.7498 65.0331 30.6308 65.5057 30.4035 65.9286C30.787 66.4131 31.023 66.9978 31.0831 67.6128C31.1433 68.2278 31.025 68.8471 30.7426 69.3967C31.0645 70.1221 31.1881 70.9199 31.1009 71.7087C30.9731 72.4989 30.5739 73.2197 29.9719 73.7472C30.0447 74.1492 30.0006 74.5637 29.8449 74.9414C29.6892 75.3192 29.4283 75.6443 29.0933 75.8781C27.9373 76.6488 24.8777 77.2423 24.8777 77.2423L23.6215 79.5543C23.6215 79.5543 21.8797 81.481 19.7218 80.6178C17.5639 79.7547 16.1073 75.4504 16.1073 75.4504C16.2036 74.8994 18.6274 70.888 18.6274 70.888C18.6274 70.888 19.1091 64.919 20.1688 63.4663C21.2285 62.0136 21.7102 61.7207 21.7102 61.7207C21.7102 61.7207 22.635 59.7285 22.635 58.873C22.635 58.0176 21.8412 55.2816 22.319 54.7267C22.7968 54.1718 24.7505 54.5572 25.606 56.8191C26.4614 59.0811 25.7023 61.7245 25.7023 61.7245Z" fill="#FFBF9D"/>
<path d="M30.2917 65.7475C30.2917 65.8092 29.1357 65.6088 27.7177 65.6011C26.2996 65.5934 25.1474 65.7783 25.1359 65.7167C25.3729 65.6182 25.6238 65.5571 25.8796 65.5356C27.0971 65.348 28.3368 65.3558 29.5519 65.5587C29.8067 65.5835 30.0562 65.6471 30.2917 65.7475Z" fill="#FF9A6C"/>
<path d="M30.5575 69.6896C30.5575 69.7512 29.4709 69.5316 28.1299 69.5316C26.7889 69.5316 25.7099 69.732 25.6984 69.6703C27.2866 69.2117 28.973 69.2184 30.5575 69.6896Z" fill="#FF9A6C"/>
<path d="M30.2879 73.6701C29.6192 73.9498 28.9046 74.104 28.1801 74.1249C27.4596 74.209 26.7298 74.162 26.026 73.9861C26.026 73.9283 26.9894 74.0131 28.1646 73.9245C29.3399 73.8358 30.2725 73.6123 30.2879 73.6701Z" fill="#FF9A6C"/>
<path d="M27.3438 76.5332C27.0705 76.7102 26.7697 76.8404 26.4537 76.9186C24.9379 77.3918 23.3057 77.3306 21.8296 76.7452C21.5214 76.6398 21.2325 76.4849 20.9741 76.2866C21.9836 76.7018 23.0529 76.9528 24.1416 77.0303C25.2288 77.0372 26.3099 76.8694 27.3438 76.5332Z" fill="#FF9A6C"/>
<path d="M27.3786 62.2178C27.3786 62.2833 26.1339 62.0174 24.5926 62.0752C23.0512 62.133 21.8412 62.4606 21.8258 62.395C22.0682 62.2706 22.328 62.1835 22.5965 62.1369C23.246 61.9817 23.9096 61.8926 24.5771 61.871C25.2429 61.8492 25.9092 61.8957 26.5655 62.0097C26.8454 62.038 27.1195 62.1082 27.3786 62.2178Z" fill="#FF9A6C"/>
<path d="M28.049 95.8928C28.0297 95.8928 28.1492 95.65 28.3188 95.2107C28.5613 94.59 28.7319 93.9436 28.8274 93.284C28.9731 92.311 28.9614 91.3209 28.7927 90.3516C28.5885 89.1668 28.1411 88.0371 27.4787 87.0338C26.7774 85.9625 25.9951 84.9838 25.552 83.9279C25.1701 83.0062 24.8985 82.0426 24.7428 81.0571C24.6041 80.2209 24.5386 79.5389 24.4962 79.0649C24.4962 78.8491 24.4653 78.6796 24.4538 78.5216C24.4436 78.459 24.4436 78.3953 24.4538 78.3328C24.4759 78.3923 24.4901 78.4545 24.4962 78.5177C24.4962 78.6642 24.5424 78.8414 24.5732 79.0572C24.6387 79.5273 24.7274 80.2132 24.8854 81.0302C25.0532 82.001 25.3338 82.949 25.7215 83.8547C26.1531 84.8797 26.9238 85.8392 27.6483 86.9375C28.3284 87.9613 28.7817 89.1188 28.9777 90.3323C29.1424 91.321 29.1424 92.3301 28.9777 93.3187C28.8651 93.9823 28.671 94.6294 28.3997 95.2454C28.3288 95.4146 28.2477 95.5793 28.1569 95.7387C28.1261 95.7935 28.09 95.8451 28.049 95.8928Z" fill="#263238"/>
<g opacity="0.3">
<path d="M24.5848 78.2133C24.6349 78.4214 24.6966 78.6218 24.7621 78.8222V78.2133H24.5848Z" fill="black"/>
</g>
<g opacity="0.3">
<path d="M28.4074 85.1071C27.0857 83.0725 25.5096 81.1265 24.7621 78.8376C24.7621 80.7835 24.8546 82.7642 25.6676 84.5214C26.2033 85.6774 27.0202 86.6677 27.7022 87.739C28.3843 88.8102 28.943 90.0317 28.8583 91.2995C28.7777 91.7434 28.766 92.197 28.8236 92.6444C28.9353 93.0837 29.3862 93.4844 29.8101 93.3341C29.96 93.2533 30.0887 93.1382 30.1858 92.9983C30.2829 92.8584 30.3456 92.6975 30.3688 92.5288C31.0316 89.9778 29.8409 87.3189 28.4074 85.1071Z" fill="black"/>
</g>
<path d="M88.5091 28.0958C87.6267 28.5929 86.4437 27.9532 86.0429 27.0245C85.6422 26.0959 85.831 25.0246 86.1354 24.0574C86.4398 23.0902 86.8599 22.1307 86.9061 21.1404C86.9446 20.2174 86.6846 19.3067 86.1647 18.5432C85.6448 17.7797 84.8927 17.204 84.0199 16.9016C85.7346 15.5413 85.8772 12.6243 84.2973 11.1215C83.5613 10.4086 82.5787 10.0233 81.7232 9.46451C81.2361 9.1394 80.7807 8.76912 80.363 8.35858C81.129 8.54688 81.9262 8.57052 82.702 8.42794C83.3258 8.29176 83.9049 7.99983 84.3853 7.57937C84.8657 7.1589 85.2319 6.62361 85.4495 6.02341C85.6519 5.41853 85.6815 4.76921 85.5352 4.14839C85.3888 3.52758 85.0722 2.95988 84.621 2.50909C84.1541 2.07321 83.5657 1.78965 82.9339 1.69604C82.3021 1.60244 81.6568 1.70323 81.0836 1.98502C79.9776 2.57074 79.3688 3.77686 78.8293 4.90591L78.3284 5.9579C76.7677 3.89247 75.2996 1.75382 72.8951 1.02938C70.7102 0.370442 68.3634 1.10645 66.0899 0.940749C64.433 0.821293 62.8454 0.220159 61.1961 0.042902C59.5468 -0.134355 57.6664 0.212455 56.6914 1.5573C56.1173 2.34725 55.9208 3.3684 55.3582 4.1545C54.1636 5.77293 51.5857 5.99258 50.603 7.74974C49.8054 9.1755 50.4181 10.9789 50.0751 12.5781C49.6898 14.3198 48.2717 15.5914 47.0964 16.9247C45.9211 18.258 44.9 20.0999 45.5551 21.7531C46.1331 23.2058 47.8286 23.988 48.3835 25.4523C48.7688 26.5197 48.4914 27.7066 48.4721 28.8472C48.4528 29.9878 48.9075 31.3442 50.0135 31.6024L62.6719 34.9472C67.0302 36.7197 71.5348 38.5231 76.236 38.5154C80.9371 38.5077 85.9659 36.2496 87.8232 31.9261C87.1348 31.8961 86.4841 31.6038 86.0044 31.1092C86.6219 30.8279 87.1679 30.4109 87.6016 29.8891C88.0353 29.3673 88.3455 28.7543 88.5091 28.0958Z" fill="#263238"/>
<path d="M78.1357 32.0687C79.18 28.8588 80.2088 25.6219 80.6866 22.281C81.1645 18.9401 81.072 15.4527 79.8813 12.2891C79.704 11.8074 78.1858 8.58978 77.6733 8.63988C77.311 8.67456 78.2474 11.6802 78.0586 11.9962C76.3015 15.0134 75.8236 18.6395 76.1049 22.1191C76.4093 25.5006 77.0892 28.8376 78.1318 32.0687" fill="#263238"/>
<path d="M65.5775 3.45702L64.8068 3.49941C61.0081 3.70328 57.4254 5.3297 54.7714 8.05511C52.1174 10.7805 50.5866 14.4051 50.4836 18.2079C50.2871 25.5294 50.0135 32.585 50.2717 36.5001C50.8073 44.5923 59.1345 45.4554 59.1345 45.4554V49.6402C59.4929 53.9098 65.0226 54.6766 67.1188 54.4917C74.3594 54.4917 78.1357 48.5651 78.1357 48.5651L78.4748 19.1751C78.7446 10.7246 74.0473 3.51097 65.5775 3.45702Z" fill="#FFBF9D"/>
<path d="M59.1268 45.4593C59.1268 45.4593 64.2557 45.4862 69.5311 41.7716C69.5311 41.7716 67.273 47.8099 59.1268 47.5131V45.4593Z" fill="#FF9A6C"/>
<path d="M54.2059 24.8705C54.218 25.173 54.3482 25.4588 54.5687 25.6663C54.7892 25.8738 55.0823 25.9865 55.3851 25.9803C55.5345 25.9859 55.6836 25.9615 55.8234 25.9083C55.9632 25.8551 56.0908 25.7744 56.1987 25.6708C56.3066 25.5672 56.3925 25.443 56.4513 25.3055C56.5102 25.168 56.5407 25.02 56.5411 24.8705C56.5291 24.5679 56.3988 24.2822 56.1783 24.0746C55.9578 23.8671 55.6647 23.7544 55.362 23.7607C55.2125 23.755 55.0634 23.7795 54.9237 23.8326C54.7839 23.8858 54.6562 23.9666 54.5483 24.0702C54.4405 24.1737 54.3545 24.298 54.2957 24.4355C54.2369 24.573 54.2063 24.7209 54.2059 24.8705Z" fill="#263238"/>
<path d="M52.3872 21.491C52.5375 21.6374 53.3814 20.94 54.6261 20.8745C55.8707 20.809 56.8225 21.387 56.9381 21.2251C56.9998 21.1558 56.8379 20.8899 56.4256 20.6201C55.8656 20.2759 55.2128 20.1131 54.5567 20.1539C53.9089 20.1863 53.2882 20.4238 52.7841 20.8321C52.4258 21.1481 52.3102 21.4294 52.3872 21.491Z" fill="#263238"/>
<path d="M65.4888 24.8974C65.5008 25.2 65.6311 25.4857 65.8516 25.6933C66.0721 25.9008 66.3652 26.0135 66.6679 26.0072C66.8175 26.0135 66.9668 25.9894 67.1068 25.9364C67.2469 25.8834 67.3747 25.8027 67.4827 25.699C67.5907 25.5953 67.6766 25.4708 67.7353 25.3331C67.7939 25.1953 67.8241 25.0472 67.8239 24.8974C67.8119 24.5949 67.6816 24.3091 67.4611 24.1016C67.2406 23.8941 66.9475 23.7814 66.6448 23.7877C66.4952 23.7814 66.3459 23.8055 66.2059 23.8585C66.0659 23.9115 65.938 23.9922 65.83 24.0959C65.722 24.1996 65.6361 24.324 65.5774 24.4618C65.5188 24.5995 65.4886 24.7477 65.4888 24.8974Z" fill="#263238"/>
<path d="M64.6257 21.3407C64.7799 21.4872 65.6238 20.7897 66.8684 20.7242C68.1131 20.6587 69.061 21.2367 69.1805 21.0749C69.246 21.0055 69.0841 20.7396 68.668 20.4699C68.1094 20.1255 67.4578 19.9626 66.8029 20.0036C66.1541 20.0368 65.5324 20.2742 65.0265 20.6818C64.6835 20.9978 64.5525 21.2791 64.6257 21.3407Z" fill="#263238"/>
<path d="M60.6682 31.1631C60.6682 31.0899 59.8975 30.9974 58.622 30.9049C58.3022 30.9049 57.9978 30.8433 57.9323 30.6275C57.8871 30.2999 57.9436 29.9663 58.0941 29.6718C58.351 28.8857 58.622 28.0611 58.9072 27.1979C60.0285 23.6759 60.8339 20.7858 60.6797 20.7435C60.5256 20.7011 59.5237 23.5179 58.3908 27.0399C58.1339 27.9082 57.877 28.738 57.6201 29.5293C57.4417 29.9236 57.4063 30.3678 57.5199 30.7855C57.5727 30.8955 57.6497 30.9922 57.7451 31.0682C57.8406 31.1443 57.952 31.1978 58.071 31.2248C58.2497 31.2611 58.432 31.2766 58.6143 31.271C59.8821 31.271 60.6643 31.2325 60.6682 31.1631Z" fill="#263238"/>
<path d="M64.3829 31.8297C64.1787 31.8297 64.248 33.1823 63.1421 34.2034C62.0362 35.2246 60.5873 35.1552 60.5873 35.3595C60.5873 35.4442 60.9225 35.6061 61.5314 35.5907C62.3255 35.559 63.083 35.2479 63.67 34.7121C64.2329 34.1993 64.5742 33.4876 64.6218 32.7276C64.6449 32.1419 64.4754 31.8143 64.3829 31.8297Z" fill="#263238"/>
<path d="M64.4253 16.2773C64.564 16.6126 65.801 16.3852 67.273 16.4816C68.745 16.5779 69.9511 16.9132 70.1284 16.601C70.2055 16.4507 69.9858 16.1425 69.4887 15.8303C68.8296 15.4641 68.0961 15.252 67.3433 15.21C66.5904 15.1679 65.8378 15.297 65.1421 15.5876C64.618 15.8381 64.3637 16.1194 64.4253 16.2773Z" fill="#263238"/>
<path d="M52.6801 17.3293C52.9152 17.5991 53.7552 17.26 54.7879 17.1906C55.8206 17.1212 56.7146 17.2792 56.8919 16.971C56.9728 16.8207 56.8187 16.5471 56.4218 16.3005C55.897 15.9934 55.2892 15.8586 54.6839 15.9151C54.0769 15.9592 53.4983 16.1893 53.0269 16.5741C52.6801 16.89 52.576 17.1868 52.6801 17.3293Z" fill="#263238"/>
<path d="M78.1281 25.2327C78.2629 25.1633 83.6153 23.2829 83.7348 28.8395C83.8542 34.3961 78.2514 33.3711 78.2398 33.2131C78.2282 33.0551 78.1281 25.2327 78.1281 25.2327Z" fill="#FFBF9D"/>
<path d="M79.889 31.0706C79.9121 31.0706 79.9892 31.1361 80.1549 31.2055C80.3859 31.2995 80.6445 31.2995 80.8754 31.2055C81.4612 30.9781 81.9351 30.0495 81.939 29.0322C81.9433 28.5556 81.8406 28.0842 81.6384 27.6526C81.5826 27.4802 81.4857 27.3238 81.3562 27.197C81.2267 27.0701 81.0683 26.9766 80.8947 26.9243C80.7828 26.8971 80.6648 26.91 80.5613 26.9607C80.4579 27.0114 80.3754 27.0967 80.3283 27.2018C80.2589 27.3598 80.2936 27.4715 80.2666 27.4792C80.2396 27.4869 80.1433 27.3906 80.1857 27.1594C80.2118 27.0217 80.2854 26.8976 80.3938 26.8087C80.5436 26.689 80.7349 26.6335 80.9255 26.6546C81.1554 26.694 81.3712 26.7921 81.5521 26.9392C81.733 27.0864 81.8728 27.2777 81.9583 27.4946C82.2081 27.9702 82.3402 28.4988 82.3436 29.036C82.3436 30.1535 81.781 31.217 80.9833 31.4637C80.8349 31.5107 80.6779 31.5236 80.5238 31.5016C80.3697 31.4796 80.2225 31.4232 80.0932 31.3365C79.9044 31.2016 79.8697 31.0783 79.889 31.0706Z" fill="#FF9A6C"/>
<path d="M53.9479 8.96741C53.0423 8.48188 55.705 5.53402 57.9015 4.50131C61.2231 2.95994 66.3135 1.94649 69.4039 2.77883C73.1263 3.78457 76.2283 5.58797 78.1358 8.94429C80.0432 12.3006 80.7908 16.2195 80.7291 20.073C80.7291 21.229 80.6058 22.4775 79.9931 23.4794C79.2224 24.7163 77.7504 25.5101 77.8391 27.2018C77.882 27.8153 77.6828 28.4212 77.2842 28.8896C76.2823 29.984 75.0222 28.9821 74.4365 27.9725C73.188 25.8107 73.0184 23.2135 72.8951 20.7203C72.7949 18.9478 72.7025 17.1405 73.1803 15.4296C73.4385 14.5009 73.8662 13.6223 74.0743 12.6783C74.2824 11.7342 74.24 10.6668 73.6427 9.90765C73.5049 9.74407 73.3527 9.59318 73.188 9.4568C72.4023 8.78816 71.4525 8.34106 70.4366 8.16157C69.4206 7.98208 68.3751 8.07669 67.4079 8.43564C64.2905 9.59167 58.9689 11.3064 57.5585 10.2622C55.5316 8.75933 55.0384 7.769 55.0384 7.769L53.9479 8.96741Z" fill="#263238"/>
<path d="M69.1034 2.02741C66.0206 1.04864 62.5526 1.14498 59.7203 2.66323C58.2136 3.46859 56.8611 4.74793 56.4179 6.39719C55.9748 8.04645 56.7069 10.0656 58.2984 10.6899L58.4063 10.7554C60.7877 11.5261 62.3252 11.187 64.6796 10.3392C66.6564 9.6225 68.4136 8.37399 70.3943 7.66881C72.5202 6.9196 74.8216 6.82299 77.0029 7.39137C74.845 4.9984 72.1707 3.01003 69.1034 2.02741Z" fill="#263238"/>
<path d="M79.6694 7.52238C79.6232 7.56477 79.1762 7.033 78.2745 6.40875C77.7501 6.04154 77.1835 5.7388 76.5867 5.50705C75.8724 5.21103 75.1007 5.07933 74.3286 5.12171C72.915 5.28119 71.5752 5.83687 70.4636 6.72472C69.6043 7.40678 69.2074 7.97709 69.1535 7.93855C69.0995 7.90002 69.2151 7.769 69.3962 7.51082C69.6587 7.14912 69.9612 6.8182 70.2979 6.52435C71.4197 5.52903 72.8253 4.91044 74.317 4.75563C75.1451 4.70841 75.9726 4.85624 76.7331 5.18721C77.3484 5.44327 77.9255 5.783 78.4479 6.19681C79.3265 6.89813 79.7118 7.50312 79.6694 7.52238Z" fill="#455A64"/>
<path d="M80.2243 9.49148C80.2667 9.49148 80.1704 10.1273 79.8043 11.0791C78.8047 13.5698 76.9696 15.6352 74.6137 16.9209C74.1467 17.2129 73.6312 17.419 73.0916 17.5297C73.0261 17.4218 75.423 16.5124 77.4421 14.2042C79.4613 11.896 80.0972 9.44139 80.2243 9.49148Z" fill="#455A64"/>
<path d="M82.4863 10.3932C82.5287 10.6011 82.5365 10.8147 82.5094 11.0251C82.478 11.6001 82.3968 12.1713 82.2666 12.7322C81.8421 14.6027 80.9602 16.3387 79.6999 17.7846C78.4396 19.2305 76.8403 20.3411 75.0453 21.0171C74.5074 21.2217 73.9531 21.3803 73.3883 21.491C73.1895 21.549 72.9827 21.575 72.7756 21.5681C72.7756 21.5026 73.6504 21.3484 74.9644 20.7974C76.6806 20.0755 78.2093 18.9712 79.4341 17.5688C80.6588 16.1665 81.5472 14.503 82.0315 12.7052C82.4092 11.2872 82.4092 10.3932 82.4863 10.3932Z" fill="#455A64"/>
<path d="M62.7568 1.53032C62.7568 1.59197 62.1826 1.72684 61.2848 2.08521C58.9396 3.01493 56.946 4.65811 55.5856 6.78253C55.0615 7.59175 54.8149 8.14664 54.7571 8.11967C54.869 7.59736 55.0725 7.09899 55.3582 6.64766C55.9952 5.52173 56.8338 4.5225 57.8321 3.6998C58.8284 2.87632 59.9692 2.24521 61.1961 1.83859C61.6928 1.64019 62.222 1.53567 62.7568 1.53032Z" fill="#455A64"/>
<path d="M84.228 2.22008C84.3205 2.22008 84.0777 3.83081 82.8215 5.30281C81.5653 6.77482 80.0317 7.31815 80.0201 7.22952C80.0085 7.14089 81.3649 6.48581 82.5364 5.06776C83.7078 3.6497 84.1201 2.18155 84.228 2.22008Z" fill="#455A64"/>
<path d="M66.6487 28.2769C66.6487 28.318 66.6365 28.3583 66.6137 28.3925C66.5908 28.4267 66.5583 28.4534 66.5203 28.4691C66.4822 28.4849 66.4404 28.489 66.4 28.481C66.3597 28.4729 66.3226 28.4531 66.2935 28.424C66.2644 28.3949 66.2446 28.3578 66.2365 28.3175C66.2285 28.2771 66.2326 28.2353 66.2484 28.1973C66.2641 28.1592 66.2908 28.1267 66.325 28.1039C66.3592 28.081 66.3995 28.0688 66.4406 28.0688C66.4958 28.0688 66.5487 28.0907 66.5878 28.1298C66.6268 28.1688 66.6487 28.2217 66.6487 28.2769Z" fill="#FF9A6C"/>
<path d="M67.9704 28.4811C68.0853 28.4811 68.1785 28.388 68.1785 28.273C68.1785 28.1581 68.0853 28.0649 67.9704 28.0649C67.8555 28.0649 67.7623 28.1581 67.7623 28.273C67.7623 28.388 67.8555 28.4811 67.9704 28.4811Z" fill="#FF9A6C"/>
<path d="M92.2944 67.2279L68.376 60.0839C67.9682 59.9621 67.5388 60.194 67.417 60.6018L57.5546 93.6215C57.4328 94.0293 57.6646 94.4587 58.0725 94.5805L81.9908 101.725C82.3986 101.846 82.828 101.614 82.9498 101.207L92.8122 68.1869C92.9341 67.7791 92.7022 67.3497 92.2944 67.2279Z" fill="#455A64"/>
<path d="M58.8031 89.6965C58.3137 89.6028 57.8742 89.3365 57.5645 88.9462C57.2547 88.5558 57.0954 88.0673 57.1153 87.5694C57.148 87.0244 57.3923 86.5138 57.7962 86.1465C58.2001 85.7792 58.7316 85.5843 59.2772 85.6034C59.8228 85.6225 60.3394 85.8541 60.7166 86.2488C61.0938 86.6435 61.3018 87.1699 61.2963 87.7158H60.9109C60.9225 87.3899 60.8405 87.0675 60.6745 86.7867C60.5086 86.506 60.2657 86.2786 59.9746 86.1316C59.6835 85.9845 59.3564 85.924 59.0319 85.957C58.7075 85.9901 58.3993 86.1154 58.1438 86.3181C57.8883 86.5208 57.6963 86.7925 57.5904 87.101C57.4845 87.4094 57.4692 87.7418 57.5462 88.0587C57.6233 88.3755 57.7895 88.6637 58.0252 88.8891C58.2609 89.1145 58.5563 89.2676 58.8763 89.3304L58.8031 89.6965Z" fill="#263238"/>
<path d="M59.674 86.8604C59.2818 86.7836 58.9197 86.596 58.6307 86.3199C58.3416 86.0438 58.1377 85.6907 58.0431 85.3023C57.9485 84.9139 57.9671 84.5066 58.0967 84.1285C58.2263 83.7504 58.4615 83.4173 58.7745 83.1686C59.0875 82.92 59.4651 82.7662 59.8628 82.7255C60.2604 82.6847 60.6614 82.7587 61.0183 82.9387C61.3752 83.1187 61.6731 83.3972 61.8767 83.7412C62.0803 84.0851 62.1811 84.4802 62.1672 84.8797H61.7818C61.7971 84.6516 61.7665 84.4228 61.6917 84.2068C61.6168 83.9908 61.4994 83.792 61.3463 83.6222C61.1932 83.4524 61.0076 83.3151 60.8004 83.2185C60.5932 83.1218 60.3687 83.0678 60.1403 83.0595C59.9118 83.0512 59.684 83.0889 59.4704 83.1704C59.2568 83.2518 59.0618 83.3754 58.8968 83.5336C58.7318 83.6919 58.6003 83.8817 58.5101 84.0917C58.4199 84.3018 58.3728 84.5278 58.3716 84.7564C58.3543 85.1625 58.4838 85.5612 58.7364 85.8797C58.9891 86.1981 59.3479 86.4149 59.7472 86.4905L59.674 86.8604Z" fill="#263238"/>
<path d="M60.5295 84.0204C60.1371 83.9436 59.7749 83.7559 59.4858 83.4795C59.1968 83.2032 58.9929 82.8499 58.8985 82.4613C58.804 82.0728 58.8228 81.6653 58.9528 81.2871C59.0827 80.9089 59.3183 80.5759 59.6316 80.3274C59.945 80.079 60.3229 79.9256 60.7208 79.8853C61.1186 79.845 61.5197 79.9195 61.8765 80.1001C62.2333 80.2806 62.5308 80.5597 62.734 80.9041C62.9371 81.2486 63.0373 81.644 63.0226 82.0436H62.6373C62.6508 81.7059 62.5634 81.3718 62.3864 81.0839C62.2094 80.796 61.9508 80.5672 61.6434 80.4267C61.336 80.2862 60.9937 80.2404 60.6602 80.295C60.3266 80.3496 60.0169 80.5023 59.7704 80.7334C59.5397 80.9472 59.3728 81.2207 59.288 81.5236C59.2033 81.8264 59.2041 82.1468 59.2903 82.4493C59.3764 82.7517 59.5447 83.0244 59.7763 83.2371C60.008 83.4498 60.294 83.5942 60.6027 83.6543L60.5295 84.0204Z" fill="#263238"/>
<path d="M61.3926 81.1843C61.0002 81.1075 60.638 80.9198 60.349 80.6434C60.0599 80.3671 59.8561 80.0138 59.7616 79.6252C59.6672 79.2367 59.686 78.8292 59.8159 78.451C59.9459 78.0728 60.1815 77.7398 60.4948 77.4914C60.8081 77.2429 61.1861 77.0895 61.5839 77.0492C61.9818 77.0089 62.3828 77.0834 62.7396 77.264C63.0964 77.4445 63.394 77.7236 63.5971 78.068C63.8003 78.4125 63.9004 78.8079 63.8858 79.2075H63.5005C63.512 78.8816 63.43 78.5592 63.2641 78.2784C63.0981 77.9976 62.8552 77.7703 62.5641 77.6233C62.273 77.4762 61.9459 77.4156 61.6214 77.4487C61.297 77.4817 60.9888 77.607 60.7333 77.8098C60.4779 78.0125 60.2858 78.2842 60.1799 78.5926C60.074 78.9011 60.0587 79.2334 60.1357 79.5503C60.2128 79.8672 60.379 80.1554 60.6147 80.3808C60.8505 80.6062 61.1458 80.7593 61.4659 80.8221L61.3926 81.1843Z" fill="#263238"/>
<path d="M62.2558 78.3482C61.8773 78.2741 61.5267 78.0969 61.2427 77.836C60.9586 77.5752 60.7521 77.241 60.6461 76.8702C60.54 76.4994 60.5385 76.1065 60.6417 75.7349C60.7449 75.3634 60.9488 75.0275 61.2308 74.7645C61.5337 74.482 61.9136 74.2958 62.3224 74.2293C62.7312 74.1629 63.1505 74.2193 63.5273 74.3914C63.904 74.5634 64.2212 74.8435 64.4387 75.1959C64.6562 75.5484 64.7642 75.9575 64.749 76.3714H64.3636C64.3792 75.9192 64.2147 75.4794 63.9062 75.1484C63.5976 74.8175 63.1704 74.6226 62.7182 74.6065C62.4945 74.5983 62.2714 74.6342 62.0616 74.7123C61.8518 74.7903 61.6594 74.909 61.4955 75.0615C61.3316 75.2139 61.1993 75.3972 61.1063 75.6008C61.0133 75.8044 60.9613 76.0244 60.9533 76.2481C60.9359 76.6546 61.0653 77.0539 61.3179 77.3729C61.5704 77.692 61.9293 77.9096 62.329 77.986L62.2558 78.3482Z" fill="#263238"/>
<path d="M63.119 75.5159C62.7405 75.4418 62.3899 75.2646 62.1058 75.0038C61.8218 74.7429 61.6153 74.4087 61.5093 74.0379C61.4032 73.6671 61.4017 73.2743 61.5049 72.9027C61.608 72.5311 61.8119 72.1953 62.0939 71.9322C62.502 71.5557 63.0419 71.3549 63.5968 71.3735C63.8713 71.3824 64.1413 71.4455 64.3913 71.5591C64.6413 71.6728 64.8665 71.8347 65.0537 72.0355C65.241 72.2364 65.3867 72.4723 65.4826 72.7297C65.5784 72.9871 65.6224 73.2608 65.6121 73.5353H65.2268C65.2424 73.0831 65.0779 72.6432 64.7693 72.3123C64.4608 71.9814 64.0335 71.7865 63.5814 71.7704C63.1543 71.7589 62.7385 71.9079 62.416 72.188C62.0934 72.4681 61.8876 72.859 61.8392 73.2834C61.7909 73.7079 61.9034 74.1351 62.1545 74.4806C62.4057 74.8261 62.7774 75.0649 63.196 75.1498L63.119 75.5159Z" fill="#263238"/>
<path d="M63.9821 72.676C63.4727 72.5769 63.0183 72.292 62.7071 71.8767C62.3959 71.4613 62.2501 70.9452 62.2982 70.4284C62.3462 69.9117 62.5845 69.4312 62.9669 69.0803C63.3493 68.7294 63.8485 68.5332 64.3675 68.5297H64.4445C64.9986 68.5508 65.5217 68.7905 65.8994 69.1963C66.2771 69.6022 66.4786 70.1412 66.4599 70.6953H66.0745C66.0898 70.4672 66.0592 70.2384 65.9843 70.0223C65.9095 69.8063 65.7921 69.6075 65.639 69.4378C65.4859 69.268 65.3002 69.1307 65.0931 69.0341C64.8859 68.9374 64.6614 68.8833 64.433 68.8751C64.2045 68.8668 63.9767 68.9045 63.7631 68.986C63.5495 69.0674 63.3544 69.1909 63.1895 69.3492C63.0245 69.5075 62.893 69.6973 62.8028 69.9073C62.7126 70.1174 62.6655 70.3434 62.6643 70.572C62.647 70.9781 62.7765 71.3768 63.0291 71.6952C63.2817 72.0137 63.6406 72.2305 64.0399 72.306L63.9821 72.676Z" fill="#263238"/>
<path d="M64.8453 69.8398C64.453 69.763 64.0909 69.5755 63.8019 69.2994C63.5129 69.0233 63.309 68.6701 63.2144 68.2818C63.1198 67.8934 63.1383 67.4861 63.268 67.1079C63.3976 66.7298 63.6328 66.3967 63.9458 66.1481C64.2587 65.8995 64.6364 65.7457 65.034 65.7049C65.4317 65.6642 65.8327 65.7382 66.1896 65.9182C66.5465 66.0982 66.8443 66.3766 67.0479 66.7206C67.2515 67.0646 67.3524 67.4597 67.3385 67.8592H66.9531C66.9654 67.5331 66.884 67.2104 66.7186 66.9291C66.5531 66.6479 66.3105 66.42 66.0195 66.2724C65.7285 66.1248 65.4013 66.0637 65.0767 66.0963C64.752 66.1289 64.4435 66.2539 64.1877 66.4564C63.9319 66.6589 63.7394 66.9305 63.6332 67.239C63.527 67.5475 63.5114 67.88 63.5883 68.1971C63.6652 68.5142 63.8314 68.8026 64.0671 69.0282C64.3029 69.2538 64.5983 69.4071 64.9185 69.4699L64.8453 69.8398Z" fill="#263238"/>
<path d="M65.7084 66.9999C65.33 66.9258 64.9794 66.7485 64.6953 66.4877C64.4112 66.2269 64.2048 65.8926 64.0987 65.5219C63.9927 65.1511 63.9912 64.7582 64.0943 64.3866C64.1975 64.0151 64.4014 63.6792 64.6834 63.4162C64.9863 63.1337 65.3662 62.9475 65.775 62.881C66.1838 62.8146 66.6032 62.871 66.9799 63.0431C67.3566 63.2151 67.6738 63.4952 67.8913 63.8476C68.1088 64.2001 68.2168 64.6092 68.2016 65.0231H67.8163C67.8278 64.6972 67.7458 64.3747 67.5798 64.094C67.4139 63.8132 67.171 63.5859 66.8799 63.4388C66.5888 63.2918 66.2617 63.2312 65.9372 63.2643C65.6128 63.2973 65.3046 63.4226 65.0491 63.6253C64.7937 63.8281 64.6016 64.0997 64.4957 64.4082C64.3898 64.7167 64.3745 65.049 64.4515 65.3659C64.5286 65.6828 64.6948 65.971 64.9305 66.1964C65.1663 66.4217 65.4616 66.5749 65.7817 66.6377L65.7084 66.9999Z" fill="#263238"/>
<path d="M66.5716 64.1638C66.1931 64.0897 65.8425 63.9124 65.5585 63.6516C65.2744 63.3908 65.0679 63.0565 64.9619 62.6857C64.8558 62.315 64.8543 61.9221 64.9575 61.5505C65.0607 61.1789 65.2645 60.8431 65.5466 60.5801C65.8495 60.2976 66.2294 60.1113 66.6382 60.0449C67.047 59.9785 67.4663 60.0349 67.843 60.2069C68.2198 60.379 68.537 60.659 68.7545 61.0115C68.972 61.364 69.0799 61.7731 69.0647 62.187H68.6794C68.691 61.861 68.6089 61.5386 68.443 61.2579C68.2771 60.9771 68.0342 60.7497 67.7431 60.6027C67.452 60.4557 67.1248 60.3951 66.8004 60.4281C66.4759 60.4612 66.1677 60.5865 65.9123 60.7892C65.6568 60.992 65.4648 61.2636 65.3589 61.5721C65.253 61.8805 65.2376 62.2129 65.3147 62.5298C65.3918 62.8467 65.558 63.1349 65.7937 63.3602C66.0294 63.5856 66.3248 63.7388 66.6448 63.8015L66.5716 64.1638Z" fill="#263238"/>
<path d="M57.94 92.5326C57.5491 92.4538 57.1888 92.265 56.9015 91.9883C56.6143 91.7116 56.4122 91.3586 56.3189 90.9708C56.2256 90.5831 56.2451 90.1767 56.375 89.7997C56.505 89.4226 56.74 89.0906 57.0523 88.8426C57.3647 88.5947 57.7414 88.4411 58.1381 88.4001C58.5348 88.3591 58.9349 88.4323 59.2914 88.6111C59.6479 88.7899 59.9458 89.0669 60.1502 89.4094C60.3545 89.7519 60.4567 90.1456 60.4447 90.5443H60.0594C60.071 90.2073 59.9825 89.8745 59.8052 89.5877C59.6278 89.301 59.3695 89.0732 59.0629 88.933C58.7562 88.7929 58.4149 88.7467 58.0821 88.8003C57.7492 88.8539 57.4396 89.0048 57.1924 89.2341C56.9621 89.4484 56.7954 89.7221 56.7109 90.0252C56.6263 90.3282 56.6271 90.6487 56.7132 90.9513C56.7993 91.2539 56.9674 91.5268 57.1988 91.7399C57.4303 91.953 57.7161 92.098 58.0248 92.1588L57.94 92.5326Z" fill="#263238"/>
<path d="M60.8493 90.3285C61.277 89.2379 65.8896 73.0112 67.9974 66.3486C68.2508 65.6227 68.7742 65.0222 69.4588 64.672C70.1434 64.3218 70.9365 64.2488 71.6735 64.4682L95.3682 71.5122C96.0576 71.7366 96.6328 72.2203 96.9722 72.861C97.3116 73.5017 97.3886 74.2492 97.187 74.9456L86.7134 111.226C86.5103 111.93 86.0388 112.527 85.4003 112.887C84.7618 113.247 84.0073 113.343 83.2993 113.152L59.1538 106.628C58.7962 106.531 58.4615 106.364 58.169 106.137C57.8765 105.909 57.6322 105.626 57.4501 105.304C57.2679 104.981 57.1517 104.625 57.1082 104.257C57.0646 103.89 57.0945 103.517 57.1963 103.16L60.7953 90.4749L60.8493 90.3285Z" fill="white"/>
<path d="M69.3076 63.6705C68.8479 63.5479 68.3586 63.6082 67.9425 63.8389C67.5264 64.0696 67.2159 64.4526 67.0764 64.9075C65.3154 70.6876 59.6239 89.3035 59.2001 90.4633L55.0037 104.216C54.9307 104.453 54.9064 104.702 54.9323 104.948C54.9582 105.194 55.0338 105.432 55.1545 105.648C55.2751 105.865 55.4384 106.054 55.6344 106.205C55.8303 106.356 56.0549 106.466 56.2946 106.528L82.309 113.279C82.7722 113.4 83.2641 113.334 83.68 113.098C84.0959 112.861 84.4031 112.471 84.5363 112.012L95.8692 72.7068C95.9369 72.4725 95.9573 72.227 95.929 71.9848C95.9008 71.7425 95.8245 71.5084 95.7047 71.2959C95.5848 71.0835 95.4238 70.8971 95.2311 70.7477C95.0383 70.5982 94.8177 70.4887 94.5821 70.4256L69.3076 63.6705Z" fill="#E0E0E0"/>
<path d="M69.3075 63.6705L69.6929 63.7592L70.768 64.0366L74.8873 65.1117L90.0698 69.1462L92.5282 69.8013L93.7999 70.1404L94.4434 70.3138C94.6713 70.3617 94.89 70.4463 95.0908 70.5643C95.5029 70.8135 95.8067 71.2081 95.9424 71.6702C96.0116 71.9024 96.0352 72.1458 96.0117 72.387C95.9774 72.6239 95.922 72.8574 95.846 73.0844L95.0522 75.8473C93.9733 79.5928 92.8249 83.5965 91.6111 87.7929C90.3973 91.9893 89.1257 96.4284 87.8039 101.014C87.1463 103.306 86.4745 105.637 85.7886 108.008C85.4495 109.192 85.1066 110.384 84.7597 111.584L84.6287 112.035C84.5811 112.193 84.5138 112.344 84.4283 112.486C84.2577 112.771 84.0161 113.007 83.727 113.172C83.2876 113.418 82.77 113.486 82.282 113.36L81.8234 113.241L67.5234 109.522L60.726 107.754L57.4313 106.894L56.6182 106.682C56.3368 106.626 56.0645 106.532 55.809 106.401C55.5563 106.257 55.3393 106.058 55.1745 105.819C55.0097 105.579 54.9012 105.305 54.8572 105.018C54.8146 104.733 54.8343 104.442 54.915 104.166C54.9959 103.908 55.0769 103.646 55.1539 103.395L55.6279 101.854C55.94 100.833 56.2483 99.8233 56.5527 98.833L58.3215 93.0528L61.5236 82.6871C63.4889 76.356 65.0765 71.2348 66.1786 67.6896C66.456 66.8034 66.6988 66.0173 66.9146 65.3352C66.9925 65.0131 67.1144 64.7032 67.2768 64.4142C67.428 64.1809 67.6311 63.9858 67.8702 63.8439C68.1922 63.6495 68.566 63.558 68.9415 63.5819C69.0723 63.5886 69.2018 63.6119 69.3268 63.6513C69.3268 63.6513 69.2035 63.6204 68.9415 63.605C68.5727 63.5901 68.2078 63.6853 67.8933 63.8786C67.6633 64.0208 67.4683 64.2131 67.323 64.4412C67.1653 64.7283 67.0473 65.0356 66.9724 65.3545L66.2556 67.7128C65.169 71.2618 63.6006 76.3907 61.6624 82.7411C60.6913 85.9086 59.6239 89.3844 58.4833 93.1106C57.9156 94.9757 57.3298 96.9024 56.7261 98.8908C56.423 99.885 56.116 100.893 55.8052 101.916C55.6472 102.424 55.493 102.941 55.3351 103.457C55.2541 103.715 55.1771 103.977 55.0961 104.228C55.0225 104.478 55.004 104.741 55.0422 104.998C55.082 105.258 55.1804 105.506 55.3299 105.722C55.4795 105.938 55.6762 106.118 55.9054 106.247C56.149 106.369 56.4083 106.457 56.676 106.509L57.4891 106.721L60.7876 107.576L67.5851 109.341L81.8851 113.056C82.1768 113.153 82.4799 113.211 82.7868 113.229C83.0856 113.23 83.3795 113.152 83.6395 113.005C83.8996 112.858 84.1169 112.646 84.2704 112.389C84.4092 112.118 84.5128 111.831 84.5786 111.534C84.9254 110.335 85.2684 109.141 85.6113 107.958C86.2947 105.592 86.9665 103.262 87.6267 100.968C88.9523 96.386 90.2277 91.9623 91.4454 87.7505C92.6631 83.5388 93.8191 79.5389 94.9135 75.8049L95.7112 73.042C95.7841 72.8249 95.8383 72.6019 95.873 72.3754C95.8931 72.1538 95.8722 71.9305 95.8113 71.7165C95.689 71.2938 95.4145 70.9314 95.0407 70.6992C94.8513 70.5893 94.6459 70.51 94.4318 70.4641L93.7883 70.2907L92.5167 69.9516L90.0582 69.2888L74.895 65.1926L70.7718 64.0713L69.7044 63.7707C69.4347 63.7129 69.3075 63.6705 69.3075 63.6705Z" fill="#263238"/>
<g opacity="0.3">
<path d="M71.1688 101.827L55.7551 100.64C55.9517 101.796 56.8456 102.702 57.8745 103.226C58.9307 103.7 60.0536 104.01 61.2039 104.143L66.4407 105.014C67.1073 105.126 67.8125 105.253 68.3096 105.711C68.8067 106.17 69.0301 106.971 69.4463 107.569C70.1361 108.547 71.373 108.952 72.529 109.291C77.0661 110.67 81.672 111.811 86.3281 112.709C87.619 112.944 88.96 113.152 90.2394 112.84C91.5187 112.528 92.7287 111.576 92.9368 110.278L71.1688 101.827Z" fill="black"/>
</g>
<path d="M70.3904 64.341C70.4405 64.341 67.5235 73.8204 63.8704 85.4809C60.2174 97.1413 57.2156 106.578 57.1616 106.563C57.1077 106.547 60.0286 97.0797 63.6816 85.4192C67.3346 73.7588 70.3365 64.3179 70.3904 64.341Z" fill="#263238"/>
<path d="M88.4027 77.607L73.3975 73.1252L71.1543 80.6352L86.1596 85.117L88.4027 77.607Z" fill="white"/>
<path d="M73.3652 90.7562C73.3652 90.7562 69.558 85.6851 68.1823 84.5329C66.8066 83.3807 61.1036 84.3017 61.1036 84.3017L58.6297 86.9066C58.6297 86.9066 59.1152 88.8873 61.4273 87.9085L62.0708 87.423H64.7142L66.3558 89.3497L61.2153 89.2418C61.2153 89.2418 58.6836 87.5964 58.1056 87.5964C57.5276 87.5964 56.1404 88.71 57.1461 90.6791C57.1461 90.6791 55.2194 91.2995 55.8861 93.9237C55.8861 93.9237 54.2715 94.3668 55.7435 97.4765L55.9285 97.8311C55.9285 97.8311 54.2407 98.6326 55.3504 100.409C56.4602 102.185 59.2617 102.721 60.1056 102.675C60.9495 102.629 76.1435 104.867 76.1435 104.867L80.2474 94.1934L73.3652 90.7562Z" fill="#FFBF9D"/>
<path d="M61.8512 93.3495C61.5802 93.3878 61.3044 93.3748 61.0382 93.311C59.723 93.0866 58.5225 92.4238 57.6317 91.4305C57.4368 91.2379 57.2776 91.0122 57.1616 90.7639C58.3609 92.1644 60.0269 93.0829 61.8512 93.3495Z" fill="#FF9A6C"/>
<path d="M59.4158 96.7637C59.1764 96.7416 58.9435 96.6736 58.7299 96.5633C57.6557 96.1193 56.723 95.3905 56.0325 94.4555C55.878 94.2731 55.7579 94.0642 55.678 93.8389C56.1925 94.4546 56.7556 95.0281 57.3619 95.5537C58.0108 96.0149 58.6979 96.4197 59.4158 96.7637Z" fill="#FF9A6C"/>
<path d="M59.4235 99.858C58.7104 99.7789 58.0236 99.5433 57.412 99.1682C56.7686 98.8507 56.2019 98.3971 55.7512 97.8388C55.7936 97.7925 56.4911 98.4399 57.5084 98.9948C58.5257 99.5497 59.4389 99.7925 59.4235 99.858Z" fill="#FF9A6C"/>
<path d="M111.637 97.5305L95.1255 94.9603L75.7158 91.2918L71.1765 106.551C71.1765 106.551 94.3741 113.353 100.728 114.189C107.518 115.083 110.15 114.189 112.289 109.727C113.668 106.883 112.817 101.176 111.637 97.5305Z" fill="#1976d2"/>
<path d="M96.2506 113.314C96.2087 113.312 96.1673 113.304 96.1273 113.291L95.7651 113.202L94.3663 112.84L89.1411 111.461L71.1417 106.644L71.0454 106.621L71.0762 106.524C71.9818 103.476 72.9606 100.182 73.9702 96.7752L75.6117 91.2648L75.6387 91.1762L75.7273 91.1955L96.9866 95.4034L103.268 96.6712L104.959 97.018L105.395 97.1143L105.541 97.1529C105.491 97.1571 105.441 97.1571 105.391 97.1529L104.952 97.0758L103.252 96.7598L96.9596 95.5537L75.6888 91.4074L75.8005 91.3381C75.2765 93.1106 74.7254 94.9641 74.1628 96.8484C73.1494 100.259 72.1668 103.553 71.2612 106.598L71.1918 106.478L89.1719 111.353L94.3817 112.786L95.7728 113.172L96.1311 113.276L96.2506 113.314Z" fill="#263238"/>
</svg>
